<?xml version="1.0" encoding="UTF-8" standalone="no"?>
<!DOCTYPE svg PUBLIC "-//W3C//DTD SVG 1.1//EN"
 "http://www.w3.org/Graphics/SVG/1.1/DTD/svg11.dtd">
<!-- Generated by graphviz version 2.38.0 (20140413.2041)
 -->
<!-- Title: API::nrfjprog_eraseuicr Pages: 1 -->
<svg width="426pt" height="28pt"
 viewBox="0.00 0.00 426.00 28.00" xmlns="http://www.w3.org/2000/svg" xmlns:xlink="http://www.w3.org/1999/xlink">
<g id="graph0" class="graph" transform="scale(1 1) rotate(0) translate(4 24)">
<title>API::nrfjprog_eraseuicr</title>
<polygon fill="white" stroke="none" points="-4,4 -4,-24 422,-24 422,4 -4,4"/>
<!-- Node141 -->
<g id="node1" class="node"><title>Node141</title>
<g id="a_node1"><a xlink:title="API::nrfjprog_eraseuicr Erases the UICR page.">
<polygon fill="#bfbfbf" stroke="black" points="303,-0.5 303,-19.5 418,-19.5 418,-0.5 303,-0.5"/>
<text text-anchor="middle" x="360.5" y="-7.5" font-family="Helvetica,sans-Serif" font-size="10.00">API::nrfjprog_eraseuicr</text>
</a>
</g>
</g>
<!-- Node142 -->
<g id="node2" class="node"><title>Node142</title>
<g id="a_node2"><a xlink:href="$test_8cpp.html#af80a0fd78ce59c75bd5442e7ec35efe2" xlink:title=" ">
<polygon fill="white" stroke="black" points="171,-0.5 171,-19.5 267,-19.5 267,-0.5 171,-0.5"/>
<text text-anchor="middle" x="219" y="-7.5" font-family="Helvetica,sans-Serif" font-size="10.00">test_api_eraseuicr</text>
</a>
</g>
</g>
<!-- Node141&#45;&gt;Node142 -->
<g id="edge1" class="edge"><title>Node141&#45;&gt;Node142</title>
<path fill="none" stroke="midnightblue" d="M292.741,-10C284.156,-10 275.51,-10 267.326,-10"/>
<polygon fill="midnightblue" stroke="midnightblue" points="292.76,-13.5001 302.76,-10 292.76,-6.5001 292.76,-13.5001"/>
</g>
<!-- Node143 -->
<g id="node3" class="node"><title>Node143</title>
<g id="a_node3"><a xlink:href="$test_8cpp.html#a8b3ca02f2a8358f236669e91baf3b408" xlink:title=" ">
<polygon fill="white" stroke="black" points="84,-0.5 84,-19.5 135,-19.5 135,-0.5 84,-0.5"/>
<text text-anchor="middle" x="109.5" y="-7.5" font-family="Helvetica,sans-Serif" font-size="10.00">test_api</text>
</a>
</g>
</g>
<!-- Node142&#45;&gt;Node143 -->
<g id="edge2" class="edge"><title>Node142&#45;&gt;Node143</title>
<path fill="none" stroke="midnightblue" d="M160.709,-10C151.731,-10 142.884,-10 135.178,-10"/>
<polygon fill="midnightblue" stroke="midnightblue" points="160.849,-13.5001 170.849,-10 160.849,-6.5001 160.849,-13.5001"/>
</g>
<!-- Node144 -->
<g id="node4" class="node"><title>Node144</title>
<g id="a_node4"><a xlink:href="$test_8h.html#add1fe75ad79de762a3906b6d41897ff2" xlink:title=" ">
<polygon fill="white" stroke="black" points="0,-0.5 0,-19.5 48,-19.5 48,-0.5 0,-0.5"/>
<text text-anchor="middle" x="24" y="-7.5" font-family="Helvetica,sans-Serif" font-size="10.00">test_all</text>
</a>
</g>
</g>
<!-- Node143&#45;&gt;Node144 -->
<g id="edge3" class="edge"><title>Node143&#45;&gt;Node144</title>
<path fill="none" stroke="midnightblue" d="M73.7336,-10C65.1523,-10 56.1657,-10 48.2802,-10"/>
<polygon fill="midnightblue" stroke="midnightblue" points="73.8989,-13.5001 83.8989,-10 73.8988,-6.5001 73.8989,-13.5001"/>
</g>
</g>
</svg>
