<?xml version="1.0" encoding="UTF-8" standalone="no"?>
<!DOCTYPE svg PUBLIC "-//W3C//DTD SVG 1.1//EN"
 "http://www.w3.org/Graphics/SVG/1.1/DTD/svg11.dtd">
<!-- Generated by graphviz version 2.38.0 (20140413.2041)
 -->
<!-- Title: MainWindow::MainWindow Pages: 1 -->
<svg width="285pt" height="88pt"
 viewBox="0.00 0.00 285.00 88.00" xmlns="http://www.w3.org/2000/svg" xmlns:xlink="http://www.w3.org/1999/xlink">
<g id="graph0" class="graph" transform="scale(1 1) rotate(0) translate(4 84)">
<title>MainWindow::MainWindow</title>
<polygon fill="white" stroke="none" points="-4,4 -4,-84 281,-84 281,4 -4,4"/>
<!-- Node0 -->
<g id="node1" class="node"><title>Node0</title>
<g id="a_node1"><a xlink:title=" ">
<polygon fill="#bfbfbf" stroke="black" points="0,-30 0,-49 134,-49 134,-30 0,-30"/>
<text text-anchor="middle" x="67" y="-37" font-family="Helvetica,sans-Serif" font-size="10.00">MainWindow::MainWindow</text>
</a>
</g>
</g>
<!-- Node1 -->
<g id="node2" class="node"><title>Node1</title>
<g id="a_node2"><a xlink:href="$class_main_window.html#ad87a9d1b24f9ab48535f75733728cae0" xlink:title="MainWindow::update_logs 更新操作日志信息文本框">
<polygon fill="white" stroke="black" points="170,-49.5 170,-79.5 277,-79.5 277,-49.5 170,-49.5"/>
<text text-anchor="start" x="178" y="-67.5" font-family="Helvetica,sans-Serif" font-size="10.00">MainWindow::update</text>
<text text-anchor="middle" x="223.5" y="-56.5" font-family="Helvetica,sans-Serif" font-size="10.00">_info_logs</text>
</a>
</g>
</g>
<!-- Node0&#45;&gt;Node1 -->
<g id="edge1" class="edge"><title>Node0&#45;&gt;Node1</title>
<path fill="none" stroke="midnightblue" d="M126.851,-49.0227C137.689,-50.7765 149.04,-52.6132 159.982,-54.3837"/>
<polygon fill="midnightblue" stroke="midnightblue" points="159.458,-57.8444 169.888,-55.9868 160.576,-50.9343 159.458,-57.8444"/>
</g>
<!-- Node2 -->
<g id="node3" class="node"><title>Node2</title>
<g id="a_node3"><a xlink:href="$class_main_window.html#acdd7c08efce946ff40c11750b138ef8d" xlink:title=" ">
<polygon fill="white" stroke="black" points="170,-0.5 170,-30.5 277,-30.5 277,-0.5 170,-0.5"/>
<text text-anchor="start" x="178" y="-18.5" font-family="Helvetica,sans-Serif" font-size="10.00">MainWindow::update</text>
<text text-anchor="middle" x="223.5" y="-7.5" font-family="Helvetica,sans-Serif" font-size="10.00">_error_logs</text>
</a>
</g>
</g>
<!-- Node0&#45;&gt;Node2 -->
<g id="edge2" class="edge"><title>Node0&#45;&gt;Node2</title>
<path fill="none" stroke="midnightblue" d="M129.506,-29.9456C139.374,-28.4127 149.6,-26.8242 159.503,-25.286"/>
<polygon fill="midnightblue" stroke="midnightblue" points="160.332,-28.6993 169.676,-23.7057 159.257,-21.7822 160.332,-28.6993"/>
</g>
</g>
</svg>
