<?xml version="1.0" encoding="UTF-8" standalone="no"?>
<!DOCTYPE svg PUBLIC "-//W3C//DTD SVG 1.1//EN"
 "http://www.w3.org/Graphics/SVG/1.1/DTD/svg11.dtd">
<!-- Generated by graphviz version 2.38.0 (20140413.2041)
 -->
<!-- Title: MainWindow Pages: 1 -->
<svg width="149pt" height="152pt"
 viewBox="0.00 0.00 148.50 152.00" xmlns="http://www.w3.org/2000/svg" xmlns:xlink="http://www.w3.org/1999/xlink">
<g id="graph0" class="graph" transform="scale(1 1) rotate(0) translate(4 148)">
<title>MainWindow</title>
<polygon fill="white" stroke="none" points="-4,4 -4,-148 144.5,-148 144.5,4 -4,4"/>
<!-- Node2 -->
<g id="node1" class="node"><title>Node2</title>
<g id="a_node1"><a xlink:title=" ">
<polygon fill="#bfbfbf" stroke="black" points="30,-0.5 30,-19.5 102,-19.5 102,-0.5 30,-0.5"/>
<text text-anchor="middle" x="66" y="-7.5" font-family="Helvetica,sans-Serif" font-size="10.00">MainWindow</text>
</a>
</g>
</g>
<!-- Node3 -->
<g id="node2" class="node"><title>Node3</title>
<g id="a_node2"><a xlink:title=" ">
<polygon fill="white" stroke="#bfbfbf" points="0,-67.5 0,-86.5 80,-86.5 80,-67.5 0,-67.5"/>
<text text-anchor="middle" x="40" y="-74.5" font-family="Helvetica,sans-Serif" font-size="10.00">QMainWindow</text>
</a>
</g>
</g>
<!-- Node3&#45;&gt;Node2 -->
<g id="edge1" class="edge"><title>Node3&#45;&gt;Node2</title>
<path fill="none" stroke="midnightblue" d="M47.284,-57.79C52.277,-45.3076 58.6746,-29.3135 62.5491,-19.6273"/>
<polygon fill="midnightblue" stroke="midnightblue" points="43.9708,-56.6491 43.5065,-67.2338 50.4701,-59.2489 43.9708,-56.6491"/>
</g>
<!-- Node4 -->
<g id="node3" class="node"><title>Node4</title>
<g id="a_node3"><a xlink:href="$class_a_p_i.html" xlink:title=" ">
<polygon fill="white" stroke="black" points="98,-67.5 98,-86.5 130,-86.5 130,-67.5 98,-67.5"/>
<text text-anchor="middle" x="114" y="-74.5" font-family="Helvetica,sans-Serif" font-size="10.00">API</text>
</a>
</g>
</g>
<!-- Node4&#45;&gt;Node2 -->
<g id="edge2" class="edge"><title>Node4&#45;&gt;Node2</title>
<path fill="none" stroke="#9a32cd" stroke-dasharray="5,2" d="M101.375,-58.9037C92.0477,-46.2729 79.7384,-29.6041 72.3709,-19.6273"/>
<polygon fill="#9a32cd" stroke="#9a32cd" points="98.7705,-61.2686 107.527,-67.2338 104.402,-57.1103 98.7705,-61.2686"/>
<text text-anchor="middle" x="100" y="-41" font-family="Helvetica,sans-Serif" font-size="10.00"> api</text>
</g>
<!-- Node5 -->
<g id="node4" class="node"><title>Node5</title>
<g id="a_node4"><a xlink:title=" ">
<polygon fill="white" stroke="#bfbfbf" points="87.5,-124.5 87.5,-143.5 140.5,-143.5 140.5,-124.5 87.5,-124.5"/>
<text text-anchor="middle" x="114" y="-131.5" font-family="Helvetica,sans-Serif" font-size="10.00">QObject</text>
</a>
</g>
</g>
<!-- Node5&#45;&gt;Node4 -->
<g id="edge3" class="edge"><title>Node5&#45;&gt;Node4</title>
<path fill="none" stroke="midnightblue" d="M114,-114.117C114,-104.817 114,-94.0557 114,-86.7149"/>
<polygon fill="midnightblue" stroke="midnightblue" points="110.5,-114.406 114,-124.406 117.5,-114.406 110.5,-114.406"/>
</g>
</g>
</svg>
