<?xml version="1.0" encoding="UTF-8" standalone="no"?>
<!DOCTYPE svg PUBLIC "-//W3C//DTD SVG 1.1//EN"
 "http://www.w3.org/Graphics/SVG/1.1/DTD/svg11.dtd">
<!-- Generated by graphviz version 2.38.0 (20140413.2041)
 -->
<!-- Title: API::run_command Pages: 1 -->
<svg width="260pt" height="104pt"
 viewBox="0.00 0.00 260.00 104.00" xmlns="http://www.w3.org/2000/svg" xmlns:xlink="http://www.w3.org/1999/xlink">
<g id="graph0" class="graph" transform="scale(1 1) rotate(0) translate(4 100)">
<title>API::run_command</title>
<polygon fill="white" stroke="none" points="-4,4 -4,-100 256,-100 256,4 -4,4"/>
<!-- Node227 -->
<g id="node1" class="node"><title>Node227</title>
<g id="a_node1"><a xlink:title="API::run_command 创建新进程 执行 程序">
<polygon fill="#bfbfbf" stroke="black" points="0,-38.5 0,-57.5 100,-57.5 100,-38.5 0,-38.5"/>
<text text-anchor="middle" x="50" y="-45.5" font-family="Helvetica,sans-Serif" font-size="10.00">API::run_command</text>
</a>
</g>
</g>
<!-- Node228 -->
<g id="node2" class="node"><title>Node228</title>
<g id="a_node2"><a xlink:href="$class_a_p_i.html#a27bbd79867ef0c01c9e29b6ebb293014" xlink:title=" ">
<polygon fill="white" stroke="black" points="138.5,-76.5 138.5,-95.5 249.5,-95.5 249.5,-76.5 138.5,-76.5"/>
<text text-anchor="middle" x="194" y="-83.5" font-family="Helvetica,sans-Serif" font-size="10.00">API::update_info_logs</text>
</a>
</g>
</g>
<!-- Node227&#45;&gt;Node228 -->
<g id="edge1" class="edge"><title>Node227&#45;&gt;Node228</title>
<path fill="none" stroke="midnightblue" d="M86.8326,-57.589C105.163,-62.4944 127.678,-68.5196 147.25,-73.7571"/>
<polygon fill="midnightblue" stroke="midnightblue" points="146.614,-77.2099 157.179,-76.4141 148.424,-70.4479 146.614,-77.2099"/>
</g>
<!-- Node229 -->
<g id="node3" class="node"><title>Node229</title>
<g id="a_node3"><a xlink:href="$class_a_p_i.html#a70b16d0066d38fca6d5cb3ad74ff4e11" xlink:title=" ">
<polygon fill="white" stroke="black" points="136,-38.5 136,-57.5 252,-57.5 252,-38.5 136,-38.5"/>
<text text-anchor="middle" x="194" y="-45.5" font-family="Helvetica,sans-Serif" font-size="10.00">API::update_error_logs</text>
</a>
</g>
</g>
<!-- Node227&#45;&gt;Node229 -->
<g id="edge2" class="edge"><title>Node227&#45;&gt;Node229</title>
<path fill="none" stroke="midnightblue" d="M100.266,-48C108.353,-48 116.856,-48 125.297,-48"/>
<polygon fill="midnightblue" stroke="midnightblue" points="125.529,-51.5001 135.529,-48 125.529,-44.5001 125.529,-51.5001"/>
</g>
<!-- Node230 -->
<g id="node4" class="node"><title>Node230</title>
<g id="a_node4"><a xlink:href="$class_a_p_i.html#a474699b50370b27d57863f894c38ce56" xlink:title="API::handle_error 处理 nrfjprog 运行的错误">
<polygon fill="white" stroke="black" points="148,-0.5 148,-19.5 240,-19.5 240,-0.5 148,-0.5"/>
<text text-anchor="middle" x="194" y="-7.5" font-family="Helvetica,sans-Serif" font-size="10.00">API::handle_error</text>
</a>
</g>
</g>
<!-- Node227&#45;&gt;Node230 -->
<g id="edge3" class="edge"><title>Node227&#45;&gt;Node230</title>
<path fill="none" stroke="midnightblue" d="M86.8326,-38.411C105.163,-33.5056 127.678,-27.4804 147.25,-22.2429"/>
<polygon fill="midnightblue" stroke="midnightblue" points="148.424,-25.5521 157.179,-19.5859 146.614,-18.7901 148.424,-25.5521"/>
</g>
</g>
</svg>
