<?xml version="1.0" encoding="UTF-8" standalone="no"?>
<!DOCTYPE svg PUBLIC "-//W3C//DTD SVG 1.1//EN"
 "http://www.w3.org/Graphics/SVG/1.1/DTD/svg11.dtd">
<!-- Generated by graphviz version 2.38.0 (20140413.2041)
 -->
<!-- Title: API::nrfjprog_readcode Pages: 1 -->
<svg width="451pt" height="78pt"
 viewBox="0.00 0.00 451.00 77.50" xmlns="http://www.w3.org/2000/svg" xmlns:xlink="http://www.w3.org/1999/xlink">
<g id="graph0" class="graph" transform="scale(1 1) rotate(0) translate(4 73.5)">
<title>API::nrfjprog_readcode</title>
<polygon fill="white" stroke="none" points="-4,4 -4,-73.5 447,-73.5 447,4 -4,4"/>
<!-- Node196 -->
<g id="node1" class="node"><title>Node196</title>
<g id="a_node1"><a xlink:title="API::nrfjprog_readcode Reads the device flash and stores it in the given file path.">
<polygon fill="#bfbfbf" stroke="black" points="328,-28 328,-47 443,-47 443,-28 328,-28"/>
<text text-anchor="middle" x="385.5" y="-35" font-family="Helvetica,sans-Serif" font-size="10.00">API::nrfjprog_readcode</text>
</a>
</g>
</g>
<!-- Node197 -->
<g id="node2" class="node"><title>Node197</title>
<g id="a_node2"><a xlink:href="$test_8cpp.html#a04240439089a1462d98eb432937d6055" xlink:title=" ">
<polygon fill="white" stroke="black" points="183.5,-50 183.5,-69 279.5,-69 279.5,-50 183.5,-50"/>
<text text-anchor="middle" x="231.5" y="-57" font-family="Helvetica,sans-Serif" font-size="10.00">test_api_readcode</text>
</a>
</g>
</g>
<!-- Node196&#45;&gt;Node197 -->
<g id="edge1" class="edge"><title>Node196&#45;&gt;Node197</title>
<path fill="none" stroke="midnightblue" d="M317.726,-47.1646C304.909,-49.0198 291.736,-50.9263 279.696,-52.6691"/>
<polygon fill="midnightblue" stroke="midnightblue" points="318.505,-50.5884 327.901,-45.692 317.503,-43.6606 318.505,-50.5884"/>
</g>
<!-- Node200 -->
<g id="node5" class="node"><title>Node200</title>
<g id="a_node5"><a xlink:href="$class_main_window.html#aad95dca8f8468f93fe661f04e42221ef" xlink:title=" ">
<polygon fill="white" stroke="black" points="171,-0.5 171,-30.5 292,-30.5 292,-0.5 171,-0.5"/>
<text text-anchor="start" x="179" y="-18.5" font-family="Helvetica,sans-Serif" font-size="10.00">MainWindow::on_button</text>
<text text-anchor="middle" x="231.5" y="-7.5" font-family="Helvetica,sans-Serif" font-size="10.00">_readback_clicked</text>
</a>
</g>
</g>
<!-- Node196&#45;&gt;Node200 -->
<g id="edge4" class="edge"><title>Node196&#45;&gt;Node200</title>
<path fill="none" stroke="midnightblue" d="M317.945,-27.867C309.377,-26.627 300.647,-25.3635 292.199,-24.1407"/>
<polygon fill="midnightblue" stroke="midnightblue" points="317.503,-31.3394 327.901,-29.308 318.505,-24.4116 317.503,-31.3394"/>
</g>
<!-- Node198 -->
<g id="node3" class="node"><title>Node198</title>
<g id="a_node3"><a xlink:href="$test_8cpp.html#a8b3ca02f2a8358f236669e91baf3b408" xlink:title=" ">
<polygon fill="white" stroke="black" points="84,-50 84,-69 135,-69 135,-50 84,-50"/>
<text text-anchor="middle" x="109.5" y="-57" font-family="Helvetica,sans-Serif" font-size="10.00">test_api</text>
</a>
</g>
</g>
<!-- Node197&#45;&gt;Node198 -->
<g id="edge2" class="edge"><title>Node197&#45;&gt;Node198</title>
<path fill="none" stroke="midnightblue" d="M173.209,-59.5C159.754,-59.5 146.117,-59.5 135.012,-59.5"/>
<polygon fill="midnightblue" stroke="midnightblue" points="173.417,-63.0001 183.417,-59.5 173.417,-56.0001 173.417,-63.0001"/>
</g>
<!-- Node199 -->
<g id="node4" class="node"><title>Node199</title>
<g id="a_node4"><a xlink:href="$test_8h.html#add1fe75ad79de762a3906b6d41897ff2" xlink:title=" ">
<polygon fill="white" stroke="black" points="0,-50 0,-69 48,-69 48,-50 0,-50"/>
<text text-anchor="middle" x="24" y="-57" font-family="Helvetica,sans-Serif" font-size="10.00">test_all</text>
</a>
</g>
</g>
<!-- Node198&#45;&gt;Node199 -->
<g id="edge3" class="edge"><title>Node198&#45;&gt;Node199</title>
<path fill="none" stroke="midnightblue" d="M73.7336,-59.5C65.1523,-59.5 56.1657,-59.5 48.2802,-59.5"/>
<polygon fill="midnightblue" stroke="midnightblue" points="73.8989,-63.0001 83.8989,-59.5 73.8988,-56.0001 73.8989,-63.0001"/>
</g>
</g>
</svg>
