<?xml version="1.0" encoding="UTF-8" standalone="no"?>
<!DOCTYPE svg PUBLIC "-//W3C//DTD SVG 1.1//EN"
 "http://www.w3.org/Graphics/SVG/1.1/DTD/svg11.dtd">
<!-- Generated by graphviz version 2.38.0 (20140413.2041)
 -->
<!-- Title: API::nrfjprog_erasepage Pages: 1 -->
<svg width="436pt" height="28pt"
 viewBox="0.00 0.00 436.00 28.00" xmlns="http://www.w3.org/2000/svg" xmlns:xlink="http://www.w3.org/1999/xlink">
<g id="graph0" class="graph" transform="scale(1 1) rotate(0) translate(4 24)">
<title>API::nrfjprog_erasepage</title>
<polygon fill="white" stroke="none" points="-4,4 -4,-24 432,-24 432,4 -4,4"/>
<!-- Node132 -->
<g id="node1" class="node"><title>Node132</title>
<g id="a_node1"><a xlink:title="API::nrfjprog_erasepage Erases the flash pages starting at the given start address and ending at the ...">
<polygon fill="#bfbfbf" stroke="black" points="308,-0.5 308,-19.5 428,-19.5 428,-0.5 308,-0.5"/>
<text text-anchor="middle" x="368" y="-7.5" font-family="Helvetica,sans-Serif" font-size="10.00">API::nrfjprog_erasepage</text>
</a>
</g>
</g>
<!-- Node133 -->
<g id="node2" class="node"><title>Node133</title>
<g id="a_node2"><a xlink:href="$test_8cpp.html#a0c1898e417b57c0f026dca25e093e9cf" xlink:title=" ">
<polygon fill="white" stroke="black" points="171,-0.5 171,-19.5 272,-19.5 272,-0.5 171,-0.5"/>
<text text-anchor="middle" x="221.5" y="-7.5" font-family="Helvetica,sans-Serif" font-size="10.00">test_api_erasepage</text>
</a>
</g>
</g>
<!-- Node132&#45;&gt;Node133 -->
<g id="edge1" class="edge"><title>Node132&#45;&gt;Node133</title>
<path fill="none" stroke="midnightblue" d="M297.728,-10C289.093,-10 280.401,-10 272.147,-10"/>
<polygon fill="midnightblue" stroke="midnightblue" points="297.809,-13.5001 307.809,-10 297.809,-6.5001 297.809,-13.5001"/>
</g>
<!-- Node134 -->
<g id="node3" class="node"><title>Node134</title>
<g id="a_node3"><a xlink:href="$test_8cpp.html#a8b3ca02f2a8358f236669e91baf3b408" xlink:title=" ">
<polygon fill="white" stroke="black" points="84,-0.5 84,-19.5 135,-19.5 135,-0.5 84,-0.5"/>
<text text-anchor="middle" x="109.5" y="-7.5" font-family="Helvetica,sans-Serif" font-size="10.00">test_api</text>
</a>
</g>
</g>
<!-- Node133&#45;&gt;Node134 -->
<g id="edge2" class="edge"><title>Node133&#45;&gt;Node134</title>
<path fill="none" stroke="midnightblue" d="M160.741,-10C151.699,-10 142.83,-10 135.121,-10"/>
<polygon fill="midnightblue" stroke="midnightblue" points="160.97,-13.5001 170.97,-10 160.97,-6.5001 160.97,-13.5001"/>
</g>
<!-- Node135 -->
<g id="node4" class="node"><title>Node135</title>
<g id="a_node4"><a xlink:href="$test_8h.html#add1fe75ad79de762a3906b6d41897ff2" xlink:title=" ">
<polygon fill="white" stroke="black" points="0,-0.5 0,-19.5 48,-19.5 48,-0.5 0,-0.5"/>
<text text-anchor="middle" x="24" y="-7.5" font-family="Helvetica,sans-Serif" font-size="10.00">test_all</text>
</a>
</g>
</g>
<!-- Node134&#45;&gt;Node135 -->
<g id="edge3" class="edge"><title>Node134&#45;&gt;Node135</title>
<path fill="none" stroke="midnightblue" d="M73.7336,-10C65.1523,-10 56.1657,-10 48.2802,-10"/>
<polygon fill="midnightblue" stroke="midnightblue" points="73.8989,-13.5001 83.8989,-10 73.8988,-6.5001 73.8989,-13.5001"/>
</g>
</g>
</svg>
