<?xml version="1.0" encoding="UTF-8" standalone="no"?>
<!DOCTYPE svg PUBLIC "-//W3C//DTD SVG 1.1//EN"
 "http://www.w3.org/Graphics/SVG/1.1/DTD/svg11.dtd">
<!-- Generated by graphviz version 2.38.0 (20140413.2041)
 -->
<!-- Title: API::nrfjprog_erasepage Pages: 1 -->
<svg width="416pt" height="104pt"
 viewBox="0.00 0.00 416.00 104.00" xmlns="http://www.w3.org/2000/svg" xmlns:xlink="http://www.w3.org/1999/xlink">
<g id="graph0" class="graph" transform="scale(1 1) rotate(0) translate(4 100)">
<title>API::nrfjprog_erasepage</title>
<polygon fill="white" stroke="none" points="-4,4 -4,-100 412,-100 412,4 -4,4"/>
<!-- Node127 -->
<g id="node1" class="node"><title>Node127</title>
<g id="a_node1"><a xlink:title="API::nrfjprog_erasepage Erases the flash pages starting at the given start address and ending at the ...">
<polygon fill="#bfbfbf" stroke="black" points="0,-38.5 0,-57.5 120,-57.5 120,-38.5 0,-38.5"/>
<text text-anchor="middle" x="60" y="-45.5" font-family="Helvetica,sans-Serif" font-size="10.00">API::nrfjprog_erasepage</text>
</a>
</g>
</g>
<!-- Node128 -->
<g id="node2" class="node"><title>Node128</title>
<g id="a_node2"><a xlink:href="$class_a_p_i.html#aa3a31dc3d94f4a7dbe30b578e946e063" xlink:title="API::run_command 创建新进程 执行 程序">
<polygon fill="white" stroke="black" points="156,-38.5 156,-57.5 256,-57.5 256,-38.5 156,-38.5"/>
<text text-anchor="middle" x="206" y="-45.5" font-family="Helvetica,sans-Serif" font-size="10.00">API::run_command</text>
</a>
</g>
</g>
<!-- Node127&#45;&gt;Node128 -->
<g id="edge1" class="edge"><title>Node127&#45;&gt;Node128</title>
<path fill="none" stroke="midnightblue" d="M120.402,-48C128.774,-48 137.38,-48 145.749,-48"/>
<polygon fill="midnightblue" stroke="midnightblue" points="145.808,-51.5001 155.808,-48 145.808,-44.5001 145.808,-51.5001"/>
</g>
<!-- Node129 -->
<g id="node3" class="node"><title>Node129</title>
<g id="a_node3"><a xlink:href="$class_a_p_i.html#a27bbd79867ef0c01c9e29b6ebb293014" xlink:title=" ">
<polygon fill="white" stroke="black" points="294.5,-76.5 294.5,-95.5 405.5,-95.5 405.5,-76.5 294.5,-76.5"/>
<text text-anchor="middle" x="350" y="-83.5" font-family="Helvetica,sans-Serif" font-size="10.00">API::update_info_logs</text>
</a>
</g>
</g>
<!-- Node128&#45;&gt;Node129 -->
<g id="edge2" class="edge"><title>Node128&#45;&gt;Node129</title>
<path fill="none" stroke="midnightblue" d="M242.833,-57.589C261.163,-62.4944 283.678,-68.5196 303.25,-73.7571"/>
<polygon fill="midnightblue" stroke="midnightblue" points="302.614,-77.2099 313.179,-76.4141 304.424,-70.4479 302.614,-77.2099"/>
</g>
<!-- Node130 -->
<g id="node4" class="node"><title>Node130</title>
<g id="a_node4"><a xlink:href="$class_a_p_i.html#a70b16d0066d38fca6d5cb3ad74ff4e11" xlink:title=" ">
<polygon fill="white" stroke="black" points="292,-38.5 292,-57.5 408,-57.5 408,-38.5 292,-38.5"/>
<text text-anchor="middle" x="350" y="-45.5" font-family="Helvetica,sans-Serif" font-size="10.00">API::update_error_logs</text>
</a>
</g>
</g>
<!-- Node128&#45;&gt;Node130 -->
<g id="edge3" class="edge"><title>Node128&#45;&gt;Node130</title>
<path fill="none" stroke="midnightblue" d="M256.266,-48C264.353,-48 272.856,-48 281.297,-48"/>
<polygon fill="midnightblue" stroke="midnightblue" points="281.529,-51.5001 291.529,-48 281.529,-44.5001 281.529,-51.5001"/>
</g>
<!-- Node131 -->
<g id="node5" class="node"><title>Node131</title>
<g id="a_node5"><a xlink:href="$class_a_p_i.html#a474699b50370b27d57863f894c38ce56" xlink:title="API::handle_error 处理 nrfjprog 运行的错误">
<polygon fill="white" stroke="black" points="304,-0.5 304,-19.5 396,-19.5 396,-0.5 304,-0.5"/>
<text text-anchor="middle" x="350" y="-7.5" font-family="Helvetica,sans-Serif" font-size="10.00">API::handle_error</text>
</a>
</g>
</g>
<!-- Node128&#45;&gt;Node131 -->
<g id="edge4" class="edge"><title>Node128&#45;&gt;Node131</title>
<path fill="none" stroke="midnightblue" d="M242.833,-38.411C261.163,-33.5056 283.678,-27.4804 303.25,-22.2429"/>
<polygon fill="midnightblue" stroke="midnightblue" points="304.424,-25.5521 313.179,-19.5859 302.614,-18.7901 304.424,-25.5521"/>
</g>
</g>
</svg>
