<?xml version="1.0" encoding="UTF-8" standalone="no"?>
<!DOCTYPE svg PUBLIC "-//W3C//DTD SVG 1.1//EN"
 "http://www.w3.org/Graphics/SVG/1.1/DTD/svg11.dtd">
<!-- Generated by graphviz version 2.38.0 (20140413.2041)
 -->
<!-- Title: API::handle_error Pages: 1 -->
<svg width="728pt" height="733pt"
 viewBox="0.00 0.00 728.00 733.00" xmlns="http://www.w3.org/2000/svg" xmlns:xlink="http://www.w3.org/1999/xlink">
<g id="graph0" class="graph" transform="scale(1 1) rotate(0) translate(4 729)">
<title>API::handle_error</title>
<polygon fill="white" stroke="none" points="-4,4 -4,-729 724,-729 724,4 -4,4"/>
<!-- Node50 -->
<g id="node1" class="node"><title>Node50</title>
<g id="a_node1"><a xlink:title="API::handle_error 处理 nrfjprog 运行的错误">
<polygon fill="#bfbfbf" stroke="black" points="628,-404.5 628,-423.5 720,-423.5 720,-404.5 628,-404.5"/>
<text text-anchor="middle" x="674" y="-411.5" font-family="Helvetica,sans-Serif" font-size="10.00">API::handle_error</text>
</a>
</g>
</g>
<!-- Node51 -->
<g id="node2" class="node"><title>Node51</title>
<g id="a_node2"><a xlink:href="$class_a_p_i.html#ad239d64fde9bf9ccf9ed3307ac0712f0" xlink:title="API::nrfjprog_ids Displays the serial numbers of all the debuggers connected to the computer.">
<polygon fill="white" stroke="black" points="352,-645.5 352,-664.5 440,-664.5 440,-645.5 352,-645.5"/>
<text text-anchor="middle" x="396" y="-652.5" font-family="Helvetica,sans-Serif" font-size="10.00">API::nrfjprog_ids</text>
</a>
</g>
</g>
<!-- Node50&#45;&gt;Node51 -->
<g id="edge1" class="edge"><title>Node50&#45;&gt;Node51</title>
<path fill="none" stroke="midnightblue" d="M654.148,-430.461C600.818,-477.029 450.029,-608.696 407.998,-645.397"/>
<polygon fill="midnightblue" stroke="midnightblue" points="656.608,-432.96 661.839,-423.746 652.004,-427.687 656.608,-432.96"/>
</g>
<!-- Node57 -->
<g id="node8" class="node"><title>Node57</title>
<g id="a_node8"><a xlink:href="$class_a_p_i.html#aa3a31dc3d94f4a7dbe30b578e946e063" xlink:title="API::run_command 创建新进程 执行 程序">
<polygon fill="white" stroke="black" points="492,-305.5 492,-324.5 592,-324.5 592,-305.5 492,-305.5"/>
<text text-anchor="middle" x="542" y="-312.5" font-family="Helvetica,sans-Serif" font-size="10.00">API::run_command</text>
</a>
</g>
</g>
<!-- Node50&#45;&gt;Node57 -->
<g id="edge8" class="edge"><title>Node50&#45;&gt;Node57</title>
<path fill="none" stroke="midnightblue" d="M651.926,-397.951C624.595,-377.138 577.792,-341.495 555.505,-324.523"/>
<polygon fill="midnightblue" stroke="midnightblue" points="649.984,-400.871 660.06,-404.146 654.225,-395.302 649.984,-400.871"/>
</g>
<!-- Node52 -->
<g id="node3" class="node"><title>Node52</title>
<g id="a_node3"><a xlink:href="$test_8cpp.html#a28de4fed07ce85c942b33e55993cf17b" xlink:title=" ">
<polygon fill="white" stroke="black" points="201,-705.5 201,-724.5 270,-724.5 270,-705.5 201,-705.5"/>
<text text-anchor="middle" x="235.5" y="-712.5" font-family="Helvetica,sans-Serif" font-size="10.00">test_api_ids</text>
</a>
</g>
</g>
<!-- Node51&#45;&gt;Node52 -->
<g id="edge2" class="edge"><title>Node51&#45;&gt;Node52</title>
<path fill="none" stroke="midnightblue" d="M365.406,-668.832C346.84,-677.244 322.28,-687.89 300,-696 290.376,-699.503 279.769,-702.867 270.025,-705.765"/>
<polygon fill="midnightblue" stroke="midnightblue" points="366.885,-672.004 374.524,-664.663 363.974,-665.638 366.885,-672.004"/>
</g>
<!-- Node55 -->
<g id="node6" class="node"><title>Node55</title>
<g id="a_node6"><a xlink:href="$test_8cpp.html#a2b09b7ed15a0fee38247fdefc25040f6" xlink:title=" ">
<polygon fill="white" stroke="black" points="191,-667.5 191,-686.5 280,-686.5 280,-667.5 191,-667.5"/>
<text text-anchor="middle" x="235.5" y="-674.5" font-family="Helvetica,sans-Serif" font-size="10.00">test_api_setpath</text>
</a>
</g>
</g>
<!-- Node51&#45;&gt;Node55 -->
<g id="edge5" class="edge"><title>Node51&#45;&gt;Node55</title>
<path fill="none" stroke="midnightblue" d="M341.76,-662.39C321.689,-665.176 299.115,-668.309 280.034,-670.957"/>
<polygon fill="midnightblue" stroke="midnightblue" points="342.265,-665.853 351.689,-661.012 341.303,-658.92 342.265,-665.853"/>
</g>
<!-- Node56 -->
<g id="node7" class="node"><title>Node56</title>
<g id="a_node7"><a xlink:href="$class_main_window.html#a6a3073eac7cbb512b76d265a3408c81d" xlink:title=" ">
<polygon fill="white" stroke="black" points="175,-618 175,-648 296,-648 296,-618 175,-618"/>
<text text-anchor="start" x="183" y="-636" font-family="Helvetica,sans-Serif" font-size="10.00">MainWindow::on_button</text>
<text text-anchor="middle" x="235.5" y="-625" font-family="Helvetica,sans-Serif" font-size="10.00">_scan_clicked</text>
</a>
</g>
</g>
<!-- Node51&#45;&gt;Node56 -->
<g id="edge7" class="edge"><title>Node51&#45;&gt;Node56</title>
<path fill="none" stroke="midnightblue" d="M341.777,-647.613C327.108,-645.576 311.101,-643.355 296.097,-641.272"/>
<polygon fill="midnightblue" stroke="midnightblue" points="341.303,-651.08 351.689,-648.988 342.265,-644.147 341.303,-651.08"/>
</g>
<!-- Node53 -->
<g id="node4" class="node"><title>Node53</title>
<g id="a_node4"><a xlink:href="$test_8cpp.html#a8b3ca02f2a8358f236669e91baf3b408" xlink:title=" ">
<polygon fill="white" stroke="black" points="84,-284.5 84,-303.5 135,-303.5 135,-284.5 84,-284.5"/>
<text text-anchor="middle" x="109.5" y="-291.5" font-family="Helvetica,sans-Serif" font-size="10.00">test_api</text>
</a>
</g>
</g>
<!-- Node52&#45;&gt;Node53 -->
<g id="edge3" class="edge"><title>Node52&#45;&gt;Node53</title>
<path fill="none" stroke="midnightblue" d="M191.109,-709.158C183.483,-706.298 176.303,-702.111 171,-696 117.805,-634.698 111.36,-359.058 110.599,-303.701"/>
<polygon fill="midnightblue" stroke="midnightblue" points="190.315,-712.574 200.9,-712.115 192.339,-705.873 190.315,-712.574"/>
</g>
<!-- Node54 -->
<g id="node5" class="node"><title>Node54</title>
<g id="a_node5"><a xlink:href="$test_8h.html#add1fe75ad79de762a3906b6d41897ff2" xlink:title=" ">
<polygon fill="white" stroke="black" points="0,-284.5 0,-303.5 48,-303.5 48,-284.5 0,-284.5"/>
<text text-anchor="middle" x="24" y="-291.5" font-family="Helvetica,sans-Serif" font-size="10.00">test_all</text>
</a>
</g>
</g>
<!-- Node53&#45;&gt;Node54 -->
<g id="edge4" class="edge"><title>Node53&#45;&gt;Node54</title>
<path fill="none" stroke="midnightblue" d="M73.7336,-294C65.1523,-294 56.1657,-294 48.2802,-294"/>
<polygon fill="midnightblue" stroke="midnightblue" points="73.8989,-297.5 83.8989,-294 73.8988,-290.5 73.8989,-297.5"/>
</g>
<!-- Node55&#45;&gt;Node53 -->
<g id="edge6" class="edge"><title>Node55&#45;&gt;Node53</title>
<path fill="none" stroke="midnightblue" d="M181.633,-666.603C177.666,-664.276 174.035,-661.444 171,-658 122.609,-603.09 112.403,-356.206 110.769,-303.798"/>
<polygon fill="midnightblue" stroke="midnightblue" points="180.221,-669.807 190.756,-670.932 183.222,-663.483 180.221,-669.807"/>
</g>
<!-- Node58 -->
<g id="node9" class="node"><title>Node58</title>
<g id="a_node9"><a xlink:href="$class_a_p_i.html#abf47651c6b917b2b48dcc01bdab289b9" xlink:title="API::nrfjprog_recover Erases all user flash memory and disables the readback protection mechanism if ...">
<polygon fill="white" stroke="black" points="343,-366.5 343,-385.5 449,-385.5 449,-366.5 343,-366.5"/>
<text text-anchor="middle" x="396" y="-373.5" font-family="Helvetica,sans-Serif" font-size="10.00">API::nrfjprog_recover</text>
</a>
</g>
</g>
<!-- Node57&#45;&gt;Node58 -->
<g id="edge9" class="edge"><title>Node57&#45;&gt;Node58</title>
<path fill="none" stroke="midnightblue" d="M512.937,-329.054C496.517,-337.062 475.286,-347.052 456,-355 446.249,-359.018 435.417,-363.007 425.723,-366.41"/>
<polygon fill="midnightblue" stroke="midnightblue" points="514.568,-332.152 521.997,-324.598 511.479,-325.87 514.568,-332.152"/>
</g>
<!-- Node63 -->
<g id="node14" class="node"><title>Node63</title>
<g id="a_node14"><a xlink:href="$class_a_p_i.html#a767c12af1e9952f18593f319e8aad691" xlink:title="API::nrfjprog_reset Performs a soft reset by setting the SysResetReq bit of the AIRCR register of the...">
<polygon fill="white" stroke="black" points="347.5,-326.5 347.5,-345.5 444.5,-345.5 444.5,-326.5 347.5,-326.5"/>
<text text-anchor="middle" x="396" y="-333.5" font-family="Helvetica,sans-Serif" font-size="10.00">API::nrfjprog_reset</text>
</a>
</g>
</g>
<!-- Node57&#45;&gt;Node63 -->
<g id="edge16" class="edge"><title>Node57&#45;&gt;Node63</title>
<path fill="none" stroke="midnightblue" d="M481.717,-323.645C469.478,-325.43 456.733,-327.289 444.958,-329.006"/>
<polygon fill="midnightblue" stroke="midnightblue" points="482.456,-327.075 491.846,-322.168 481.446,-320.148 482.456,-327.075"/>
</g>
<!-- Node65 -->
<g id="node16" class="node"><title>Node65</title>
<g id="a_node16"><a xlink:href="$class_a_p_i.html#a3387e0691dd41568db455cf92703be16" xlink:title="API::nrfjprog_program">
<polygon fill="white" stroke="black" points="341,-285.5 341,-304.5 451,-304.5 451,-285.5 341,-285.5"/>
<text text-anchor="middle" x="396" y="-292.5" font-family="Helvetica,sans-Serif" font-size="10.00">API::nrfjprog_program</text>
</a>
</g>
</g>
<!-- Node57&#45;&gt;Node65 -->
<g id="edge19" class="edge"><title>Node57&#45;&gt;Node65</title>
<path fill="none" stroke="midnightblue" d="M481.891,-306.79C471.788,-305.387 461.335,-303.935 451.363,-302.55"/>
<polygon fill="midnightblue" stroke="midnightblue" points="481.46,-310.264 491.846,-308.173 482.423,-303.331 481.46,-310.264"/>
</g>
<!-- Node67 -->
<g id="node18" class="node"><title>Node67</title>
<g id="a_node18"><a xlink:href="$class_a_p_i.html#ac5e9ab1c5ea7f18fcbb05c955e06e26f" xlink:title="API::nrfjprog_eraseall Erases all user available program flash memory and the UICR page.">
<polygon fill="white" stroke="black" points="341.5,-197.5 341.5,-216.5 450.5,-216.5 450.5,-197.5 341.5,-197.5"/>
<text text-anchor="middle" x="396" y="-204.5" font-family="Helvetica,sans-Serif" font-size="10.00">API::nrfjprog_eraseall</text>
</a>
</g>
</g>
<!-- Node57&#45;&gt;Node67 -->
<g id="edge23" class="edge"><title>Node57&#45;&gt;Node67</title>
<path fill="none" stroke="midnightblue" d="M524.544,-297.749C508.164,-281.168 481.808,-256.035 456,-238 444.144,-229.715 429.8,-222.13 418.223,-216.537"/>
<polygon fill="midnightblue" stroke="midnightblue" points="522.253,-300.413 531.738,-305.134 527.267,-295.528 522.253,-300.413"/>
</g>
<!-- Node71 -->
<g id="node22" class="node"><title>Node71</title>
<g id="a_node22"><a xlink:href="$class_a_p_i.html#a2bc55a6035fbd8dd03a97cacab63c101" xlink:title="API::nrfjprog_memwr Writes to the provided address in memory with help of the NVM Controller or,...">
<polygon fill="white" stroke="black" points="342.5,-416.5 342.5,-435.5 449.5,-435.5 449.5,-416.5 342.5,-416.5"/>
<text text-anchor="middle" x="396" y="-423.5" font-family="Helvetica,sans-Serif" font-size="10.00">API::nrfjprog_memwr</text>
</a>
</g>
</g>
<!-- Node57&#45;&gt;Node71 -->
<g id="edge29" class="edge"><title>Node57&#45;&gt;Node71</title>
<path fill="none" stroke="midnightblue" d="M525.456,-332.144C509.237,-349.398 482.516,-376.093 456,-395 444.318,-403.33 430.11,-410.864 418.565,-416.418"/>
<polygon fill="midnightblue" stroke="midnightblue" points="528.301,-334.223 532.528,-324.507 523.166,-329.466 528.301,-334.223"/>
</g>
<!-- Node72 -->
<g id="node23" class="node"><title>Node72</title>
<g id="a_node23"><a xlink:href="$class_a_p_i.html#a58f3eab95763686a220892129399dff5" xlink:title="API::nrfjprog_memrd Reads n bytes from the provided address. If width is not given,...">
<polygon fill="white" stroke="black" points="343.5,-115.5 343.5,-134.5 448.5,-134.5 448.5,-115.5 343.5,-115.5"/>
<text text-anchor="middle" x="396" y="-122.5" font-family="Helvetica,sans-Serif" font-size="10.00">API::nrfjprog_memrd</text>
</a>
</g>
</g>
<!-- Node57&#45;&gt;Node72 -->
<g id="edge31" class="edge"><title>Node57&#45;&gt;Node72</title>
<path fill="none" stroke="midnightblue" d="M529.942,-296.5C514.514,-271.177 485.134,-224.682 456,-188 440.156,-168.052 419.337,-146.816 407.138,-134.799"/>
<polygon fill="midnightblue" stroke="midnightblue" points="527.148,-298.643 535.315,-305.392 533.139,-295.023 527.148,-298.643"/>
</g>
<!-- Node74 -->
<g id="node25" class="node"><title>Node74</title>
<g id="a_node25"><a xlink:href="$class_a_p_i.html#a1070823025ffe73cf971f5bf7e0ca281" xlink:title="API::nrfjprog_eraseuicr Erases the UICR page.">
<polygon fill="white" stroke="black" points="338.5,-55.5 338.5,-74.5 453.5,-74.5 453.5,-55.5 338.5,-55.5"/>
<text text-anchor="middle" x="396" y="-62.5" font-family="Helvetica,sans-Serif" font-size="10.00">API::nrfjprog_eraseuicr</text>
</a>
</g>
</g>
<!-- Node57&#45;&gt;Node74 -->
<g id="edge34" class="edge"><title>Node57&#45;&gt;Node74</title>
<path fill="none" stroke="midnightblue" d="M536.977,-295.33C528.11,-255.863 503.771,-165.697 456,-106 445.245,-92.5601 428.941,-81.696 416.195,-74.5361"/>
<polygon fill="midnightblue" stroke="midnightblue" points="533.587,-296.216 539.116,-305.254 540.43,-294.741 533.587,-296.216"/>
</g>
<!-- Node76 -->
<g id="node27" class="node"><title>Node76</title>
<g id="a_node27"><a xlink:href="$class_a_p_i.html#a247bfb38bf5dc0ccbe2d63e931eb68f9" xlink:title="API::nrfjprog_erasepage Erases the flash pages starting at the given start address and ending at the ...">
<polygon fill="white" stroke="black" points="336,-6.5 336,-25.5 456,-25.5 456,-6.5 336,-6.5"/>
<text text-anchor="middle" x="396" y="-13.5" font-family="Helvetica,sans-Serif" font-size="10.00">API::nrfjprog_erasepage</text>
</a>
</g>
</g>
<!-- Node57&#45;&gt;Node76 -->
<g id="edge37" class="edge"><title>Node57&#45;&gt;Node76</title>
<path fill="none" stroke="midnightblue" d="M539.883,-295.414C536.174,-247.374 520.508,-122.088 456,-46 448.272,-36.8844 437.085,-30.224 426.526,-25.5285"/>
<polygon fill="midnightblue" stroke="midnightblue" points="536.393,-295.674 540.564,-305.413 543.377,-295.199 536.393,-295.674"/>
</g>
<!-- Node78 -->
<g id="node29" class="node"><title>Node78</title>
<g id="a_node29"><a xlink:href="$class_a_p_i.html#a79ce66659369f5a2195c57f7df14bea6" xlink:title="API::nrfjprog_rbp Enables the readback protection mechanism. Valid argument options are CR0 and ALL.">
<polygon fill="white" stroke="black" points="351.5,-247.5 351.5,-266.5 440.5,-266.5 440.5,-247.5 351.5,-247.5"/>
<text text-anchor="middle" x="396" y="-254.5" font-family="Helvetica,sans-Serif" font-size="10.00">API::nrfjprog_rbp</text>
</a>
</g>
</g>
<!-- Node57&#45;&gt;Node78 -->
<g id="edge40" class="edge"><title>Node57&#45;&gt;Node78</title>
<path fill="none" stroke="midnightblue" d="M512.666,-300.976C496.308,-293.139 475.228,-283.477 456,-276 447.375,-272.646 437.886,-269.401 429.088,-266.571"/>
<polygon fill="midnightblue" stroke="midnightblue" points="511.175,-304.143 521.701,-305.348 514.225,-297.842 511.175,-304.143"/>
</g>
<!-- Node79 -->
<g id="node30" class="node"><title>Node79</title>
<g id="a_node30"><a xlink:href="$class_a_p_i.html#ae84704f7b2d4bea116893cc3bd087f02" xlink:title="API::nrfjprog_readcode Reads the device flash and stores it in the given file path.">
<polygon fill="white" stroke="black" points="338.5,-530.5 338.5,-549.5 453.5,-549.5 453.5,-530.5 338.5,-530.5"/>
<text text-anchor="middle" x="396" y="-537.5" font-family="Helvetica,sans-Serif" font-size="10.00">API::nrfjprog_readcode</text>
</a>
</g>
</g>
<!-- Node57&#45;&gt;Node79 -->
<g id="edge43" class="edge"><title>Node57&#45;&gt;Node79</title>
<path fill="none" stroke="midnightblue" d="M536.792,-334.851C527.882,-372.695 503.881,-456.017 456,-508 447,-517.771 434.316,-525.185 423.013,-530.404"/>
<polygon fill="midnightblue" stroke="midnightblue" points="540.307,-335.175 539.083,-324.651 533.477,-333.641 540.307,-335.175"/>
</g>
<!-- Node82 -->
<g id="node33" class="node"><title>Node82</title>
<g id="a_node33"><a xlink:href="$class_a_p_i.html#a14ed25912c2d16c06f7b0029334b39da" xlink:title="API::find_nrf_path 调用 cmd 命令查找 nrfjprog 安装位置">
<polygon fill="white" stroke="black" points="349.5,-479.5 349.5,-498.5 442.5,-498.5 442.5,-479.5 349.5,-479.5"/>
<text text-anchor="middle" x="396" y="-486.5" font-family="Helvetica,sans-Serif" font-size="10.00">API::find_nrf_path</text>
</a>
</g>
</g>
<!-- Node57&#45;&gt;Node82 -->
<g id="edge47" class="edge"><title>Node57&#45;&gt;Node82</title>
<path fill="none" stroke="midnightblue" d="M531.557,-333.611C517.483,-360.222 489.083,-409.809 456,-445 443.047,-458.778 425.351,-471.332 412.726,-479.471"/>
<polygon fill="midnightblue" stroke="midnightblue" points="534.726,-335.103 536.23,-324.615 528.514,-331.876 534.726,-335.103"/>
</g>
<!-- Node59 -->
<g id="node10" class="node"><title>Node59</title>
<g id="a_node10"><a xlink:href="$test_8cpp.html#a5b0f2b6e3b1b049cde480f6bd592e07c" xlink:title=" ">
<polygon fill="white" stroke="black" points="192,-366.5 192,-385.5 279,-385.5 279,-366.5 192,-366.5"/>
<text text-anchor="middle" x="235.5" y="-373.5" font-family="Helvetica,sans-Serif" font-size="10.00">test_api_recover</text>
</a>
</g>
</g>
<!-- Node58&#45;&gt;Node59 -->
<g id="edge10" class="edge"><title>Node58&#45;&gt;Node59</title>
<path fill="none" stroke="midnightblue" d="M332.555,-376C314.611,-376 295.462,-376 279.021,-376"/>
<polygon fill="midnightblue" stroke="midnightblue" points="332.662,-379.5 342.662,-376 332.662,-372.5 332.662,-379.5"/>
</g>
<!-- Node60 -->
<g id="node11" class="node"><title>Node60</title>
<g id="a_node11"><a xlink:href="$test_8cpp.html#a41f19b35782910c27489ded5c8ac74dd" xlink:title=" ">
<polygon fill="white" stroke="black" points="191.5,-454.5 191.5,-473.5 279.5,-473.5 279.5,-454.5 191.5,-454.5"/>
<text text-anchor="middle" x="235.5" y="-461.5" font-family="Helvetica,sans-Serif" font-size="10.00">test_api_memwr</text>
</a>
</g>
</g>
<!-- Node58&#45;&gt;Node60 -->
<g id="edge12" class="edge"><title>Node58&#45;&gt;Node60</title>
<path fill="none" stroke="midnightblue" d="M363.96,-389.985C354.603,-394.804 344.553,-400.613 336,-407 317.617,-420.728 319.535,-431.966 300,-444 293.111,-448.243 285.242,-451.662 277.444,-454.389"/>
<polygon fill="midnightblue" stroke="midnightblue" points="365.594,-393.082 373.006,-385.512 362.491,-386.807 365.594,-393.082"/>
</g>
<!-- Node61 -->
<g id="node12" class="node"><title>Node61</title>
<g id="a_node12"><a xlink:href="$class_main_window.html#a407e696a12050ba5ecee8527ef28750a" xlink:title=" ">
<polygon fill="white" stroke="black" points="175,-405 175,-435 296,-435 296,-405 175,-405"/>
<text text-anchor="start" x="183" y="-423" font-family="Helvetica,sans-Serif" font-size="10.00">MainWindow::on_button</text>
<text text-anchor="middle" x="235.5" y="-412" font-family="Helvetica,sans-Serif" font-size="10.00">_disable_rbp_clicked</text>
</a>
</g>
</g>
<!-- Node58&#45;&gt;Node61 -->
<g id="edge14" class="edge"><title>Node58&#45;&gt;Node61</title>
<path fill="none" stroke="midnightblue" d="M350.908,-388.24C332.272,-393.413 310.384,-399.49 290.77,-404.935"/>
<polygon fill="midnightblue" stroke="midnightblue" points="351.908,-391.595 360.608,-385.547 350.036,-384.85 351.908,-391.595"/>
</g>
<!-- Node62 -->
<g id="node13" class="node"><title>Node62</title>
<g id="a_node13"><a xlink:href="$class_main_window.html#a8792d09d05ef8975c6328ad5548be4b5" xlink:title=" ">
<polygon fill="white" stroke="black" points="171,-279 171,-309 300,-309 300,-279 171,-279"/>
<text text-anchor="start" x="179" y="-297" font-family="Helvetica,sans-Serif" font-size="10.00">MainWindow::on_program</text>
<text text-anchor="middle" x="235.5" y="-286" font-family="Helvetica,sans-Serif" font-size="10.00">_clicked</text>
</a>
</g>
</g>
<!-- Node58&#45;&gt;Node62 -->
<g id="edge15" class="edge"><title>Node58&#45;&gt;Node62</title>
<path fill="none" stroke="midnightblue" d="M350.799,-362.733C345.646,-360.476 340.595,-357.905 336,-355 316.873,-342.91 318.924,-331.405 300,-319 294.352,-315.298 288.071,-312.005 281.719,-309.122"/>
<polygon fill="midnightblue" stroke="midnightblue" points="349.525,-365.992 360.11,-366.46 352.127,-359.494 349.525,-365.992"/>
</g>
<!-- Node59&#45;&gt;Node53 -->
<g id="edge11" class="edge"><title>Node59&#45;&gt;Node53</title>
<path fill="none" stroke="midnightblue" d="M182.431,-362.885C178.451,-361.146 174.591,-359.193 171,-357 147.704,-342.775 127.258,-317.408 117.171,-303.6"/>
<polygon fill="midnightblue" stroke="midnightblue" points="181.275,-366.191 191.863,-366.562 183.817,-359.669 181.275,-366.191"/>
</g>
<!-- Node60&#45;&gt;Node53 -->
<g id="edge13" class="edge"><title>Node60&#45;&gt;Node53</title>
<path fill="none" stroke="midnightblue" d="M182.203,-451.9C178.145,-449.694 174.336,-447.085 171,-444 128.116,-404.347 114.979,-330.107 111.56,-303.661"/>
<polygon fill="midnightblue" stroke="midnightblue" points="180.849,-455.13 191.397,-456.117 183.767,-448.767 180.849,-455.13"/>
</g>
<!-- Node64 -->
<g id="node15" class="node"><title>Node64</title>
<g id="a_node15"><a xlink:href="$test_8cpp.html#af0a9b5dc138aec33a195ffc2e375bd77" xlink:title=" ">
<polygon fill="white" stroke="black" points="196.5,-328.5 196.5,-347.5 274.5,-347.5 274.5,-328.5 196.5,-328.5"/>
<text text-anchor="middle" x="235.5" y="-335.5" font-family="Helvetica,sans-Serif" font-size="10.00">test_api_reset</text>
</a>
</g>
</g>
<!-- Node63&#45;&gt;Node64 -->
<g id="edge17" class="edge"><title>Node63&#45;&gt;Node64</title>
<path fill="none" stroke="midnightblue" d="M337.405,-336.727C316.541,-336.99 293.508,-337.281 274.722,-337.518"/>
<polygon fill="midnightblue" stroke="midnightblue" points="337.49,-340.226 347.445,-336.6 337.401,-333.227 337.49,-340.226"/>
</g>
<!-- Node64&#45;&gt;Node53 -->
<g id="edge18" class="edge"><title>Node64&#45;&gt;Node53</title>
<path fill="none" stroke="midnightblue" d="M192.897,-325.373C185.57,-323.013 178.038,-320.501 171,-318 158.436,-313.536 144.6,-308.088 133.335,-303.512"/>
<polygon fill="midnightblue" stroke="midnightblue" points="192.106,-328.794 202.696,-328.479 194.221,-322.121 192.106,-328.794"/>
</g>
<!-- Node65&#45;&gt;Node62 -->
<g id="edge22" class="edge"><title>Node65&#45;&gt;Node62</title>
<path fill="none" stroke="midnightblue" d="M330.594,-294.594C320.567,-294.53 310.211,-294.465 300.199,-294.402"/>
<polygon fill="midnightblue" stroke="midnightblue" points="330.875,-298.095 340.897,-294.659 330.919,-291.096 330.875,-298.095"/>
</g>
<!-- Node66 -->
<g id="node17" class="node"><title>Node66</title>
<g id="a_node17"><a xlink:href="$test_8cpp.html#a8904d8f3737f8278099a0a1fcd92ea98" xlink:title=" ">
<polygon fill="white" stroke="black" points="189.5,-240.5 189.5,-259.5 281.5,-259.5 281.5,-240.5 189.5,-240.5"/>
<text text-anchor="middle" x="235.5" y="-247.5" font-family="Helvetica,sans-Serif" font-size="10.00">test_api_program</text>
</a>
</g>
</g>
<!-- Node65&#45;&gt;Node66 -->
<g id="edge20" class="edge"><title>Node65&#45;&gt;Node66</title>
<path fill="none" stroke="midnightblue" d="M351.526,-282.657C325.837,-275.364 293.8,-266.268 270.065,-259.53"/>
<polygon fill="midnightblue" stroke="midnightblue" points="350.81,-286.092 361.386,-285.457 352.722,-279.358 350.81,-286.092"/>
</g>
<!-- Node66&#45;&gt;Node53 -->
<g id="edge21" class="edge"><title>Node66&#45;&gt;Node53</title>
<path fill="none" stroke="midnightblue" d="M190.743,-262.459C184.093,-264.535 177.338,-266.749 171,-269 157.935,-273.641 143.582,-279.536 132.136,-284.436"/>
<polygon fill="midnightblue" stroke="midnightblue" points="191.808,-265.793 200.351,-259.527 189.765,-259.098 191.808,-265.793"/>
</g>
<!-- Node68 -->
<g id="node19" class="node"><title>Node68</title>
<g id="a_node19"><a xlink:href="$test_8cpp.html#add6afb8ca9440282c398cb4bcade1bbb" xlink:title=" ">
<polygon fill="white" stroke="black" points="190.5,-114.5 190.5,-133.5 280.5,-133.5 280.5,-114.5 190.5,-114.5"/>
<text text-anchor="middle" x="235.5" y="-121.5" font-family="Helvetica,sans-Serif" font-size="10.00">test_api_eraseall</text>
</a>
</g>
</g>
<!-- Node67&#45;&gt;Node68 -->
<g id="edge24" class="edge"><title>Node67&#45;&gt;Node68</title>
<path fill="none" stroke="midnightblue" d="M375.458,-191.237C356.959,-176.965 327.935,-156.212 300,-143 292.198,-139.31 283.518,-136.151 275.143,-133.529"/>
<polygon fill="midnightblue" stroke="midnightblue" points="373.381,-194.056 383.409,-197.474 377.701,-188.548 373.381,-194.056"/>
</g>
<!-- Node69 -->
<g id="node20" class="node"><title>Node69</title>
<g id="a_node20"><a xlink:href="$test_8cpp.html#af128b0bbac49d3497f96a32b255c37de" xlink:title=" ">
<polygon fill="white" stroke="black" points="200.5,-202.5 200.5,-221.5 270.5,-221.5 270.5,-202.5 200.5,-202.5"/>
<text text-anchor="middle" x="235.5" y="-209.5" font-family="Helvetica,sans-Serif" font-size="10.00">test_api_rbp</text>
</a>
</g>
</g>
<!-- Node67&#45;&gt;Node69 -->
<g id="edge26" class="edge"><title>Node67&#45;&gt;Node69</title>
<path fill="none" stroke="midnightblue" d="M331.317,-209.009C310.608,-209.662 288.422,-210.362 270.721,-210.92"/>
<polygon fill="midnightblue" stroke="midnightblue" points="331.454,-212.506 341.339,-208.693 331.234,-205.51 331.454,-212.506"/>
</g>
<!-- Node70 -->
<g id="node21" class="node"><title>Node70</title>
<g id="a_node21"><a xlink:href="$class_main_window.html#ac05a41d9ca1bd0444e76f20eb8344ec1" xlink:title=" ">
<polygon fill="white" stroke="black" points="171.5,-153 171.5,-183 299.5,-183 299.5,-153 171.5,-153"/>
<text text-anchor="start" x="179.5" y="-171" font-family="Helvetica,sans-Serif" font-size="10.00">MainWindow::on_eraseall</text>
<text text-anchor="middle" x="235.5" y="-160" font-family="Helvetica,sans-Serif" font-size="10.00">_clicked</text>
</a>
</g>
</g>
<!-- Node67&#45;&gt;Node70 -->
<g id="edge28" class="edge"><title>Node67&#45;&gt;Node70</title>
<path fill="none" stroke="midnightblue" d="M346.419,-195.046C331.049,-191.264 313.86,-187.035 297.724,-183.064"/>
<polygon fill="midnightblue" stroke="midnightblue" points="345.68,-198.469 356.227,-197.46 347.352,-191.672 345.68,-198.469"/>
</g>
<!-- Node68&#45;&gt;Node53 -->
<g id="edge25" class="edge"><title>Node68&#45;&gt;Node53</title>
<path fill="none" stroke="midnightblue" d="M181.052,-135.865C177.426,-137.882 174.02,-140.241 171,-143 127.63,-182.619 114.797,-257.541 111.509,-284.243"/>
<polygon fill="midnightblue" stroke="midnightblue" points="182.822,-138.902 190.425,-131.523 179.88,-132.551 182.822,-138.902"/>
</g>
<!-- Node69&#45;&gt;Node53 -->
<g id="edge27" class="edge"><title>Node69&#45;&gt;Node53</title>
<path fill="none" stroke="midnightblue" d="M190.348,-221.974C183.615,-224.401 176.939,-227.374 171,-231 147.704,-245.225 127.258,-270.592 117.171,-284.4"/>
<polygon fill="midnightblue" stroke="midnightblue" points="191.737,-225.204 200.176,-218.798 189.585,-218.543 191.737,-225.204"/>
</g>
<!-- Node71&#45;&gt;Node60 -->
<g id="edge30" class="edge"><title>Node71&#45;&gt;Node60</title>
<path fill="none" stroke="midnightblue" d="M345.081,-437.968C322.87,-443.293 297.079,-449.476 276.209,-454.48"/>
<polygon fill="midnightblue" stroke="midnightblue" points="346.095,-441.324 355.004,-435.589 344.463,-434.517 346.095,-441.324"/>
</g>
<!-- Node73 -->
<g id="node24" class="node"><title>Node73</title>
<g id="a_node24"><a xlink:href="$test_8cpp.html#a7a9e477f9bbdbfc16308dc08867bcde1" xlink:title=" ">
<polygon fill="white" stroke="black" points="192.5,-76.5 192.5,-95.5 278.5,-95.5 278.5,-76.5 192.5,-76.5"/>
<text text-anchor="middle" x="235.5" y="-83.5" font-family="Helvetica,sans-Serif" font-size="10.00">test_api_memrd</text>
</a>
</g>
</g>
<!-- Node72&#45;&gt;Node73 -->
<g id="edge32" class="edge"><title>Node72&#45;&gt;Node73</title>
<path fill="none" stroke="midnightblue" d="M346.367,-113.034C323.495,-107.406 296.602,-100.788 275.148,-95.5095"/>
<polygon fill="midnightblue" stroke="midnightblue" points="345.68,-116.469 356.227,-115.46 347.352,-109.672 345.68,-116.469"/>
</g>
<!-- Node73&#45;&gt;Node53 -->
<g id="edge33" class="edge"><title>Node73&#45;&gt;Node53</title>
<path fill="none" stroke="midnightblue" d="M183.031,-96.4156C178.621,-98.7304 174.511,-101.555 171,-105 118.617,-156.393 111.52,-253.105 110.614,-284.144"/>
<polygon fill="midnightblue" stroke="midnightblue" points="184.63,-99.5369 192.409,-92.344 181.842,-93.1159 184.63,-99.5369"/>
</g>
<!-- Node75 -->
<g id="node26" class="node"><title>Node75</title>
<g id="a_node26"><a xlink:href="$test_8cpp.html#af80a0fd78ce59c75bd5442e7ec35efe2" xlink:title=" ">
<polygon fill="white" stroke="black" points="187.5,-38.5 187.5,-57.5 283.5,-57.5 283.5,-38.5 187.5,-38.5"/>
<text text-anchor="middle" x="235.5" y="-45.5" font-family="Helvetica,sans-Serif" font-size="10.00">test_api_eraseuicr</text>
</a>
</g>
</g>
<!-- Node74&#45;&gt;Node75 -->
<g id="edge35" class="edge"><title>Node74&#45;&gt;Node75</title>
<path fill="none" stroke="midnightblue" d="M328.034,-57.8175C313.138,-56.2198 297.648,-54.5584 283.739,-53.0667"/>
<polygon fill="midnightblue" stroke="midnightblue" points="327.909,-61.3241 338.226,-58.9106 328.656,-54.3641 327.909,-61.3241"/>
</g>
<!-- Node75&#45;&gt;Node53 -->
<g id="edge36" class="edge"><title>Node75&#45;&gt;Node53</title>
<path fill="none" stroke="midnightblue" d="M178.339,-60.9398C175.686,-62.7103 173.212,-64.7197 171,-67 109.372,-130.522 108.752,-249.459 109.994,-284.223"/>
<polygon fill="midnightblue" stroke="midnightblue" points="180.206,-63.9089 187.322,-56.0596 176.864,-57.758 180.206,-63.9089"/>
</g>
<!-- Node77 -->
<g id="node28" class="node"><title>Node77</title>
<g id="a_node28"><a xlink:href="$test_8cpp.html#a0c1898e417b57c0f026dca25e093e9cf" xlink:title=" ">
<polygon fill="white" stroke="black" points="185,-0.5 185,-19.5 286,-19.5 286,-0.5 185,-0.5"/>
<text text-anchor="middle" x="235.5" y="-7.5" font-family="Helvetica,sans-Serif" font-size="10.00">test_api_erasepage</text>
</a>
</g>
</g>
<!-- Node76&#45;&gt;Node77 -->
<g id="edge38" class="edge"><title>Node76&#45;&gt;Node77</title>
<path fill="none" stroke="midnightblue" d="M325.877,-13.3834C312.533,-12.8782 298.799,-12.3583 286.222,-11.8822"/>
<polygon fill="midnightblue" stroke="midnightblue" points="325.855,-16.8849 335.98,-13.7658 326.12,-9.88995 325.855,-16.8849"/>
</g>
<!-- Node77&#45;&gt;Node53 -->
<g id="edge39" class="edge"><title>Node77&#45;&gt;Node53</title>
<path fill="none" stroke="midnightblue" d="M176.197,-24.3204C174.341,-25.7379 172.597,-27.2934 171,-29 134.886,-67.5909 115.651,-241.538 111.407,-284.422"/>
<polygon fill="midnightblue" stroke="midnightblue" points="178.263,-27.1595 184.958,-18.9481 174.603,-21.1921 178.263,-27.1595"/>
</g>
<!-- Node78&#45;&gt;Node62 -->
<g id="edge42" class="edge"><title>Node78&#45;&gt;Node62</title>
<path fill="none" stroke="midnightblue" d="M344.26,-268.845C330.259,-272.113 314.889,-275.701 300.253,-279.118"/>
<polygon fill="midnightblue" stroke="midnightblue" points="345.24,-272.21 354.182,-266.528 343.648,-265.393 345.24,-272.21"/>
</g>
<!-- Node78&#45;&gt;Node69 -->
<g id="edge41" class="edge"><title>Node78&#45;&gt;Node69</title>
<path fill="none" stroke="midnightblue" d="M351.526,-244.657C325.837,-237.364 293.8,-228.268 270.065,-221.53"/>
<polygon fill="midnightblue" stroke="midnightblue" points="350.81,-248.092 361.386,-247.457 352.722,-241.358 350.81,-248.092"/>
</g>
<!-- Node80 -->
<g id="node31" class="node"><title>Node80</title>
<g id="a_node31"><a xlink:href="$test_8cpp.html#a04240439089a1462d98eb432937d6055" xlink:title=" ">
<polygon fill="white" stroke="black" points="187.5,-530.5 187.5,-549.5 283.5,-549.5 283.5,-530.5 187.5,-530.5"/>
<text text-anchor="middle" x="235.5" y="-537.5" font-family="Helvetica,sans-Serif" font-size="10.00">test_api_readcode</text>
</a>
</g>
</g>
<!-- Node79&#45;&gt;Node80 -->
<g id="edge44" class="edge"><title>Node79&#45;&gt;Node80</title>
<path fill="none" stroke="midnightblue" d="M328.034,-540C313.138,-540 297.648,-540 283.739,-540"/>
<polygon fill="midnightblue" stroke="midnightblue" points="328.226,-543.5 338.226,-540 328.226,-536.5 328.226,-543.5"/>
</g>
<!-- Node81 -->
<g id="node32" class="node"><title>Node81</title>
<g id="a_node32"><a xlink:href="$class_main_window.html#aad95dca8f8468f93fe661f04e42221ef" xlink:title=" ">
<polygon fill="white" stroke="black" points="175,-569 175,-599 296,-599 296,-569 175,-569"/>
<text text-anchor="start" x="183" y="-587" font-family="Helvetica,sans-Serif" font-size="10.00">MainWindow::on_button</text>
<text text-anchor="middle" x="235.5" y="-576" font-family="Helvetica,sans-Serif" font-size="10.00">_readback_clicked</text>
</a>
</g>
</g>
<!-- Node79&#45;&gt;Node81 -->
<g id="edge46" class="edge"><title>Node79&#45;&gt;Node81</title>
<path fill="none" stroke="midnightblue" d="M350.908,-552.24C332.272,-557.413 310.384,-563.49 290.77,-568.935"/>
<polygon fill="midnightblue" stroke="midnightblue" points="351.908,-555.595 360.608,-549.547 350.036,-548.85 351.908,-555.595"/>
</g>
<!-- Node80&#45;&gt;Node53 -->
<g id="edge45" class="edge"><title>Node80&#45;&gt;Node53</title>
<path fill="none" stroke="midnightblue" d="M178.339,-527.06C175.686,-525.29 173.212,-523.28 171,-521 109.372,-457.478 108.752,-338.541 109.994,-303.777"/>
<polygon fill="midnightblue" stroke="midnightblue" points="176.864,-530.242 187.322,-531.94 180.206,-524.091 176.864,-530.242"/>
</g>
<!-- Node83 -->
<g id="node34" class="node"><title>Node83</title>
<g id="a_node34"><a xlink:href="$class_a_p_i.html#ac380e23851f2ff26a421d0718f494945" xlink:title="API::API API 构造函数">
<polygon fill="white" stroke="black" points="208.5,-492.5 208.5,-511.5 262.5,-511.5 262.5,-492.5 208.5,-492.5"/>
<text text-anchor="middle" x="235.5" y="-499.5" font-family="Helvetica,sans-Serif" font-size="10.00">API::API</text>
</a>
</g>
</g>
<!-- Node82&#45;&gt;Node83 -->
<g id="edge48" class="edge"><title>Node82&#45;&gt;Node83</title>
<path fill="none" stroke="midnightblue" d="M339.069,-493.587C313.183,-495.711 283.654,-498.132 262.948,-499.831"/>
<polygon fill="midnightblue" stroke="midnightblue" points="339.475,-497.066 349.155,-492.76 338.903,-490.089 339.475,-497.066"/>
</g>
</g>
</svg>
