<?xml version="1.0" encoding="UTF-8" standalone="no"?>
<!DOCTYPE svg PUBLIC "-//W3C//DTD SVG 1.1//EN"
 "http://www.w3.org/Graphics/SVG/1.1/DTD/svg11.dtd">
<!-- Generated by graphviz version 2.38.0 (20140413.2041)
 -->
<!-- Title: MainWindow::on_button_disable_rbp_clicked Pages: 1 -->
<svg width="559pt" height="104pt"
 viewBox="0.00 0.00 559.00 104.00" xmlns="http://www.w3.org/2000/svg" xmlns:xlink="http://www.w3.org/1999/xlink">
<g id="graph0" class="graph" transform="scale(1 1) rotate(0) translate(4 100)">
<title>MainWindow::on_button_disable_rbp_clicked</title>
<polygon fill="white" stroke="none" points="-4,4 -4,-100 555,-100 555,4 -4,4"/>
<!-- Node8 -->
<g id="node1" class="node"><title>Node8</title>
<g id="a_node1"><a xlink:title=" ">
<polygon fill="#bfbfbf" stroke="black" points="0,-33 0,-63 121,-63 121,-33 0,-33"/>
<text text-anchor="start" x="8" y="-51" font-family="Helvetica,sans-Serif" font-size="10.00">MainWindow::on_button</text>
<text text-anchor="middle" x="60.5" y="-40" font-family="Helvetica,sans-Serif" font-size="10.00">_disable_rbp_clicked</text>
</a>
</g>
</g>
<!-- Node9 -->
<g id="node2" class="node"><title>Node9</title>
<g id="a_node2"><a xlink:href="$class_a_p_i.html#abf47651c6b917b2b48dcc01bdab289b9" xlink:title="API::nrfjprog_recover Erases all user flash memory and disables the readback protection mechanism if ...">
<polygon fill="white" stroke="black" points="157,-38.5 157,-57.5 263,-57.5 263,-38.5 157,-38.5"/>
<text text-anchor="middle" x="210" y="-45.5" font-family="Helvetica,sans-Serif" font-size="10.00">API::nrfjprog_recover</text>
</a>
</g>
</g>
<!-- Node8&#45;&gt;Node9 -->
<g id="edge1" class="edge"><title>Node8&#45;&gt;Node9</title>
<path fill="none" stroke="midnightblue" d="M121.069,-48C129.481,-48 138.15,-48 146.614,-48"/>
<polygon fill="midnightblue" stroke="midnightblue" points="146.806,-51.5001 156.806,-48 146.806,-44.5001 146.806,-51.5001"/>
</g>
<!-- Node10 -->
<g id="node3" class="node"><title>Node10</title>
<g id="a_node3"><a xlink:href="$class_a_p_i.html#aa3a31dc3d94f4a7dbe30b578e946e063" xlink:title="API::run_command 创建新进程 执行 程序">
<polygon fill="white" stroke="black" points="299,-38.5 299,-57.5 399,-57.5 399,-38.5 299,-38.5"/>
<text text-anchor="middle" x="349" y="-45.5" font-family="Helvetica,sans-Serif" font-size="10.00">API::run_command</text>
</a>
</g>
</g>
<!-- Node9&#45;&gt;Node10 -->
<g id="edge2" class="edge"><title>Node9&#45;&gt;Node10</title>
<path fill="none" stroke="midnightblue" d="M263.185,-48C271.464,-48 280.08,-48 288.511,-48"/>
<polygon fill="midnightblue" stroke="midnightblue" points="288.668,-51.5001 298.668,-48 288.668,-44.5001 288.668,-51.5001"/>
</g>
<!-- Node11 -->
<g id="node4" class="node"><title>Node11</title>
<g id="a_node4"><a xlink:href="$class_a_p_i.html#a27bbd79867ef0c01c9e29b6ebb293014" xlink:title=" ">
<polygon fill="white" stroke="black" points="437.5,-76.5 437.5,-95.5 548.5,-95.5 548.5,-76.5 437.5,-76.5"/>
<text text-anchor="middle" x="493" y="-83.5" font-family="Helvetica,sans-Serif" font-size="10.00">API::update_info_logs</text>
</a>
</g>
</g>
<!-- Node10&#45;&gt;Node11 -->
<g id="edge3" class="edge"><title>Node10&#45;&gt;Node11</title>
<path fill="none" stroke="midnightblue" d="M385.833,-57.589C404.163,-62.4944 426.678,-68.5196 446.25,-73.7571"/>
<polygon fill="midnightblue" stroke="midnightblue" points="445.614,-77.2099 456.179,-76.4141 447.424,-70.4479 445.614,-77.2099"/>
</g>
<!-- Node12 -->
<g id="node5" class="node"><title>Node12</title>
<g id="a_node5"><a xlink:href="$class_a_p_i.html#a70b16d0066d38fca6d5cb3ad74ff4e11" xlink:title=" ">
<polygon fill="white" stroke="black" points="435,-38.5 435,-57.5 551,-57.5 551,-38.5 435,-38.5"/>
<text text-anchor="middle" x="493" y="-45.5" font-family="Helvetica,sans-Serif" font-size="10.00">API::update_error_logs</text>
</a>
</g>
</g>
<!-- Node10&#45;&gt;Node12 -->
<g id="edge4" class="edge"><title>Node10&#45;&gt;Node12</title>
<path fill="none" stroke="midnightblue" d="M399.266,-48C407.353,-48 415.856,-48 424.297,-48"/>
<polygon fill="midnightblue" stroke="midnightblue" points="424.529,-51.5001 434.529,-48 424.529,-44.5001 424.529,-51.5001"/>
</g>
<!-- Node13 -->
<g id="node6" class="node"><title>Node13</title>
<g id="a_node6"><a xlink:href="$class_a_p_i.html#a474699b50370b27d57863f894c38ce56" xlink:title="API::handle_error 处理 nrfjprog 运行的错误">
<polygon fill="white" stroke="black" points="447,-0.5 447,-19.5 539,-19.5 539,-0.5 447,-0.5"/>
<text text-anchor="middle" x="493" y="-7.5" font-family="Helvetica,sans-Serif" font-size="10.00">API::handle_error</text>
</a>
</g>
</g>
<!-- Node10&#45;&gt;Node13 -->
<g id="edge5" class="edge"><title>Node10&#45;&gt;Node13</title>
<path fill="none" stroke="midnightblue" d="M385.833,-38.411C404.163,-33.5056 426.678,-27.4804 446.25,-22.2429"/>
<polygon fill="midnightblue" stroke="midnightblue" points="447.424,-25.5521 456.179,-19.5859 445.614,-18.7901 447.424,-25.5521"/>
</g>
</g>
</svg>
