<?xml version="1.0" encoding="UTF-8" standalone="no"?>
<!DOCTYPE svg PUBLIC "-//W3C//DTD SVG 1.1//EN"
 "http://www.w3.org/Graphics/SVG/1.1/DTD/svg11.dtd">
<!-- Generated by graphviz version 2.38.0 (20140413.2041)
 -->
<!-- Title: API::nrfjprog_readcode Pages: 1 -->
<svg width="411pt" height="104pt"
 viewBox="0.00 0.00 411.00 104.00" xmlns="http://www.w3.org/2000/svg" xmlns:xlink="http://www.w3.org/1999/xlink">
<g id="graph0" class="graph" transform="scale(1 1) rotate(0) translate(4 100)">
<title>API::nrfjprog_readcode</title>
<polygon fill="white" stroke="none" points="-4,4 -4,-100 407,-100 407,4 -4,4"/>
<!-- Node191 -->
<g id="node1" class="node"><title>Node191</title>
<g id="a_node1"><a xlink:title="API::nrfjprog_readcode Reads the device flash and stores it in the given file path.">
<polygon fill="#bfbfbf" stroke="black" points="0,-38.5 0,-57.5 115,-57.5 115,-38.5 0,-38.5"/>
<text text-anchor="middle" x="57.5" y="-45.5" font-family="Helvetica,sans-Serif" font-size="10.00">API::nrfjprog_readcode</text>
</a>
</g>
</g>
<!-- Node192 -->
<g id="node2" class="node"><title>Node192</title>
<g id="a_node2"><a xlink:href="$class_a_p_i.html#aa3a31dc3d94f4a7dbe30b578e946e063" xlink:title="API::run_command 创建新进程 执行 程序">
<polygon fill="white" stroke="black" points="151,-38.5 151,-57.5 251,-57.5 251,-38.5 151,-38.5"/>
<text text-anchor="middle" x="201" y="-45.5" font-family="Helvetica,sans-Serif" font-size="10.00">API::run_command</text>
</a>
</g>
</g>
<!-- Node191&#45;&gt;Node192 -->
<g id="edge1" class="edge"><title>Node191&#45;&gt;Node192</title>
<path fill="none" stroke="midnightblue" d="M115.238,-48C123.656,-48 132.35,-48 140.816,-48"/>
<polygon fill="midnightblue" stroke="midnightblue" points="140.997,-51.5001 150.997,-48 140.997,-44.5001 140.997,-51.5001"/>
</g>
<!-- Node193 -->
<g id="node3" class="node"><title>Node193</title>
<g id="a_node3"><a xlink:href="$class_a_p_i.html#a27bbd79867ef0c01c9e29b6ebb293014" xlink:title=" ">
<polygon fill="white" stroke="black" points="289.5,-76.5 289.5,-95.5 400.5,-95.5 400.5,-76.5 289.5,-76.5"/>
<text text-anchor="middle" x="345" y="-83.5" font-family="Helvetica,sans-Serif" font-size="10.00">API::update_info_logs</text>
</a>
</g>
</g>
<!-- Node192&#45;&gt;Node193 -->
<g id="edge2" class="edge"><title>Node192&#45;&gt;Node193</title>
<path fill="none" stroke="midnightblue" d="M237.833,-57.589C256.163,-62.4944 278.678,-68.5196 298.25,-73.7571"/>
<polygon fill="midnightblue" stroke="midnightblue" points="297.614,-77.2099 308.179,-76.4141 299.424,-70.4479 297.614,-77.2099"/>
</g>
<!-- Node194 -->
<g id="node4" class="node"><title>Node194</title>
<g id="a_node4"><a xlink:href="$class_a_p_i.html#a70b16d0066d38fca6d5cb3ad74ff4e11" xlink:title=" ">
<polygon fill="white" stroke="black" points="287,-38.5 287,-57.5 403,-57.5 403,-38.5 287,-38.5"/>
<text text-anchor="middle" x="345" y="-45.5" font-family="Helvetica,sans-Serif" font-size="10.00">API::update_error_logs</text>
</a>
</g>
</g>
<!-- Node192&#45;&gt;Node194 -->
<g id="edge3" class="edge"><title>Node192&#45;&gt;Node194</title>
<path fill="none" stroke="midnightblue" d="M251.266,-48C259.353,-48 267.856,-48 276.297,-48"/>
<polygon fill="midnightblue" stroke="midnightblue" points="276.529,-51.5001 286.529,-48 276.529,-44.5001 276.529,-51.5001"/>
</g>
<!-- Node195 -->
<g id="node5" class="node"><title>Node195</title>
<g id="a_node5"><a xlink:href="$class_a_p_i.html#a474699b50370b27d57863f894c38ce56" xlink:title="API::handle_error 处理 nrfjprog 运行的错误">
<polygon fill="white" stroke="black" points="299,-0.5 299,-19.5 391,-19.5 391,-0.5 299,-0.5"/>
<text text-anchor="middle" x="345" y="-7.5" font-family="Helvetica,sans-Serif" font-size="10.00">API::handle_error</text>
</a>
</g>
</g>
<!-- Node192&#45;&gt;Node195 -->
<g id="edge4" class="edge"><title>Node192&#45;&gt;Node195</title>
<path fill="none" stroke="midnightblue" d="M237.833,-38.411C256.163,-33.5056 278.678,-27.4804 298.25,-22.2429"/>
<polygon fill="midnightblue" stroke="midnightblue" points="299.424,-25.5521 308.179,-19.5859 297.614,-18.7901 299.424,-25.5521"/>
</g>
</g>
</svg>
