<?xml version="1.0" encoding="UTF-8" standalone="no"?>
<!DOCTYPE svg PUBLIC "-//W3C//DTD SVG 1.1//EN"
 "http://www.w3.org/Graphics/SVG/1.1/DTD/svg11.dtd">
<!-- Generated by graphviz version 2.38.0 (20140413.2041)
 -->
<!-- Title: API::nrfjprog_eraseall Pages: 1 -->
<svg width="405pt" height="104pt"
 viewBox="0.00 0.00 405.00 104.00" xmlns="http://www.w3.org/2000/svg" xmlns:xlink="http://www.w3.org/1999/xlink">
<g id="graph0" class="graph" transform="scale(1 1) rotate(0) translate(4 100)">
<title>API::nrfjprog_eraseall</title>
<polygon fill="white" stroke="none" points="-4,4 -4,-100 401,-100 401,4 -4,4"/>
<!-- Node116 -->
<g id="node1" class="node"><title>Node116</title>
<g id="a_node1"><a xlink:title="API::nrfjprog_eraseall Erases all user available program flash memory and the UICR page.">
<polygon fill="#bfbfbf" stroke="black" points="0,-38.5 0,-57.5 109,-57.5 109,-38.5 0,-38.5"/>
<text text-anchor="middle" x="54.5" y="-45.5" font-family="Helvetica,sans-Serif" font-size="10.00">API::nrfjprog_eraseall</text>
</a>
</g>
</g>
<!-- Node117 -->
<g id="node2" class="node"><title>Node117</title>
<g id="a_node2"><a xlink:href="$class_a_p_i.html#aa3a31dc3d94f4a7dbe30b578e946e063" xlink:title="API::run_command 创建新进程 执行 程序">
<polygon fill="white" stroke="black" points="145,-38.5 145,-57.5 245,-57.5 245,-38.5 145,-38.5"/>
<text text-anchor="middle" x="195" y="-45.5" font-family="Helvetica,sans-Serif" font-size="10.00">API::run_command</text>
</a>
</g>
</g>
<!-- Node116&#45;&gt;Node117 -->
<g id="edge1" class="edge"><title>Node116&#45;&gt;Node117</title>
<path fill="none" stroke="midnightblue" d="M109.048,-48C117.382,-48 126.036,-48 134.493,-48"/>
<polygon fill="midnightblue" stroke="midnightblue" points="134.675,-51.5001 144.675,-48 134.675,-44.5001 134.675,-51.5001"/>
</g>
<!-- Node118 -->
<g id="node3" class="node"><title>Node118</title>
<g id="a_node3"><a xlink:href="$class_a_p_i.html#a27bbd79867ef0c01c9e29b6ebb293014" xlink:title=" ">
<polygon fill="white" stroke="black" points="283.5,-76.5 283.5,-95.5 394.5,-95.5 394.5,-76.5 283.5,-76.5"/>
<text text-anchor="middle" x="339" y="-83.5" font-family="Helvetica,sans-Serif" font-size="10.00">API::update_info_logs</text>
</a>
</g>
</g>
<!-- Node117&#45;&gt;Node118 -->
<g id="edge2" class="edge"><title>Node117&#45;&gt;Node118</title>
<path fill="none" stroke="midnightblue" d="M231.833,-57.589C250.163,-62.4944 272.678,-68.5196 292.25,-73.7571"/>
<polygon fill="midnightblue" stroke="midnightblue" points="291.614,-77.2099 302.179,-76.4141 293.424,-70.4479 291.614,-77.2099"/>
</g>
<!-- Node119 -->
<g id="node4" class="node"><title>Node119</title>
<g id="a_node4"><a xlink:href="$class_a_p_i.html#a70b16d0066d38fca6d5cb3ad74ff4e11" xlink:title=" ">
<polygon fill="white" stroke="black" points="281,-38.5 281,-57.5 397,-57.5 397,-38.5 281,-38.5"/>
<text text-anchor="middle" x="339" y="-45.5" font-family="Helvetica,sans-Serif" font-size="10.00">API::update_error_logs</text>
</a>
</g>
</g>
<!-- Node117&#45;&gt;Node119 -->
<g id="edge3" class="edge"><title>Node117&#45;&gt;Node119</title>
<path fill="none" stroke="midnightblue" d="M245.266,-48C253.353,-48 261.856,-48 270.297,-48"/>
<polygon fill="midnightblue" stroke="midnightblue" points="270.529,-51.5001 280.529,-48 270.529,-44.5001 270.529,-51.5001"/>
</g>
<!-- Node120 -->
<g id="node5" class="node"><title>Node120</title>
<g id="a_node5"><a xlink:href="$class_a_p_i.html#a474699b50370b27d57863f894c38ce56" xlink:title="API::handle_error 处理 nrfjprog 运行的错误">
<polygon fill="white" stroke="black" points="293,-0.5 293,-19.5 385,-19.5 385,-0.5 293,-0.5"/>
<text text-anchor="middle" x="339" y="-7.5" font-family="Helvetica,sans-Serif" font-size="10.00">API::handle_error</text>
</a>
</g>
</g>
<!-- Node117&#45;&gt;Node120 -->
<g id="edge4" class="edge"><title>Node117&#45;&gt;Node120</title>
<path fill="none" stroke="midnightblue" d="M231.833,-38.411C250.163,-33.5056 272.678,-27.4804 292.25,-22.2429"/>
<polygon fill="midnightblue" stroke="midnightblue" points="293.424,-25.5521 302.179,-19.5859 291.614,-18.7901 293.424,-25.5521"/>
</g>
</g>
</svg>
