<?xml version="1.0" encoding="UTF-8" standalone="no"?>
<!DOCTYPE svg PUBLIC "-//W3C//DTD SVG 1.1//EN"
 "http://www.w3.org/Graphics/SVG/1.1/DTD/svg11.dtd">
<!-- Generated by graphviz version 2.38.0 (20140413.2041)
 -->
<!-- Title: API::nrfjprog_memwr Pages: 1 -->
<svg width="410pt" height="28pt"
 viewBox="0.00 0.00 410.00 28.00" xmlns="http://www.w3.org/2000/svg" xmlns:xlink="http://www.w3.org/1999/xlink">
<g id="graph0" class="graph" transform="scale(1 1) rotate(0) translate(4 24)">
<title>API::nrfjprog_memwr</title>
<polygon fill="white" stroke="none" points="-4,4 -4,-24 406,-24 406,4 -4,4"/>
<!-- Node167 -->
<g id="node1" class="node"><title>Node167</title>
<g id="a_node1"><a xlink:title="API::nrfjprog_memwr Writes to the provided address in memory with help of the NVM Controller or,...">
<polygon fill="#bfbfbf" stroke="black" points="295,-0.5 295,-19.5 402,-19.5 402,-0.5 295,-0.5"/>
<text text-anchor="middle" x="348.5" y="-7.5" font-family="Helvetica,sans-Serif" font-size="10.00">API::nrfjprog_memwr</text>
</a>
</g>
</g>
<!-- Node168 -->
<g id="node2" class="node"><title>Node168</title>
<g id="a_node2"><a xlink:href="$test_8cpp.html#a41f19b35782910c27489ded5c8ac74dd" xlink:title=" ">
<polygon fill="white" stroke="black" points="171,-0.5 171,-19.5 259,-19.5 259,-0.5 171,-0.5"/>
<text text-anchor="middle" x="215" y="-7.5" font-family="Helvetica,sans-Serif" font-size="10.00">test_api_memwr</text>
</a>
</g>
</g>
<!-- Node167&#45;&gt;Node168 -->
<g id="edge1" class="edge"><title>Node167&#45;&gt;Node168</title>
<path fill="none" stroke="midnightblue" d="M284.66,-10C275.989,-10 267.251,-10 259.049,-10"/>
<polygon fill="midnightblue" stroke="midnightblue" points="284.772,-13.5001 294.772,-10 284.772,-6.5001 284.772,-13.5001"/>
</g>
<!-- Node169 -->
<g id="node3" class="node"><title>Node169</title>
<g id="a_node3"><a xlink:href="$test_8cpp.html#a8b3ca02f2a8358f236669e91baf3b408" xlink:title=" ">
<polygon fill="white" stroke="black" points="84,-0.5 84,-19.5 135,-19.5 135,-0.5 84,-0.5"/>
<text text-anchor="middle" x="109.5" y="-7.5" font-family="Helvetica,sans-Serif" font-size="10.00">test_api</text>
</a>
</g>
</g>
<!-- Node168&#45;&gt;Node169 -->
<g id="edge2" class="edge"><title>Node168&#45;&gt;Node169</title>
<path fill="none" stroke="midnightblue" d="M160.623,-10C151.665,-10 142.772,-10 135.02,-10"/>
<polygon fill="midnightblue" stroke="midnightblue" points="160.706,-13.5001 170.706,-10 160.706,-6.5001 160.706,-13.5001"/>
</g>
<!-- Node170 -->
<g id="node4" class="node"><title>Node170</title>
<g id="a_node4"><a xlink:href="$test_8h.html#add1fe75ad79de762a3906b6d41897ff2" xlink:title=" ">
<polygon fill="white" stroke="black" points="0,-0.5 0,-19.5 48,-19.5 48,-0.5 0,-0.5"/>
<text text-anchor="middle" x="24" y="-7.5" font-family="Helvetica,sans-Serif" font-size="10.00">test_all</text>
</a>
</g>
</g>
<!-- Node169&#45;&gt;Node170 -->
<g id="edge3" class="edge"><title>Node169&#45;&gt;Node170</title>
<path fill="none" stroke="midnightblue" d="M73.7336,-10C65.1523,-10 56.1657,-10 48.2802,-10"/>
<polygon fill="midnightblue" stroke="midnightblue" points="73.8989,-13.5001 83.8989,-10 73.8988,-6.5001 73.8989,-13.5001"/>
</g>
</g>
</svg>
