<?xml version="1.0" encoding="UTF-8" standalone="no"?>
<!DOCTYPE svg PUBLIC "-//W3C//DTD SVG 1.1//EN"
 "http://www.w3.org/Graphics/SVG/1.1/DTD/svg11.dtd">
<!-- Generated by graphviz version 2.38.0 (20140413.2041)
 -->
<!-- Title: MainWindow::on_button_readback_clicked Pages: 1 -->
<svg width="568pt" height="104pt"
 viewBox="0.00 0.00 568.00 104.00" xmlns="http://www.w3.org/2000/svg" xmlns:xlink="http://www.w3.org/1999/xlink">
<g id="graph0" class="graph" transform="scale(1 1) rotate(0) translate(4 100)">
<title>MainWindow::on_button_readback_clicked</title>
<polygon fill="white" stroke="none" points="-4,4 -4,-100 564,-100 564,4 -4,4"/>
<!-- Node17 -->
<g id="node1" class="node"><title>Node17</title>
<g id="a_node1"><a xlink:title=" ">
<polygon fill="#bfbfbf" stroke="black" points="0,-33 0,-63 121,-63 121,-33 0,-33"/>
<text text-anchor="start" x="8" y="-51" font-family="Helvetica,sans-Serif" font-size="10.00">MainWindow::on_button</text>
<text text-anchor="middle" x="60.5" y="-40" font-family="Helvetica,sans-Serif" font-size="10.00">_readback_clicked</text>
</a>
</g>
</g>
<!-- Node18 -->
<g id="node2" class="node"><title>Node18</title>
<g id="a_node2"><a xlink:href="$class_a_p_i.html#ae84704f7b2d4bea116893cc3bd087f02" xlink:title="API::nrfjprog_readcode Reads the device flash and stores it in the given file path.">
<polygon fill="white" stroke="black" points="157,-38.5 157,-57.5 272,-57.5 272,-38.5 157,-38.5"/>
<text text-anchor="middle" x="214.5" y="-45.5" font-family="Helvetica,sans-Serif" font-size="10.00">API::nrfjprog_readcode</text>
</a>
</g>
</g>
<!-- Node17&#45;&gt;Node18 -->
<g id="edge1" class="edge"><title>Node17&#45;&gt;Node18</title>
<path fill="none" stroke="midnightblue" d="M121.138,-48C129.416,-48 137.966,-48 146.37,-48"/>
<polygon fill="midnightblue" stroke="midnightblue" points="146.519,-51.5001 156.519,-48 146.519,-44.5001 146.519,-51.5001"/>
</g>
<!-- Node19 -->
<g id="node3" class="node"><title>Node19</title>
<g id="a_node3"><a xlink:href="$class_a_p_i.html#aa3a31dc3d94f4a7dbe30b578e946e063" xlink:title="API::run_command 创建新进程 执行 程序">
<polygon fill="white" stroke="black" points="308,-38.5 308,-57.5 408,-57.5 408,-38.5 308,-38.5"/>
<text text-anchor="middle" x="358" y="-45.5" font-family="Helvetica,sans-Serif" font-size="10.00">API::run_command</text>
</a>
</g>
</g>
<!-- Node18&#45;&gt;Node19 -->
<g id="edge2" class="edge"><title>Node18&#45;&gt;Node19</title>
<path fill="none" stroke="midnightblue" d="M272.238,-48C280.656,-48 289.35,-48 297.816,-48"/>
<polygon fill="midnightblue" stroke="midnightblue" points="297.997,-51.5001 307.997,-48 297.997,-44.5001 297.997,-51.5001"/>
</g>
<!-- Node20 -->
<g id="node4" class="node"><title>Node20</title>
<g id="a_node4"><a xlink:href="$class_a_p_i.html#a27bbd79867ef0c01c9e29b6ebb293014" xlink:title=" ">
<polygon fill="white" stroke="black" points="446.5,-76.5 446.5,-95.5 557.5,-95.5 557.5,-76.5 446.5,-76.5"/>
<text text-anchor="middle" x="502" y="-83.5" font-family="Helvetica,sans-Serif" font-size="10.00">API::update_info_logs</text>
</a>
</g>
</g>
<!-- Node19&#45;&gt;Node20 -->
<g id="edge3" class="edge"><title>Node19&#45;&gt;Node20</title>
<path fill="none" stroke="midnightblue" d="M394.833,-57.589C413.163,-62.4944 435.678,-68.5196 455.25,-73.7571"/>
<polygon fill="midnightblue" stroke="midnightblue" points="454.614,-77.2099 465.179,-76.4141 456.424,-70.4479 454.614,-77.2099"/>
</g>
<!-- Node21 -->
<g id="node5" class="node"><title>Node21</title>
<g id="a_node5"><a xlink:href="$class_a_p_i.html#a70b16d0066d38fca6d5cb3ad74ff4e11" xlink:title=" ">
<polygon fill="white" stroke="black" points="444,-38.5 444,-57.5 560,-57.5 560,-38.5 444,-38.5"/>
<text text-anchor="middle" x="502" y="-45.5" font-family="Helvetica,sans-Serif" font-size="10.00">API::update_error_logs</text>
</a>
</g>
</g>
<!-- Node19&#45;&gt;Node21 -->
<g id="edge4" class="edge"><title>Node19&#45;&gt;Node21</title>
<path fill="none" stroke="midnightblue" d="M408.266,-48C416.353,-48 424.856,-48 433.297,-48"/>
<polygon fill="midnightblue" stroke="midnightblue" points="433.529,-51.5001 443.529,-48 433.529,-44.5001 433.529,-51.5001"/>
</g>
<!-- Node22 -->
<g id="node6" class="node"><title>Node22</title>
<g id="a_node6"><a xlink:href="$class_a_p_i.html#a474699b50370b27d57863f894c38ce56" xlink:title="API::handle_error 处理 nrfjprog 运行的错误">
<polygon fill="white" stroke="black" points="456,-0.5 456,-19.5 548,-19.5 548,-0.5 456,-0.5"/>
<text text-anchor="middle" x="502" y="-7.5" font-family="Helvetica,sans-Serif" font-size="10.00">API::handle_error</text>
</a>
</g>
</g>
<!-- Node19&#45;&gt;Node22 -->
<g id="edge5" class="edge"><title>Node19&#45;&gt;Node22</title>
<path fill="none" stroke="midnightblue" d="M394.833,-38.411C413.163,-33.5056 435.678,-27.4804 455.25,-22.2429"/>
<polygon fill="midnightblue" stroke="midnightblue" points="456.424,-25.5521 465.179,-19.5859 454.614,-18.7901 456.424,-25.5521"/>
</g>
</g>
</svg>
