<?xml version="1.0" encoding="UTF-8" standalone="no"?>
<!DOCTYPE svg PUBLIC "-//W3C//DTD SVG 1.1//EN"
 "http://www.w3.org/Graphics/SVG/1.1/DTD/svg11.dtd">
<!-- Generated by graphviz version 2.38.0 (20140413.2041)
 -->
<!-- Title: MainWindow::on_program_clicked Pages: 1 -->
<svg width="571pt" height="104pt"
 viewBox="0.00 0.00 571.00 104.00" xmlns="http://www.w3.org/2000/svg" xmlns:xlink="http://www.w3.org/1999/xlink">
<g id="graph0" class="graph" transform="scale(1 1) rotate(0) translate(4 100)">
<title>MainWindow::on_program_clicked</title>
<polygon fill="white" stroke="none" points="-4,4 -4,-100 567,-100 567,4 -4,4"/>
<!-- Node38 -->
<g id="node1" class="node"><title>Node38</title>
<g id="a_node1"><a xlink:title=" ">
<polygon fill="#bfbfbf" stroke="black" points="0,-33 0,-63 129,-63 129,-33 0,-33"/>
<text text-anchor="start" x="8" y="-51" font-family="Helvetica,sans-Serif" font-size="10.00">MainWindow::on_program</text>
<text text-anchor="middle" x="64.5" y="-40" font-family="Helvetica,sans-Serif" font-size="10.00">_clicked</text>
</a>
</g>
</g>
<!-- Node39 -->
<g id="node2" class="node"><title>Node39</title>
<g id="a_node2"><a xlink:href="$class_a_p_i.html#abf47651c6b917b2b48dcc01bdab289b9" xlink:title="API::nrfjprog_recover Erases all user flash memory and disables the readback protection mechanism if ...">
<polygon fill="white" stroke="black" points="167,-76.5 167,-95.5 273,-95.5 273,-76.5 167,-76.5"/>
<text text-anchor="middle" x="220" y="-83.5" font-family="Helvetica,sans-Serif" font-size="10.00">API::nrfjprog_recover</text>
</a>
</g>
</g>
<!-- Node38&#45;&gt;Node39 -->
<g id="edge1" class="edge"><title>Node38&#45;&gt;Node39</title>
<path fill="none" stroke="midnightblue" d="M126.167,-63.0186C140.868,-66.6578 156.392,-70.501 170.451,-73.9813"/>
<polygon fill="midnightblue" stroke="midnightblue" points="169.847,-77.4375 180.396,-76.4432 171.53,-70.6426 169.847,-77.4375"/>
</g>
<!-- Node44 -->
<g id="node7" class="node"><title>Node44</title>
<g id="a_node7"><a xlink:href="$class_a_p_i.html#a3387e0691dd41568db455cf92703be16" xlink:title="API::nrfjprog_program">
<polygon fill="white" stroke="black" points="165,-38.5 165,-57.5 275,-57.5 275,-38.5 165,-38.5"/>
<text text-anchor="middle" x="220" y="-45.5" font-family="Helvetica,sans-Serif" font-size="10.00">API::nrfjprog_program</text>
</a>
</g>
</g>
<!-- Node38&#45;&gt;Node44 -->
<g id="edge6" class="edge"><title>Node38&#45;&gt;Node44</title>
<path fill="none" stroke="midnightblue" d="M129.264,-48C137.697,-48 146.345,-48 154.785,-48"/>
<polygon fill="midnightblue" stroke="midnightblue" points="154.949,-51.5001 164.949,-48 154.949,-44.5001 154.949,-51.5001"/>
</g>
<!-- Node45 -->
<g id="node8" class="node"><title>Node45</title>
<g id="a_node8"><a xlink:href="$class_a_p_i.html#a79ce66659369f5a2195c57f7df14bea6" xlink:title="API::nrfjprog_rbp Enables the readback protection mechanism. Valid argument options are CR0 and ALL.">
<polygon fill="white" stroke="black" points="175.5,-0.5 175.5,-19.5 264.5,-19.5 264.5,-0.5 175.5,-0.5"/>
<text text-anchor="middle" x="220" y="-7.5" font-family="Helvetica,sans-Serif" font-size="10.00">API::nrfjprog_rbp</text>
</a>
</g>
</g>
<!-- Node38&#45;&gt;Node45 -->
<g id="edge8" class="edge"><title>Node38&#45;&gt;Node45</title>
<path fill="none" stroke="midnightblue" d="M126.167,-32.9814C140.868,-29.3422 156.392,-25.499 170.451,-22.0187"/>
<polygon fill="midnightblue" stroke="midnightblue" points="171.53,-25.3574 180.396,-19.5568 169.847,-18.5625 171.53,-25.3574"/>
</g>
<!-- Node40 -->
<g id="node3" class="node"><title>Node40</title>
<g id="a_node3"><a xlink:href="$class_a_p_i.html#aa3a31dc3d94f4a7dbe30b578e946e063" xlink:title="API::run_command 创建新进程 执行 程序">
<polygon fill="white" stroke="black" points="311,-38.5 311,-57.5 411,-57.5 411,-38.5 311,-38.5"/>
<text text-anchor="middle" x="361" y="-45.5" font-family="Helvetica,sans-Serif" font-size="10.00">API::run_command</text>
</a>
</g>
</g>
<!-- Node39&#45;&gt;Node40 -->
<g id="edge2" class="edge"><title>Node39&#45;&gt;Node40</title>
<path fill="none" stroke="midnightblue" d="M256.076,-76.411C274.019,-71.5056 296.058,-65.4804 315.217,-60.2429"/>
<polygon fill="midnightblue" stroke="midnightblue" points="316.213,-63.5992 324.936,-57.5859 314.367,-56.8469 316.213,-63.5992"/>
</g>
<!-- Node41 -->
<g id="node4" class="node"><title>Node41</title>
<g id="a_node4"><a xlink:href="$class_a_p_i.html#a27bbd79867ef0c01c9e29b6ebb293014" xlink:title=" ">
<polygon fill="white" stroke="black" points="449.5,-76.5 449.5,-95.5 560.5,-95.5 560.5,-76.5 449.5,-76.5"/>
<text text-anchor="middle" x="505" y="-83.5" font-family="Helvetica,sans-Serif" font-size="10.00">API::update_info_logs</text>
</a>
</g>
</g>
<!-- Node40&#45;&gt;Node41 -->
<g id="edge3" class="edge"><title>Node40&#45;&gt;Node41</title>
<path fill="none" stroke="midnightblue" d="M397.833,-57.589C416.163,-62.4944 438.678,-68.5196 458.25,-73.7571"/>
<polygon fill="midnightblue" stroke="midnightblue" points="457.614,-77.2099 468.179,-76.4141 459.424,-70.4479 457.614,-77.2099"/>
</g>
<!-- Node42 -->
<g id="node5" class="node"><title>Node42</title>
<g id="a_node5"><a xlink:href="$class_a_p_i.html#a70b16d0066d38fca6d5cb3ad74ff4e11" xlink:title=" ">
<polygon fill="white" stroke="black" points="447,-38.5 447,-57.5 563,-57.5 563,-38.5 447,-38.5"/>
<text text-anchor="middle" x="505" y="-45.5" font-family="Helvetica,sans-Serif" font-size="10.00">API::update_error_logs</text>
</a>
</g>
</g>
<!-- Node40&#45;&gt;Node42 -->
<g id="edge4" class="edge"><title>Node40&#45;&gt;Node42</title>
<path fill="none" stroke="midnightblue" d="M411.266,-48C419.353,-48 427.856,-48 436.297,-48"/>
<polygon fill="midnightblue" stroke="midnightblue" points="436.529,-51.5001 446.529,-48 436.529,-44.5001 436.529,-51.5001"/>
</g>
<!-- Node43 -->
<g id="node6" class="node"><title>Node43</title>
<g id="a_node6"><a xlink:href="$class_a_p_i.html#a474699b50370b27d57863f894c38ce56" xlink:title="API::handle_error 处理 nrfjprog 运行的错误">
<polygon fill="white" stroke="black" points="459,-0.5 459,-19.5 551,-19.5 551,-0.5 459,-0.5"/>
<text text-anchor="middle" x="505" y="-7.5" font-family="Helvetica,sans-Serif" font-size="10.00">API::handle_error</text>
</a>
</g>
</g>
<!-- Node40&#45;&gt;Node43 -->
<g id="edge5" class="edge"><title>Node40&#45;&gt;Node43</title>
<path fill="none" stroke="midnightblue" d="M397.833,-38.411C416.163,-33.5056 438.678,-27.4804 458.25,-22.2429"/>
<polygon fill="midnightblue" stroke="midnightblue" points="459.424,-25.5521 468.179,-19.5859 457.614,-18.7901 459.424,-25.5521"/>
</g>
<!-- Node44&#45;&gt;Node40 -->
<g id="edge7" class="edge"><title>Node44&#45;&gt;Node40</title>
<path fill="none" stroke="midnightblue" d="M275.139,-48C283.485,-48 292.142,-48 300.595,-48"/>
<polygon fill="midnightblue" stroke="midnightblue" points="300.771,-51.5001 310.771,-48 300.771,-44.5001 300.771,-51.5001"/>
</g>
<!-- Node45&#45;&gt;Node40 -->
<g id="edge9" class="edge"><title>Node45&#45;&gt;Node40</title>
<path fill="none" stroke="midnightblue" d="M256.076,-19.589C274.019,-24.4944 296.058,-30.5196 315.217,-35.7571"/>
<polygon fill="midnightblue" stroke="midnightblue" points="314.367,-39.1531 324.936,-38.4141 316.213,-32.4008 314.367,-39.1531"/>
</g>
</g>
</svg>
