<?xml version="1.0" encoding="UTF-8" standalone="no"?>
<!DOCTYPE svg PUBLIC "-//W3C//DTD SVG 1.1//EN"
 "http://www.w3.org/Graphics/SVG/1.1/DTD/svg11.dtd">
<!-- Generated by graphviz version 2.38.0 (20140413.2041)
 -->
<!-- Title: H:/Workspace/QT/Nrfjprogmer/UI/mainwindow.h Pages: 1 -->
<svg width="461pt" height="151pt"
 viewBox="0.00 0.00 461.00 151.00" xmlns="http://www.w3.org/2000/svg" xmlns:xlink="http://www.w3.org/1999/xlink">
<g id="graph0" class="graph" transform="scale(1 1) rotate(0) translate(4 147)">
<title>H:/Workspace/QT/Nrfjprogmer/UI/mainwindow.h</title>
<polygon fill="white" stroke="none" points="-4,4 -4,-147 457,-147 457,4 -4,4"/>
<!-- Node0 -->
<g id="node1" class="node"><title>Node0</title>
<g id="a_node1"><a xlink:title=" ">
<polygon fill="#bfbfbf" stroke="black" points="94,-112.5 94,-142.5 241,-142.5 241,-112.5 94,-112.5"/>
<text text-anchor="start" x="102" y="-130.5" font-family="Helvetica,sans-Serif" font-size="10.00">H:/Workspace/QT/Nrfjprogmer</text>
<text text-anchor="middle" x="167.5" y="-119.5" font-family="Helvetica,sans-Serif" font-size="10.00">/UI/mainwindow.h</text>
</a>
</g>
</g>
<!-- Node1 -->
<g id="node2" class="node"><title>Node1</title>
<g id="a_node2"><a xlink:title=" ">
<polygon fill="white" stroke="#bfbfbf" points="82.5,-56.5 82.5,-75.5 162.5,-75.5 162.5,-56.5 82.5,-56.5"/>
<text text-anchor="middle" x="122.5" y="-63.5" font-family="Helvetica,sans-Serif" font-size="10.00">QMainWindow</text>
</a>
</g>
</g>
<!-- Node0&#45;&gt;Node1 -->
<g id="edge1" class="edge"><title>Node0&#45;&gt;Node1</title>
<path fill="none" stroke="midnightblue" d="M156.836,-112.399C150.364,-103.842 142.066,-92.8708 135.249,-83.857"/>
<polygon fill="midnightblue" stroke="midnightblue" points="137.872,-81.5223 129.048,-75.6578 132.289,-85.7449 137.872,-81.5223"/>
</g>
<!-- Node2 -->
<g id="node3" class="node"><title>Node2</title>
<g id="a_node3"><a xlink:href="$api_8h.html" xlink:title=" ">
<polygon fill="white" stroke="black" points="181,-56.5 181,-75.5 246,-75.5 246,-56.5 181,-56.5"/>
<text text-anchor="middle" x="213.5" y="-63.5" font-family="Helvetica,sans-Serif" font-size="10.00">../API/api.h</text>
</a>
</g>
</g>
<!-- Node0&#45;&gt;Node2 -->
<g id="edge2" class="edge"><title>Node0&#45;&gt;Node2</title>
<path fill="none" stroke="midnightblue" d="M178.401,-112.399C185.086,-103.753 193.676,-92.642 200.685,-83.576"/>
<polygon fill="midnightblue" stroke="midnightblue" points="203.459,-85.7099 206.807,-75.6578 197.921,-81.4284 203.459,-85.7099"/>
</g>
<!-- Node3 -->
<g id="node4" class="node"><title>Node3</title>
<g id="a_node4"><a xlink:title=" ">
<polygon fill="white" stroke="#bfbfbf" points="0,-0.5 0,-19.5 53,-19.5 53,-0.5 0,-0.5"/>
<text text-anchor="middle" x="26.5" y="-7.5" font-family="Helvetica,sans-Serif" font-size="10.00">QObject</text>
</a>
</g>
</g>
<!-- Node2&#45;&gt;Node3 -->
<g id="edge3" class="edge"><title>Node2&#45;&gt;Node3</title>
<path fill="none" stroke="midnightblue" d="M183.869,-56.4435C151.156,-46.997 98.4628,-31.7807 63.1717,-21.5897"/>
<polygon fill="midnightblue" stroke="midnightblue" points="63.8439,-18.1408 53.2654,-18.729 61.9018,-24.8661 63.8439,-18.1408"/>
</g>
<!-- Node4 -->
<g id="node5" class="node"><title>Node4</title>
<g id="a_node5"><a xlink:title=" ">
<polygon fill="white" stroke="#bfbfbf" points="71.5,-0.5 71.5,-19.5 121.5,-19.5 121.5,-0.5 71.5,-0.5"/>
<text text-anchor="middle" x="96.5" y="-7.5" font-family="Helvetica,sans-Serif" font-size="10.00">QString</text>
</a>
</g>
</g>
<!-- Node2&#45;&gt;Node4 -->
<g id="edge4" class="edge"><title>Node2&#45;&gt;Node4</title>
<path fill="none" stroke="midnightblue" d="M194.961,-56.4435C175.877,-47.6356 145.925,-33.8116 124.064,-23.722"/>
<polygon fill="midnightblue" stroke="midnightblue" points="125.499,-20.5292 114.952,-19.5164 122.565,-26.8849 125.499,-20.5292"/>
</g>
<!-- Node5 -->
<g id="node6" class="node"><title>Node5</title>
<g id="a_node6"><a xlink:title=" ">
<polygon fill="white" stroke="#bfbfbf" points="140,-0.5 140,-19.5 205,-19.5 205,-0.5 140,-0.5"/>
<text text-anchor="middle" x="172.5" y="-7.5" font-family="Helvetica,sans-Serif" font-size="10.00">QStringList</text>
</a>
</g>
</g>
<!-- Node2&#45;&gt;Node5 -->
<g id="edge5" class="edge"><title>Node2&#45;&gt;Node5</title>
<path fill="none" stroke="midnightblue" d="M206.73,-56.083C200.938,-48.4554 192.442,-37.2645 185.362,-27.9408"/>
<polygon fill="midnightblue" stroke="midnightblue" points="187.979,-25.5991 179.144,-19.7511 182.404,-29.8321 187.979,-25.5991"/>
</g>
<!-- Node6 -->
<g id="node7" class="node"><title>Node6</title>
<g id="a_node7"><a xlink:title=" ">
<polygon fill="white" stroke="#bfbfbf" points="223.5,-0.5 223.5,-19.5 283.5,-19.5 283.5,-0.5 223.5,-0.5"/>
<text text-anchor="middle" x="253.5" y="-7.5" font-family="Helvetica,sans-Serif" font-size="10.00">QProcess</text>
</a>
</g>
</g>
<!-- Node2&#45;&gt;Node6 -->
<g id="edge6" class="edge"><title>Node2&#45;&gt;Node6</title>
<path fill="none" stroke="midnightblue" d="M220.105,-56.083C225.755,-48.4554 234.045,-37.2645 240.951,-27.9408"/>
<polygon fill="midnightblue" stroke="midnightblue" points="243.878,-29.87 247.018,-19.7511 238.253,-25.7034 243.878,-29.87"/>
</g>
<!-- Node7 -->
<g id="node8" class="node"><title>Node7</title>
<g id="a_node8"><a xlink:title=" ">
<polygon fill="white" stroke="#bfbfbf" points="301.5,-0.5 301.5,-19.5 353.5,-19.5 353.5,-0.5 301.5,-0.5"/>
<text text-anchor="middle" x="327.5" y="-7.5" font-family="Helvetica,sans-Serif" font-size="10.00">QDebug</text>
</a>
</g>
</g>
<!-- Node2&#45;&gt;Node7 -->
<g id="edge7" class="edge"><title>Node2&#45;&gt;Node7</title>
<path fill="none" stroke="midnightblue" d="M231.564,-56.4435C250.075,-47.6751 279.081,-33.9355 300.355,-23.8579"/>
<polygon fill="midnightblue" stroke="midnightblue" points="301.982,-26.9604 309.521,-19.5164 298.985,-20.6343 301.982,-26.9604"/>
</g>
<!-- Node8 -->
<g id="node9" class="node"><title>Node8</title>
<g id="a_node9"><a xlink:title=" ">
<polygon fill="white" stroke="#bfbfbf" points="372,-0.5 372,-19.5 453,-19.5 453,-0.5 372,-0.5"/>
<text text-anchor="middle" x="412.5" y="-7.5" font-family="Helvetica,sans-Serif" font-size="10.00">QMessageBox</text>
</a>
</g>
</g>
<!-- Node2&#45;&gt;Node8 -->
<g id="edge8" class="edge"><title>Node2&#45;&gt;Node8</title>
<path fill="none" stroke="midnightblue" d="M245.032,-56.4435C279.092,-47.2011 333.506,-32.4356 371.015,-22.2572"/>
<polygon fill="midnightblue" stroke="midnightblue" points="372.381,-25.5132 381.115,-19.5164 370.548,-18.7575 372.381,-25.5132"/>
</g>
</g>
</svg>
