<?xml version="1.0" encoding="UTF-8" standalone="no"?>
<!DOCTYPE svg PUBLIC "-//W3C//DTD SVG 1.1//EN"
 "http://www.w3.org/Graphics/SVG/1.1/DTD/svg11.dtd">
<!-- Generated by graphviz version 2.38.0 (20140413.2041)
 -->
<!-- Title: H:/Workspace/QT/Nrfjprogmer/main.cpp Pages: 1 -->
<svg width="494pt" height="207pt"
 viewBox="0.00 0.00 494.00 207.00" xmlns="http://www.w3.org/2000/svg" xmlns:xlink="http://www.w3.org/1999/xlink">
<g id="graph0" class="graph" transform="scale(1 1) rotate(0) translate(4 203)">
<title>H:/Workspace/QT/Nrfjprogmer/main.cpp</title>
<polygon fill="white" stroke="none" points="-4,4 -4,-203 490,-203 490,4 -4,4"/>
<!-- Node0 -->
<g id="node1" class="node"><title>Node0</title>
<g id="a_node1"><a xlink:title=" ">
<polygon fill="#bfbfbf" stroke="black" points="83.5,-168.5 83.5,-198.5 230.5,-198.5 230.5,-168.5 83.5,-168.5"/>
<text text-anchor="start" x="91.5" y="-186.5" font-family="Helvetica,sans-Serif" font-size="10.00">H:/Workspace/QT/Nrfjprogmer</text>
<text text-anchor="middle" x="157" y="-175.5" font-family="Helvetica,sans-Serif" font-size="10.00">/main.cpp</text>
</a>
</g>
</g>
<!-- Node1 -->
<g id="node2" class="node"><title>Node1</title>
<g id="a_node2"><a xlink:title=" ">
<polygon fill="white" stroke="#bfbfbf" points="0,-112.5 0,-131.5 72,-131.5 72,-112.5 0,-112.5"/>
<text text-anchor="middle" x="36" y="-119.5" font-family="Helvetica,sans-Serif" font-size="10.00">QApplication</text>
</a>
</g>
</g>
<!-- Node0&#45;&gt;Node1 -->
<g id="edge1" class="edge"><title>Node0&#45;&gt;Node1</title>
<path fill="none" stroke="midnightblue" d="M128.325,-168.399C108.476,-158.639 82.2389,-145.737 62.8084,-136.183"/>
<polygon fill="midnightblue" stroke="midnightblue" points="64.1248,-132.93 53.6066,-131.658 61.0359,-139.211 64.1248,-132.93"/>
</g>
<!-- Node2 -->
<g id="node3" class="node"><title>Node2</title>
<g id="a_node3"><a xlink:title=" ">
<polygon fill="white" stroke="#bfbfbf" points="34,-0.5 34,-19.5 94,-19.5 94,-0.5 34,-0.5"/>
<text text-anchor="middle" x="64" y="-7.5" font-family="Helvetica,sans-Serif" font-size="10.00">QProcess</text>
</a>
</g>
</g>
<!-- Node0&#45;&gt;Node2 -->
<g id="edge2" class="edge"><title>Node0&#45;&gt;Node2</title>
<path fill="none" stroke="midnightblue" d="M149.389,-168.465C132.49,-137.302 91.8769,-62.4074 73.4167,-28.3653"/>
<polygon fill="midnightblue" stroke="midnightblue" points="76.4855,-26.682 68.6417,-19.5597 70.332,-30.0189 76.4855,-26.682"/>
</g>
<!-- Node3 -->
<g id="node4" class="node"><title>Node3</title>
<g id="a_node4"><a xlink:title=" ">
<polygon fill="white" stroke="#bfbfbf" points="112,-0.5 112,-19.5 164,-19.5 164,-0.5 112,-0.5"/>
<text text-anchor="middle" x="138" y="-7.5" font-family="Helvetica,sans-Serif" font-size="10.00">QDebug</text>
</a>
</g>
</g>
<!-- Node0&#45;&gt;Node3 -->
<g id="edge3" class="edge"><title>Node0&#45;&gt;Node3</title>
<path fill="none" stroke="midnightblue" d="M155.445,-168.465C152.037,-137.704 143.908,-64.3288 140.072,-29.7003"/>
<polygon fill="midnightblue" stroke="midnightblue" points="143.528,-29.1135 138.948,-19.5597 136.571,-29.8843 143.528,-29.1135"/>
</g>
<!-- Node4 -->
<g id="node5" class="node"><title>Node4</title>
<g id="a_node5"><a xlink:href="$api_8h.html" xlink:title=" ">
<polygon fill="white" stroke="black" points="187,-56.5 187,-75.5 243,-75.5 243,-56.5 187,-56.5"/>
<text text-anchor="middle" x="215" y="-63.5" font-family="Helvetica,sans-Serif" font-size="10.00">API/api.h</text>
</a>
</g>
</g>
<!-- Node0&#45;&gt;Node4 -->
<g id="edge4" class="edge"><title>Node0&#45;&gt;Node4</title>
<path fill="none" stroke="midnightblue" d="M164.112,-168.337C174.705,-147.243 194.612,-107.6 206.138,-84.6481"/>
<polygon fill="midnightblue" stroke="midnightblue" points="209.287,-86.1767 210.647,-75.6695 203.031,-83.0353 209.287,-86.1767"/>
</g>
<!-- Node9 -->
<g id="node10" class="node"><title>Node9</title>
<g id="a_node10"><a xlink:href="$mainwindow_8h.html" xlink:title=" ">
<polygon fill="white" stroke="black" points="204.5,-112.5 204.5,-131.5 293.5,-131.5 293.5,-112.5 204.5,-112.5"/>
<text text-anchor="middle" x="249" y="-119.5" font-family="Helvetica,sans-Serif" font-size="10.00">UI/mainwindow.h</text>
</a>
</g>
</g>
<!-- Node0&#45;&gt;Node9 -->
<g id="edge11" class="edge"><title>Node0&#45;&gt;Node9</title>
<path fill="none" stroke="midnightblue" d="M178.803,-168.399C193.412,-158.951 212.573,-146.559 227.185,-137.109"/>
<polygon fill="midnightblue" stroke="midnightblue" points="229.117,-140.027 235.613,-131.658 225.316,-134.15 229.117,-140.027"/>
</g>
<!-- Node11 -->
<g id="node12" class="node"><title>Node11</title>
<g id="a_node12"><a xlink:href="$test_8h.html" xlink:title=" ">
<polygon fill="white" stroke="black" points="312,-112.5 312,-131.5 380,-131.5 380,-112.5 312,-112.5"/>
<text text-anchor="middle" x="346" y="-119.5" font-family="Helvetica,sans-Serif" font-size="10.00">Tests/test.h</text>
</a>
</g>
</g>
<!-- Node0&#45;&gt;Node11 -->
<g id="edge14" class="edge"><title>Node0&#45;&gt;Node11</title>
<path fill="none" stroke="midnightblue" d="M201.79,-168.399C234.449,-158.118 278.18,-144.351 308.893,-134.682"/>
<polygon fill="midnightblue" stroke="midnightblue" points="310.287,-137.912 318.775,-131.571 308.185,-131.235 310.287,-137.912"/>
</g>
<!-- Node4&#45;&gt;Node2 -->
<g id="edge8" class="edge"><title>Node4&#45;&gt;Node2</title>
<path fill="none" stroke="midnightblue" d="M191.074,-56.4435C165.781,-47.3986 125.698,-33.064 97.3202,-22.9158"/>
<polygon fill="midnightblue" stroke="midnightblue" points="98.4091,-19.5882 87.8145,-19.5164 96.0519,-26.1794 98.4091,-19.5882"/>
</g>
<!-- Node4&#45;&gt;Node3 -->
<g id="edge9" class="edge"><title>Node4&#45;&gt;Node3</title>
<path fill="none" stroke="midnightblue" d="M202.629,-56.324C190.842,-48.0577 172.868,-35.4527 158.864,-25.6322"/>
<polygon fill="midnightblue" stroke="midnightblue" points="160.538,-22.5307 150.341,-19.6545 156.518,-28.2619 160.538,-22.5307"/>
</g>
<!-- Node5 -->
<g id="node6" class="node"><title>Node5</title>
<g id="a_node6"><a xlink:title=" ">
<polygon fill="white" stroke="#bfbfbf" points="364.5,-0.5 364.5,-19.5 417.5,-19.5 417.5,-0.5 364.5,-0.5"/>
<text text-anchor="middle" x="391" y="-7.5" font-family="Helvetica,sans-Serif" font-size="10.00">QObject</text>
</a>
</g>
</g>
<!-- Node4&#45;&gt;Node5 -->
<g id="edge5" class="edge"><title>Node4&#45;&gt;Node5</title>
<path fill="none" stroke="midnightblue" d="M242.888,-56.4435C273.105,-47.1723 321.436,-32.3435 354.62,-22.1622"/>
<polygon fill="midnightblue" stroke="midnightblue" points="355.861,-25.4423 364.395,-19.1629 353.808,-18.7502 355.861,-25.4423"/>
</g>
<!-- Node6 -->
<g id="node7" class="node"><title>Node6</title>
<g id="a_node7"><a xlink:title=" ">
<polygon fill="white" stroke="#bfbfbf" points="436,-0.5 436,-19.5 486,-19.5 486,-0.5 436,-0.5"/>
<text text-anchor="middle" x="461" y="-7.5" font-family="Helvetica,sans-Serif" font-size="10.00">QString</text>
</a>
</g>
</g>
<!-- Node4&#45;&gt;Node6 -->
<g id="edge6" class="edge"><title>Node4&#45;&gt;Node6</title>
<path fill="none" stroke="midnightblue" d="M243.257,-58.0166C246.206,-57.3207 249.162,-56.6369 252,-56 326.453,-39.2925 348.033,-38.2276 425.994,-20.1345"/>
<polygon fill="midnightblue" stroke="midnightblue" points="426.85,-23.529 435.788,-17.8414 425.254,-16.7133 426.85,-23.529"/>
</g>
<!-- Node7 -->
<g id="node8" class="node"><title>Node7</title>
<g id="a_node8"><a xlink:title=" ">
<polygon fill="white" stroke="#bfbfbf" points="182.5,-0.5 182.5,-19.5 247.5,-19.5 247.5,-0.5 182.5,-0.5"/>
<text text-anchor="middle" x="215" y="-7.5" font-family="Helvetica,sans-Serif" font-size="10.00">QStringList</text>
</a>
</g>
</g>
<!-- Node4&#45;&gt;Node7 -->
<g id="edge7" class="edge"><title>Node4&#45;&gt;Node7</title>
<path fill="none" stroke="midnightblue" d="M215,-56.083C215,-49.0059 215,-38.8611 215,-29.9865"/>
<polygon fill="midnightblue" stroke="midnightblue" points="218.5,-29.751 215,-19.7511 211.5,-29.7511 218.5,-29.751"/>
</g>
<!-- Node8 -->
<g id="node9" class="node"><title>Node8</title>
<g id="a_node9"><a xlink:title=" ">
<polygon fill="white" stroke="#bfbfbf" points="265.5,-0.5 265.5,-19.5 346.5,-19.5 346.5,-0.5 265.5,-0.5"/>
<text text-anchor="middle" x="306" y="-7.5" font-family="Helvetica,sans-Serif" font-size="10.00">QMessageBox</text>
</a>
</g>
</g>
<!-- Node4&#45;&gt;Node8 -->
<g id="edge10" class="edge"><title>Node4&#45;&gt;Node8</title>
<path fill="none" stroke="midnightblue" d="M229.621,-56.324C243.949,-47.8215 266.013,-34.7288 282.749,-24.7975"/>
<polygon fill="midnightblue" stroke="midnightblue" points="284.602,-27.7677 291.416,-19.6545 281.03,-21.7478 284.602,-27.7677"/>
</g>
<!-- Node9&#45;&gt;Node4 -->
<g id="edge13" class="edge"><title>Node9&#45;&gt;Node4</title>
<path fill="none" stroke="midnightblue" d="M243.386,-112.083C238.633,-104.534 231.682,-93.4948 225.848,-84.2298"/>
<polygon fill="midnightblue" stroke="midnightblue" points="228.8,-82.3486 220.51,-75.7511 222.876,-86.0783 228.8,-82.3486"/>
</g>
<!-- Node10 -->
<g id="node11" class="node"><title>Node10</title>
<g id="a_node11"><a xlink:title=" ">
<polygon fill="white" stroke="#bfbfbf" points="261,-56.5 261,-75.5 341,-75.5 341,-56.5 261,-56.5"/>
<text text-anchor="middle" x="301" y="-63.5" font-family="Helvetica,sans-Serif" font-size="10.00">QMainWindow</text>
</a>
</g>
</g>
<!-- Node9&#45;&gt;Node10 -->
<g id="edge12" class="edge"><title>Node9&#45;&gt;Node10</title>
<path fill="none" stroke="midnightblue" d="M257.587,-112.083C265.159,-104.22 276.378,-92.5688 285.514,-83.0813"/>
<polygon fill="midnightblue" stroke="midnightblue" points="288.158,-85.3821 292.573,-75.7511 283.115,-80.5266 288.158,-85.3821"/>
</g>
</g>
</svg>
