<?xml version="1.0" encoding="UTF-8" standalone="no"?>
<!DOCTYPE svg PUBLIC "-//W3C//DTD SVG 1.1//EN"
 "http://www.w3.org/Graphics/SVG/1.1/DTD/svg11.dtd">
<!-- Generated by graphviz version 2.38.0 (20140413.2041)
 -->
<!-- Title: H:/Workspace/QT/Nrfjprogmer/UI/mainwindow.h Pages: 1 -->
<svg width="320pt" height="106pt"
 viewBox="0.00 0.00 320.00 106.00" xmlns="http://www.w3.org/2000/svg" xmlns:xlink="http://www.w3.org/1999/xlink">
<g id="graph0" class="graph" transform="scale(1 1) rotate(0) translate(4 102)">
<title>H:/Workspace/QT/Nrfjprogmer/UI/mainwindow.h</title>
<polygon fill="white" stroke="none" points="-4,4 -4,-102 316,-102 316,4 -4,4"/>
<!-- Node9 -->
<g id="node1" class="node"><title>Node9</title>
<g id="a_node1"><a xlink:title=" ">
<polygon fill="#bfbfbf" stroke="black" points="82,-67.5 82,-97.5 229,-97.5 229,-67.5 82,-67.5"/>
<text text-anchor="start" x="90" y="-85.5" font-family="Helvetica,sans-Serif" font-size="10.00">H:/Workspace/QT/Nrfjprogmer</text>
<text text-anchor="middle" x="155.5" y="-74.5" font-family="Helvetica,sans-Serif" font-size="10.00">/UI/mainwindow.h</text>
</a>
</g>
</g>
<!-- Node10 -->
<g id="node2" class="node"><title>Node10</title>
<g id="a_node2"><a xlink:href="$main_8cpp.html" xlink:title=" ">
<polygon fill="white" stroke="black" points="0,-0.5 0,-30.5 147,-30.5 147,-0.5 0,-0.5"/>
<text text-anchor="start" x="8" y="-18.5" font-family="Helvetica,sans-Serif" font-size="10.00">H:/Workspace/QT/Nrfjprogmer</text>
<text text-anchor="middle" x="73.5" y="-7.5" font-family="Helvetica,sans-Serif" font-size="10.00">/main.cpp</text>
</a>
</g>
</g>
<!-- Node9&#45;&gt;Node10 -->
<g id="edge1" class="edge"><title>Node9&#45;&gt;Node10</title>
<path fill="none" stroke="midnightblue" d="M129.85,-61.1677C117.311,-51.2283 102.534,-39.5144 91.2581,-30.5765"/>
<polygon fill="midnightblue" stroke="midnightblue" points="127.696,-63.9268 137.707,-67.396 132.045,-58.4412 127.696,-63.9268"/>
</g>
<!-- Node11 -->
<g id="node3" class="node"><title>Node11</title>
<g id="a_node3"><a xlink:href="$mainwindow_8cpp.html" xlink:title=" ">
<polygon fill="white" stroke="black" points="165,-0.5 165,-30.5 312,-30.5 312,-0.5 165,-0.5"/>
<text text-anchor="start" x="173" y="-18.5" font-family="Helvetica,sans-Serif" font-size="10.00">H:/Workspace/QT/Nrfjprogmer</text>
<text text-anchor="middle" x="238.5" y="-7.5" font-family="Helvetica,sans-Serif" font-size="10.00">/UI/mainwindow.cpp</text>
</a>
</g>
</g>
<!-- Node9&#45;&gt;Node11 -->
<g id="edge2" class="edge"><title>Node9&#45;&gt;Node11</title>
<path fill="none" stroke="midnightblue" d="M181.463,-61.1677C194.155,-51.2283 209.112,-39.5144 220.525,-30.5765"/>
<polygon fill="midnightblue" stroke="midnightblue" points="179.225,-58.4747 173.51,-67.396 183.541,-63.9859 179.225,-58.4747"/>
</g>
</g>
</svg>
