<?xml version="1.0" encoding="UTF-8" standalone="no"?>
<!DOCTYPE svg PUBLIC "-//W3C//DTD SVG 1.1//EN"
 "http://www.w3.org/Graphics/SVG/1.1/DTD/svg11.dtd">
<!-- Generated by graphviz version 2.38.0 (20140413.2041)
 -->
<!-- Title: H:/Workspace/QT/Nrfjprogmer/API/api.h Pages: 1 -->
<svg width="461pt" height="95pt"
 viewBox="0.00 0.00 461.00 95.00" xmlns="http://www.w3.org/2000/svg" xmlns:xlink="http://www.w3.org/1999/xlink">
<g id="graph0" class="graph" transform="scale(1 1) rotate(0) translate(4 91)">
<title>H:/Workspace/QT/Nrfjprogmer/API/api.h</title>
<polygon fill="white" stroke="none" points="-4,4 -4,-91 457,-91 457,4 -4,4"/>
<!-- Node0 -->
<g id="node1" class="node"><title>Node0</title>
<g id="a_node1"><a xlink:title=" ">
<polygon fill="#bfbfbf" stroke="black" points="139,-56.5 139,-86.5 286,-86.5 286,-56.5 139,-56.5"/>
<text text-anchor="start" x="147" y="-74.5" font-family="Helvetica,sans-Serif" font-size="10.00">H:/Workspace/QT/Nrfjprogmer</text>
<text text-anchor="middle" x="212.5" y="-63.5" font-family="Helvetica,sans-Serif" font-size="10.00">/API/api.h</text>
</a>
</g>
</g>
<!-- Node1 -->
<g id="node2" class="node"><title>Node1</title>
<g id="a_node2"><a xlink:title=" ">
<polygon fill="white" stroke="#bfbfbf" points="0,-0.5 0,-19.5 53,-19.5 53,-0.5 0,-0.5"/>
<text text-anchor="middle" x="26.5" y="-7.5" font-family="Helvetica,sans-Serif" font-size="10.00">QObject</text>
</a>
</g>
</g>
<!-- Node0&#45;&gt;Node1 -->
<g id="edge1" class="edge"><title>Node0&#45;&gt;Node1</title>
<path fill="none" stroke="midnightblue" d="M168.421,-56.3993C136.184,-46.0871 92.9846,-32.2679 62.746,-22.5948"/>
<polygon fill="midnightblue" stroke="midnightblue" points="63.6136,-19.1977 53.0227,-19.4844 61.4808,-25.8649 63.6136,-19.1977"/>
</g>
<!-- Node2 -->
<g id="node3" class="node"><title>Node2</title>
<g id="a_node3"><a xlink:title=" ">
<polygon fill="white" stroke="#bfbfbf" points="71.5,-0.5 71.5,-19.5 121.5,-19.5 121.5,-0.5 71.5,-0.5"/>
<text text-anchor="middle" x="96.5" y="-7.5" font-family="Helvetica,sans-Serif" font-size="10.00">QString</text>
</a>
</g>
</g>
<!-- Node0&#45;&gt;Node2 -->
<g id="edge2" class="edge"><title>Node0&#45;&gt;Node2</title>
<path fill="none" stroke="midnightblue" d="M185.01,-56.3993C166.068,-46.6837 141.058,-33.8551 122.456,-24.3137"/>
<polygon fill="midnightblue" stroke="midnightblue" points="123.874,-21.1076 113.379,-19.6578 120.679,-27.336 123.874,-21.1076"/>
</g>
<!-- Node3 -->
<g id="node4" class="node"><title>Node3</title>
<g id="a_node4"><a xlink:title=" ">
<polygon fill="white" stroke="#bfbfbf" points="140,-0.5 140,-19.5 205,-19.5 205,-0.5 140,-0.5"/>
<text text-anchor="middle" x="172.5" y="-7.5" font-family="Helvetica,sans-Serif" font-size="10.00">QStringList</text>
</a>
</g>
</g>
<!-- Node0&#45;&gt;Node3 -->
<g id="edge3" class="edge"><title>Node0&#45;&gt;Node3</title>
<path fill="none" stroke="midnightblue" d="M203.021,-56.3993C197.328,-47.9315 190.046,-37.0991 184.022,-28.1393"/>
<polygon fill="midnightblue" stroke="midnightblue" points="186.804,-26.0041 178.32,-19.6578 180.995,-29.9095 186.804,-26.0041"/>
</g>
<!-- Node4 -->
<g id="node5" class="node"><title>Node4</title>
<g id="a_node5"><a xlink:title=" ">
<polygon fill="white" stroke="#bfbfbf" points="223.5,-0.5 223.5,-19.5 283.5,-19.5 283.5,-0.5 223.5,-0.5"/>
<text text-anchor="middle" x="253.5" y="-7.5" font-family="Helvetica,sans-Serif" font-size="10.00">QProcess</text>
</a>
</g>
</g>
<!-- Node0&#45;&gt;Node4 -->
<g id="edge4" class="edge"><title>Node0&#45;&gt;Node4</title>
<path fill="none" stroke="midnightblue" d="M222.216,-56.3993C228.051,-47.9315 235.516,-37.0991 241.69,-28.1393"/>
<polygon fill="midnightblue" stroke="midnightblue" points="244.742,-29.8781 247.534,-19.6578 238.978,-25.9062 244.742,-29.8781"/>
</g>
<!-- Node5 -->
<g id="node6" class="node"><title>Node5</title>
<g id="a_node6"><a xlink:title=" ">
<polygon fill="white" stroke="#bfbfbf" points="301.5,-0.5 301.5,-19.5 353.5,-19.5 353.5,-0.5 301.5,-0.5"/>
<text text-anchor="middle" x="327.5" y="-7.5" font-family="Helvetica,sans-Serif" font-size="10.00">QDebug</text>
</a>
</g>
</g>
<!-- Node0&#45;&gt;Node5 -->
<g id="edge5" class="edge"><title>Node0&#45;&gt;Node5</title>
<path fill="none" stroke="midnightblue" d="M239.753,-56.3993C258.532,-46.6837 283.326,-33.8551 301.768,-24.3137"/>
<polygon fill="midnightblue" stroke="midnightblue" points="303.493,-27.3617 310.766,-19.6578 300.276,-21.1445 303.493,-27.3617"/>
</g>
<!-- Node6 -->
<g id="node7" class="node"><title>Node6</title>
<g id="a_node7"><a xlink:title=" ">
<polygon fill="white" stroke="#bfbfbf" points="372,-0.5 372,-19.5 453,-19.5 453,-0.5 372,-0.5"/>
<text text-anchor="middle" x="412.5" y="-7.5" font-family="Helvetica,sans-Serif" font-size="10.00">QMessageBox</text>
</a>
</g>
</g>
<!-- Node0&#45;&gt;Node6 -->
<g id="edge6" class="edge"><title>Node0&#45;&gt;Node6</title>
<path fill="none" stroke="midnightblue" d="M259.644,-56.4747C294.6,-46.0752 341.648,-32.0783 374.274,-22.3722"/>
<polygon fill="midnightblue" stroke="midnightblue" points="375.32,-25.7126 383.907,-19.5064 373.324,-19.0032 375.32,-25.7126"/>
</g>
</g>
</svg>
