<?xml version="1.0" encoding="UTF-8" standalone="no"?>
<!DOCTYPE svg PUBLIC "-//W3C//DTD SVG 1.1//EN"
 "http://www.w3.org/Graphics/SVG/1.1/DTD/svg11.dtd">
<!-- Generated by graphviz version 2.38.0 (20140413.2041)
 -->
<!-- Title: H:/Workspace/QT/Nrfjprogmer/API/api.cpp Pages: 1 -->
<svg width="461pt" height="151pt"
 viewBox="0.00 0.00 461.00 151.00" xmlns="http://www.w3.org/2000/svg" xmlns:xlink="http://www.w3.org/1999/xlink">
<g id="graph0" class="graph" transform="scale(1 1) rotate(0) translate(4 147)">
<title>H:/Workspace/QT/Nrfjprogmer/API/api.cpp</title>
<polygon fill="white" stroke="none" points="-4,4 -4,-147 457,-147 457,4 -4,4"/>
<!-- Node0 -->
<g id="node1" class="node"><title>Node0</title>
<g id="a_node1"><a xlink:title=" ">
<polygon fill="#bfbfbf" stroke="black" points="102,-112.5 102,-142.5 249,-142.5 249,-112.5 102,-112.5"/>
<text text-anchor="start" x="110" y="-130.5" font-family="Helvetica,sans-Serif" font-size="10.00">H:/Workspace/QT/Nrfjprogmer</text>
<text text-anchor="middle" x="175.5" y="-119.5" font-family="Helvetica,sans-Serif" font-size="10.00">/API/api.cpp</text>
</a>
</g>
</g>
<!-- Node1 -->
<g id="node2" class="node"><title>Node1</title>
<g id="a_node2"><a xlink:title=" ">
<polygon fill="white" stroke="#bfbfbf" points="103.5,-56.5 103.5,-75.5 175.5,-75.5 175.5,-56.5 103.5,-56.5"/>
<text text-anchor="middle" x="139.5" y="-63.5" font-family="Helvetica,sans-Serif" font-size="10.00">QApplication</text>
</a>
</g>
</g>
<!-- Node0&#45;&gt;Node1 -->
<g id="edge1" class="edge"><title>Node0&#45;&gt;Node1</title>
<path fill="none" stroke="midnightblue" d="M166.969,-112.399C161.899,-104.021 155.429,-93.3269 150.042,-84.4229"/>
<polygon fill="midnightblue" stroke="midnightblue" points="152.91,-82.4018 144.738,-75.6578 146.92,-86.0255 152.91,-82.4018"/>
</g>
<!-- Node2 -->
<g id="node3" class="node"><title>Node2</title>
<g id="a_node3"><a xlink:href="api_8h.html" target="_top" xlink:title=" ">
<polygon fill="white" stroke="black" points="193.5,-56.5 193.5,-75.5 231.5,-75.5 231.5,-56.5 193.5,-56.5"/>
<text text-anchor="middle" x="212.5" y="-63.5" font-family="Helvetica,sans-Serif" font-size="10.00">api.h</text>
</a>
</g>
</g>
<!-- Node0&#45;&gt;Node2 -->
<g id="edge2" class="edge"><title>Node0&#45;&gt;Node2</title>
<path fill="none" stroke="midnightblue" d="M184.268,-112.399C189.479,-104.021 196.129,-93.3269 201.666,-84.4229"/>
<polygon fill="midnightblue" stroke="midnightblue" points="204.808,-85.9981 207.116,-75.6578 198.863,-82.3015 204.808,-85.9981"/>
</g>
<!-- Node3 -->
<g id="node4" class="node"><title>Node3</title>
<g id="a_node4"><a xlink:title=" ">
<polygon fill="white" stroke="#bfbfbf" points="0,-0.5 0,-19.5 53,-19.5 53,-0.5 0,-0.5"/>
<text text-anchor="middle" x="26.5" y="-7.5" font-family="Helvetica,sans-Serif" font-size="10.00">QObject</text>
</a>
</g>
</g>
<!-- Node2&#45;&gt;Node3 -->
<g id="edge3" class="edge"><title>Node2&#45;&gt;Node3</title>
<path fill="none" stroke="midnightblue" d="M193.247,-58.7179C190.321,-57.7905 187.334,-56.8589 184.5,-56 142.998,-43.4239 95.0603,-29.9127 62.971,-21.0133"/>
<polygon fill="midnightblue" stroke="midnightblue" points="63.7088,-17.586 53.1376,-18.293 61.8424,-24.3326 63.7088,-17.586"/>
</g>
<!-- Node4 -->
<g id="node5" class="node"><title>Node4</title>
<g id="a_node5"><a xlink:title=" ">
<polygon fill="white" stroke="#bfbfbf" points="71.5,-0.5 71.5,-19.5 121.5,-19.5 121.5,-0.5 71.5,-0.5"/>
<text text-anchor="middle" x="96.5" y="-7.5" font-family="Helvetica,sans-Serif" font-size="10.00">QString</text>
</a>
</g>
</g>
<!-- Node2&#45;&gt;Node4 -->
<g id="edge4" class="edge"><title>Node2&#45;&gt;Node4</title>
<path fill="none" stroke="midnightblue" d="M194.119,-56.4435C175.284,-47.6751 145.769,-33.9355 124.121,-23.8579"/>
<polygon fill="midnightblue" stroke="midnightblue" points="125.338,-20.5637 114.795,-19.5164 122.383,-26.9098 125.338,-20.5637"/>
</g>
<!-- Node5 -->
<g id="node6" class="node"><title>Node5</title>
<g id="a_node6"><a xlink:title=" ">
<polygon fill="white" stroke="#bfbfbf" points="140,-0.5 140,-19.5 205,-19.5 205,-0.5 140,-0.5"/>
<text text-anchor="middle" x="172.5" y="-7.5" font-family="Helvetica,sans-Serif" font-size="10.00">QStringList</text>
</a>
</g>
</g>
<!-- Node2&#45;&gt;Node5 -->
<g id="edge5" class="edge"><title>Node2&#45;&gt;Node5</title>
<path fill="none" stroke="midnightblue" d="M205.895,-56.083C200.245,-48.4554 191.955,-37.2645 185.049,-27.9408"/>
<polygon fill="midnightblue" stroke="midnightblue" points="187.747,-25.7034 178.982,-19.7511 182.122,-29.87 187.747,-25.7034"/>
</g>
<!-- Node6 -->
<g id="node7" class="node"><title>Node6</title>
<g id="a_node7"><a xlink:title=" ">
<polygon fill="white" stroke="#bfbfbf" points="223.5,-0.5 223.5,-19.5 283.5,-19.5 283.5,-0.5 223.5,-0.5"/>
<text text-anchor="middle" x="253.5" y="-7.5" font-family="Helvetica,sans-Serif" font-size="10.00">QProcess</text>
</a>
</g>
</g>
<!-- Node2&#45;&gt;Node6 -->
<g id="edge6" class="edge"><title>Node2&#45;&gt;Node6</title>
<path fill="none" stroke="midnightblue" d="M219.27,-56.083C225.062,-48.4554 233.558,-37.2645 240.638,-27.9408"/>
<polygon fill="midnightblue" stroke="midnightblue" points="243.596,-29.8321 246.856,-19.7511 238.021,-25.5991 243.596,-29.8321"/>
</g>
<!-- Node7 -->
<g id="node8" class="node"><title>Node7</title>
<g id="a_node8"><a xlink:title=" ">
<polygon fill="white" stroke="#bfbfbf" points="301.5,-0.5 301.5,-19.5 353.5,-19.5 353.5,-0.5 301.5,-0.5"/>
<text text-anchor="middle" x="327.5" y="-7.5" font-family="Helvetica,sans-Serif" font-size="10.00">QDebug</text>
</a>
</g>
</g>
<!-- Node2&#45;&gt;Node7 -->
<g id="edge7" class="edge"><title>Node2&#45;&gt;Node7</title>
<path fill="none" stroke="midnightblue" d="M230.722,-56.4435C249.396,-47.6751 278.656,-33.9355 300.117,-23.8579"/>
<polygon fill="midnightblue" stroke="midnightblue" points="301.799,-26.935 309.363,-19.5164 298.824,-20.5988 301.799,-26.935"/>
</g>
<!-- Node8 -->
<g id="node9" class="node"><title>Node8</title>
<g id="a_node9"><a xlink:title=" ">
<polygon fill="white" stroke="#bfbfbf" points="372,-0.5 372,-19.5 453,-19.5 453,-0.5 372,-0.5"/>
<text text-anchor="middle" x="412.5" y="-7.5" font-family="Helvetica,sans-Serif" font-size="10.00">QMessageBox</text>
</a>
</g>
</g>
<!-- Node2&#45;&gt;Node8 -->
<g id="edge8" class="edge"><title>Node2&#45;&gt;Node8</title>
<path fill="none" stroke="midnightblue" d="M231.677,-59.8223C263.628,-51.1954 328.46,-33.6908 371.181,-22.1562"/>
<polygon fill="midnightblue" stroke="midnightblue" points="372.259,-25.4905 381.001,-19.5048 370.434,-18.7325 372.259,-25.4905"/>
</g>
</g>
</svg>
