<?xml version="1.0" encoding="UTF-8" standalone="no"?>
<!DOCTYPE svg PUBLIC "-//W3C//DTD SVG 1.1//EN"
 "http://www.w3.org/Graphics/SVG/1.1/DTD/svg11.dtd">
<!-- Generated by graphviz version 2.38.0 (20140413.2041)
 -->
<!-- Title: API::nrfjprog_reset Pages: 1 -->
<svg width="390pt" height="28pt"
 viewBox="0.00 0.00 390.00 28.00" xmlns="http://www.w3.org/2000/svg" xmlns:xlink="http://www.w3.org/1999/xlink">
<g id="graph0" class="graph" transform="scale(1 1) rotate(0) translate(4 24)">
<title>API::nrfjprog_reset</title>
<polygon fill="white" stroke="none" points="-4,4 -4,-24 386,-24 386,4 -4,4"/>
<!-- Node218 -->
<g id="node1" class="node"><title>Node218</title>
<g id="a_node1"><a xlink:title="API::nrfjprog_reset Performs a soft reset by setting the SysResetReq bit of the AIRCR register of the...">
<polygon fill="#bfbfbf" stroke="black" points="285,-0.5 285,-19.5 382,-19.5 382,-0.5 285,-0.5"/>
<text text-anchor="middle" x="333.5" y="-7.5" font-family="Helvetica,sans-Serif" font-size="10.00">API::nrfjprog_reset</text>
</a>
</g>
</g>
<!-- Node219 -->
<g id="node2" class="node"><title>Node219</title>
<g id="a_node2"><a xlink:href="test_8cpp.html#af0a9b5dc138aec33a195ffc2e375bd77" target="_top" xlink:title=" ">
<polygon fill="white" stroke="black" points="171,-0.5 171,-19.5 249,-19.5 249,-0.5 171,-0.5"/>
<text text-anchor="middle" x="210" y="-7.5" font-family="Helvetica,sans-Serif" font-size="10.00">test_api_reset</text>
</a>
</g>
</g>
<!-- Node218&#45;&gt;Node219 -->
<g id="edge1" class="edge"><title>Node218&#45;&gt;Node219</title>
<path fill="none" stroke="midnightblue" d="M274.722,-10C266.044,-10 257.285,-10 249.156,-10"/>
<polygon fill="midnightblue" stroke="midnightblue" points="274.829,-13.5001 284.829,-10 274.829,-6.5001 274.829,-13.5001"/>
</g>
<!-- Node220 -->
<g id="node3" class="node"><title>Node220</title>
<g id="a_node3"><a xlink:href="test_8cpp.html#a8b3ca02f2a8358f236669e91baf3b408" target="_top" xlink:title=" ">
<polygon fill="white" stroke="black" points="84,-0.5 84,-19.5 135,-19.5 135,-0.5 84,-0.5"/>
<text text-anchor="middle" x="109.5" y="-7.5" font-family="Helvetica,sans-Serif" font-size="10.00">test_api</text>
</a>
</g>
</g>
<!-- Node219&#45;&gt;Node220 -->
<g id="edge2" class="edge"><title>Node219&#45;&gt;Node220</title>
<path fill="none" stroke="midnightblue" d="M160.911,-10C151.974,-10 142.986,-10 135.124,-10"/>
<polygon fill="midnightblue" stroke="midnightblue" points="160.917,-13.5001 170.917,-10 160.917,-6.5001 160.917,-13.5001"/>
</g>
<!-- Node221 -->
<g id="node4" class="node"><title>Node221</title>
<g id="a_node4"><a xlink:href="test_8h.html#add1fe75ad79de762a3906b6d41897ff2" target="_top" xlink:title=" ">
<polygon fill="white" stroke="black" points="0,-0.5 0,-19.5 48,-19.5 48,-0.5 0,-0.5"/>
<text text-anchor="middle" x="24" y="-7.5" font-family="Helvetica,sans-Serif" font-size="10.00">test_all</text>
</a>
</g>
</g>
<!-- Node220&#45;&gt;Node221 -->
<g id="edge3" class="edge"><title>Node220&#45;&gt;Node221</title>
<path fill="none" stroke="midnightblue" d="M73.7336,-10C65.1523,-10 56.1657,-10 48.2802,-10"/>
<polygon fill="midnightblue" stroke="midnightblue" points="73.8989,-13.5001 83.8989,-10 73.8988,-6.5001 73.8989,-13.5001"/>
</g>
</g>
</svg>
