<?xml version="1.0" encoding="UTF-8" standalone="no"?>
<!DOCTYPE svg PUBLIC "-//W3C//DTD SVG 1.1//EN"
 "http://www.w3.org/Graphics/SVG/1.1/DTD/svg11.dtd">
<!-- Generated by graphviz version 2.38.0 (20140413.2041)
 -->
<!-- Title: API::nrfjprog_recover Pages: 1 -->
<svg width="402pt" height="104pt"
 viewBox="0.00 0.00 402.00 104.00" xmlns="http://www.w3.org/2000/svg" xmlns:xlink="http://www.w3.org/1999/xlink">
<g id="graph0" class="graph" transform="scale(1 1) rotate(0) translate(4 100)">
<title>API::nrfjprog_recover</title>
<polygon fill="white" stroke="none" points="-4,4 -4,-100 398,-100 398,4 -4,4"/>
<!-- Node201 -->
<g id="node1" class="node"><title>Node201</title>
<g id="a_node1"><a xlink:title="API::nrfjprog_recover Erases all user flash memory and disables the readback protection mechanism if ...">
<polygon fill="#bfbfbf" stroke="black" points="0,-38.5 0,-57.5 106,-57.5 106,-38.5 0,-38.5"/>
<text text-anchor="middle" x="53" y="-45.5" font-family="Helvetica,sans-Serif" font-size="10.00">API::nrfjprog_recover</text>
</a>
</g>
</g>
<!-- Node202 -->
<g id="node2" class="node"><title>Node202</title>
<g id="a_node2"><a xlink:href="class_a_p_i.html#aa3a31dc3d94f4a7dbe30b578e946e063" target="_top" xlink:title="API::run_command 创建新进程 执行 程序">
<polygon fill="white" stroke="black" points="142,-38.5 142,-57.5 242,-57.5 242,-38.5 142,-38.5"/>
<text text-anchor="middle" x="192" y="-45.5" font-family="Helvetica,sans-Serif" font-size="10.00">API::run_command</text>
</a>
</g>
</g>
<!-- Node201&#45;&gt;Node202 -->
<g id="edge1" class="edge"><title>Node201&#45;&gt;Node202</title>
<path fill="none" stroke="midnightblue" d="M106.185,-48C114.464,-48 123.08,-48 131.511,-48"/>
<polygon fill="midnightblue" stroke="midnightblue" points="131.668,-51.5001 141.668,-48 131.668,-44.5001 131.668,-51.5001"/>
</g>
<!-- Node203 -->
<g id="node3" class="node"><title>Node203</title>
<g id="a_node3"><a xlink:href="class_a_p_i.html#a27bbd79867ef0c01c9e29b6ebb293014" target="_top" xlink:title=" ">
<polygon fill="white" stroke="black" points="280.5,-76.5 280.5,-95.5 391.5,-95.5 391.5,-76.5 280.5,-76.5"/>
<text text-anchor="middle" x="336" y="-83.5" font-family="Helvetica,sans-Serif" font-size="10.00">API::update_info_logs</text>
</a>
</g>
</g>
<!-- Node202&#45;&gt;Node203 -->
<g id="edge2" class="edge"><title>Node202&#45;&gt;Node203</title>
<path fill="none" stroke="midnightblue" d="M228.833,-57.589C247.163,-62.4944 269.678,-68.5196 289.25,-73.7571"/>
<polygon fill="midnightblue" stroke="midnightblue" points="288.614,-77.2099 299.179,-76.4141 290.424,-70.4479 288.614,-77.2099"/>
</g>
<!-- Node204 -->
<g id="node4" class="node"><title>Node204</title>
<g id="a_node4"><a xlink:href="class_a_p_i.html#a70b16d0066d38fca6d5cb3ad74ff4e11" target="_top" xlink:title=" ">
<polygon fill="white" stroke="black" points="278,-38.5 278,-57.5 394,-57.5 394,-38.5 278,-38.5"/>
<text text-anchor="middle" x="336" y="-45.5" font-family="Helvetica,sans-Serif" font-size="10.00">API::update_error_logs</text>
</a>
</g>
</g>
<!-- Node202&#45;&gt;Node204 -->
<g id="edge3" class="edge"><title>Node202&#45;&gt;Node204</title>
<path fill="none" stroke="midnightblue" d="M242.266,-48C250.353,-48 258.856,-48 267.297,-48"/>
<polygon fill="midnightblue" stroke="midnightblue" points="267.529,-51.5001 277.529,-48 267.529,-44.5001 267.529,-51.5001"/>
</g>
<!-- Node205 -->
<g id="node5" class="node"><title>Node205</title>
<g id="a_node5"><a xlink:href="class_a_p_i.html#a474699b50370b27d57863f894c38ce56" target="_top" xlink:title="API::handle_error 处理 nrfjprog 运行的错误">
<polygon fill="white" stroke="black" points="290,-0.5 290,-19.5 382,-19.5 382,-0.5 290,-0.5"/>
<text text-anchor="middle" x="336" y="-7.5" font-family="Helvetica,sans-Serif" font-size="10.00">API::handle_error</text>
</a>
</g>
</g>
<!-- Node202&#45;&gt;Node205 -->
<g id="edge4" class="edge"><title>Node202&#45;&gt;Node205</title>
<path fill="none" stroke="midnightblue" d="M228.833,-38.411C247.163,-33.5056 269.678,-27.4804 289.25,-22.2429"/>
<polygon fill="midnightblue" stroke="midnightblue" points="290.424,-25.5521 299.179,-19.5859 288.614,-18.7901 290.424,-25.5521"/>
</g>
</g>
</svg>
