<?xml version="1.0" encoding="UTF-8" standalone="no"?>
<!DOCTYPE svg PUBLIC "-//W3C//DTD SVG 1.1//EN"
 "http://www.w3.org/Graphics/SVG/1.1/DTD/svg11.dtd">
<!-- Generated by graphviz version 2.38.0 (20140413.2041)
 -->
<!-- Title: API::nrfjprog_memwr Pages: 1 -->
<svg width="403pt" height="104pt"
 viewBox="0.00 0.00 403.00 104.00" xmlns="http://www.w3.org/2000/svg" xmlns:xlink="http://www.w3.org/1999/xlink">
<g id="graph0" class="graph" transform="scale(1 1) rotate(0) translate(4 100)">
<title>API::nrfjprog_memwr</title>
<polygon fill="white" stroke="none" points="-4,4 -4,-100 399,-100 399,4 -4,4"/>
<!-- Node162 -->
<g id="node1" class="node"><title>Node162</title>
<g id="a_node1"><a xlink:title="API::nrfjprog_memwr Writes to the provided address in memory with help of the NVM Controller or,...">
<polygon fill="#bfbfbf" stroke="black" points="0,-38.5 0,-57.5 107,-57.5 107,-38.5 0,-38.5"/>
<text text-anchor="middle" x="53.5" y="-45.5" font-family="Helvetica,sans-Serif" font-size="10.00">API::nrfjprog_memwr</text>
</a>
</g>
</g>
<!-- Node163 -->
<g id="node2" class="node"><title>Node163</title>
<g id="a_node2"><a xlink:href="class_a_p_i.html#aa3a31dc3d94f4a7dbe30b578e946e063" target="_top" xlink:title="API::run_command 创建新进程 执行 程序">
<polygon fill="white" stroke="black" points="143,-38.5 143,-57.5 243,-57.5 243,-38.5 143,-38.5"/>
<text text-anchor="middle" x="193" y="-45.5" font-family="Helvetica,sans-Serif" font-size="10.00">API::run_command</text>
</a>
</g>
</g>
<!-- Node162&#45;&gt;Node163 -->
<g id="edge1" class="edge"><title>Node162&#45;&gt;Node163</title>
<path fill="none" stroke="midnightblue" d="M107.268,-48C115.56,-48 124.18,-48 132.608,-48"/>
<polygon fill="midnightblue" stroke="midnightblue" points="132.76,-51.5001 142.76,-48 132.76,-44.5001 132.76,-51.5001"/>
</g>
<!-- Node164 -->
<g id="node3" class="node"><title>Node164</title>
<g id="a_node3"><a xlink:href="class_a_p_i.html#a27bbd79867ef0c01c9e29b6ebb293014" target="_top" xlink:title=" ">
<polygon fill="white" stroke="black" points="281.5,-76.5 281.5,-95.5 392.5,-95.5 392.5,-76.5 281.5,-76.5"/>
<text text-anchor="middle" x="337" y="-83.5" font-family="Helvetica,sans-Serif" font-size="10.00">API::update_info_logs</text>
</a>
</g>
</g>
<!-- Node163&#45;&gt;Node164 -->
<g id="edge2" class="edge"><title>Node163&#45;&gt;Node164</title>
<path fill="none" stroke="midnightblue" d="M229.833,-57.589C248.163,-62.4944 270.678,-68.5196 290.25,-73.7571"/>
<polygon fill="midnightblue" stroke="midnightblue" points="289.614,-77.2099 300.179,-76.4141 291.424,-70.4479 289.614,-77.2099"/>
</g>
<!-- Node165 -->
<g id="node4" class="node"><title>Node165</title>
<g id="a_node4"><a xlink:href="class_a_p_i.html#a70b16d0066d38fca6d5cb3ad74ff4e11" target="_top" xlink:title=" ">
<polygon fill="white" stroke="black" points="279,-38.5 279,-57.5 395,-57.5 395,-38.5 279,-38.5"/>
<text text-anchor="middle" x="337" y="-45.5" font-family="Helvetica,sans-Serif" font-size="10.00">API::update_error_logs</text>
</a>
</g>
</g>
<!-- Node163&#45;&gt;Node165 -->
<g id="edge3" class="edge"><title>Node163&#45;&gt;Node165</title>
<path fill="none" stroke="midnightblue" d="M243.266,-48C251.353,-48 259.856,-48 268.297,-48"/>
<polygon fill="midnightblue" stroke="midnightblue" points="268.529,-51.5001 278.529,-48 268.529,-44.5001 268.529,-51.5001"/>
</g>
<!-- Node166 -->
<g id="node5" class="node"><title>Node166</title>
<g id="a_node5"><a xlink:href="class_a_p_i.html#a474699b50370b27d57863f894c38ce56" target="_top" xlink:title="API::handle_error 处理 nrfjprog 运行的错误">
<polygon fill="white" stroke="black" points="291,-0.5 291,-19.5 383,-19.5 383,-0.5 291,-0.5"/>
<text text-anchor="middle" x="337" y="-7.5" font-family="Helvetica,sans-Serif" font-size="10.00">API::handle_error</text>
</a>
</g>
</g>
<!-- Node163&#45;&gt;Node166 -->
<g id="edge4" class="edge"><title>Node163&#45;&gt;Node166</title>
<path fill="none" stroke="midnightblue" d="M229.833,-38.411C248.163,-33.5056 270.678,-27.4804 290.25,-22.2429"/>
<polygon fill="midnightblue" stroke="midnightblue" points="291.424,-25.5521 300.179,-19.5859 289.614,-18.7901 291.424,-25.5521"/>
</g>
</g>
</svg>
