<?xml version="1.0" encoding="UTF-8" standalone="no"?>
<!DOCTYPE svg PUBLIC "-//W3C//DTD SVG 1.1//EN"
 "http://www.w3.org/Graphics/SVG/1.1/DTD/svg11.dtd">
<!-- Generated by graphviz version 2.38.0 (20140413.2041)
 -->
<!-- Title: API::nrfjprog_program Pages: 1 -->
<svg width="454pt" height="78pt"
 viewBox="0.00 0.00 454.00 77.50" xmlns="http://www.w3.org/2000/svg" xmlns:xlink="http://www.w3.org/1999/xlink">
<g id="graph0" class="graph" transform="scale(1 1) rotate(0) translate(4 73.5)">
<title>API::nrfjprog_program</title>
<polygon fill="white" stroke="none" points="-4,4 -4,-73.5 450,-73.5 450,4 -4,4"/>
<!-- Node176 -->
<g id="node1" class="node"><title>Node176</title>
<g id="a_node1"><a xlink:title="API::nrfjprog_program">
<polygon fill="#bfbfbf" stroke="black" points="336,-28 336,-47 446,-47 446,-28 336,-28"/>
<text text-anchor="middle" x="391" y="-35" font-family="Helvetica,sans-Serif" font-size="10.00">API::nrfjprog_program</text>
</a>
</g>
</g>
<!-- Node177 -->
<g id="node2" class="node"><title>Node177</title>
<g id="a_node2"><a xlink:href="test_8cpp.html#a8904d8f3737f8278099a0a1fcd92ea98" target="_top" xlink:title=" ">
<polygon fill="white" stroke="black" points="189.5,-50 189.5,-69 281.5,-69 281.5,-50 189.5,-50"/>
<text text-anchor="middle" x="235.5" y="-57" font-family="Helvetica,sans-Serif" font-size="10.00">test_api_program</text>
</a>
</g>
</g>
<!-- Node176&#45;&gt;Node177 -->
<g id="edge1" class="edge"><title>Node176&#45;&gt;Node177</title>
<path fill="none" stroke="midnightblue" d="M325.721,-46.7127C310.854,-48.8434 295.347,-51.0659 281.51,-53.0491"/>
<polygon fill="midnightblue" stroke="midnightblue" points="326.479,-50.1398 335.882,-45.2564 325.486,-43.2106 326.479,-50.1398"/>
</g>
<!-- Node180 -->
<g id="node5" class="node"><title>Node180</title>
<g id="a_node5"><a xlink:href="class_main_window.html#a8792d09d05ef8975c6328ad5548be4b5" target="_top" xlink:title=" ">
<polygon fill="white" stroke="black" points="171,-0.5 171,-30.5 300,-30.5 300,-0.5 171,-0.5"/>
<text text-anchor="start" x="179" y="-18.5" font-family="Helvetica,sans-Serif" font-size="10.00">MainWindow::on_program</text>
<text text-anchor="middle" x="235.5" y="-7.5" font-family="Helvetica,sans-Serif" font-size="10.00">_clicked</text>
</a>
</g>
</g>
<!-- Node176&#45;&gt;Node180 -->
<g id="edge4" class="edge"><title>Node176&#45;&gt;Node180</title>
<path fill="none" stroke="midnightblue" d="M325.97,-28.3231C317.42,-27.0977 308.653,-25.8412 300.11,-24.6167"/>
<polygon fill="midnightblue" stroke="midnightblue" points="325.486,-31.7894 335.882,-29.7436 326.479,-24.8602 325.486,-31.7894"/>
</g>
<!-- Node178 -->
<g id="node3" class="node"><title>Node178</title>
<g id="a_node3"><a xlink:href="test_8cpp.html#a8b3ca02f2a8358f236669e91baf3b408" target="_top" xlink:title=" ">
<polygon fill="white" stroke="black" points="84,-50 84,-69 135,-69 135,-50 84,-50"/>
<text text-anchor="middle" x="109.5" y="-57" font-family="Helvetica,sans-Serif" font-size="10.00">test_api</text>
</a>
</g>
</g>
<!-- Node177&#45;&gt;Node178 -->
<g id="edge2" class="edge"><title>Node177&#45;&gt;Node178</title>
<path fill="none" stroke="midnightblue" d="M179.363,-59.5C163.928,-59.5 147.919,-59.5 135.226,-59.5"/>
<polygon fill="midnightblue" stroke="midnightblue" points="179.382,-63.0001 189.382,-59.5 179.382,-56.0001 179.382,-63.0001"/>
</g>
<!-- Node179 -->
<g id="node4" class="node"><title>Node179</title>
<g id="a_node4"><a xlink:href="test_8h.html#add1fe75ad79de762a3906b6d41897ff2" target="_top" xlink:title=" ">
<polygon fill="white" stroke="black" points="0,-50 0,-69 48,-69 48,-50 0,-50"/>
<text text-anchor="middle" x="24" y="-57" font-family="Helvetica,sans-Serif" font-size="10.00">test_all</text>
</a>
</g>
</g>
<!-- Node178&#45;&gt;Node179 -->
<g id="edge3" class="edge"><title>Node178&#45;&gt;Node179</title>
<path fill="none" stroke="midnightblue" d="M73.7336,-59.5C65.1523,-59.5 56.1657,-59.5 48.2802,-59.5"/>
<polygon fill="midnightblue" stroke="midnightblue" points="73.8989,-63.0001 83.8989,-59.5 73.8988,-56.0001 73.8989,-63.0001"/>
</g>
</g>
</svg>
