<?xml version="1.0" encoding="UTF-8" standalone="no"?>
<!DOCTYPE svg PUBLIC "-//W3C//DTD SVG 1.1//EN"
 "http://www.w3.org/Graphics/SVG/1.1/DTD/svg11.dtd">
<!-- Generated by graphviz version 2.38.0 (20140413.2041)
 -->
<!-- Title: MainWindow::on_button_scan_clicked Pages: 1 -->
<svg width="385pt" height="66pt"
 viewBox="0.00 0.00 385.00 66.00" xmlns="http://www.w3.org/2000/svg" xmlns:xlink="http://www.w3.org/1999/xlink">
<g id="graph0" class="graph" transform="scale(1 1) rotate(0) translate(4 62)">
<title>MainWindow::on_button_scan_clicked</title>
<polygon fill="white" stroke="none" points="-4,4 -4,-62 381,-62 381,4 -4,4"/>
<!-- Node26 -->
<g id="node1" class="node"><title>Node26</title>
<g id="a_node1"><a xlink:title=" ">
<polygon fill="#bfbfbf" stroke="black" points="0,-14 0,-44 121,-44 121,-14 0,-14"/>
<text text-anchor="start" x="8" y="-32" font-family="Helvetica,sans-Serif" font-size="10.00">MainWindow::on_button</text>
<text text-anchor="middle" x="60.5" y="-21" font-family="Helvetica,sans-Serif" font-size="10.00">_scan_clicked</text>
</a>
</g>
</g>
<!-- Node27 -->
<g id="node2" class="node"><title>Node27</title>
<g id="a_node2"><a xlink:href="class_a_p_i.html#ad239d64fde9bf9ccf9ed3307ac0712f0" target="_top" xlink:title="API::nrfjprog_ids Displays the serial numbers of all the debuggers connected to the computer.">
<polygon fill="white" stroke="black" points="159,-38.5 159,-57.5 247,-57.5 247,-38.5 159,-38.5"/>
<text text-anchor="middle" x="203" y="-45.5" font-family="Helvetica,sans-Serif" font-size="10.00">API::nrfjprog_ids</text>
</a>
</g>
</g>
<!-- Node26&#45;&gt;Node27 -->
<g id="edge1" class="edge"><title>Node26&#45;&gt;Node27</title>
<path fill="none" stroke="midnightblue" d="M121.085,-37.0577C130.323,-38.307 139.812,-39.5903 148.895,-40.8185"/>
<polygon fill="midnightblue" stroke="midnightblue" points="148.563,-44.3054 158.941,-42.1771 149.501,-37.3685 148.563,-44.3054"/>
</g>
<!-- Node29 -->
<g id="node4" class="node"><title>Node29</title>
<g id="a_node4"><a xlink:href="class_a_p_i.html#a3044b0e78873d1e070c1eb5263ea4f42" target="_top" xlink:title="API::get_nrf_path 读取当前 nrfjprog 程序的绝对路径">
<polygon fill="white" stroke="black" points="157,-0.5 157,-19.5 249,-19.5 249,-0.5 157,-0.5"/>
<text text-anchor="middle" x="203" y="-7.5" font-family="Helvetica,sans-Serif" font-size="10.00">API::get_nrf_path</text>
</a>
</g>
</g>
<!-- Node26&#45;&gt;Node29 -->
<g id="edge3" class="edge"><title>Node26&#45;&gt;Node29</title>
<path fill="none" stroke="midnightblue" d="M121.085,-20.9423C129.592,-19.7918 138.313,-18.6124 146.733,-17.4738"/>
<polygon fill="midnightblue" stroke="midnightblue" points="147.379,-20.9184 156.82,-16.1098 146.441,-13.9815 147.379,-20.9184"/>
</g>
<!-- Node28 -->
<g id="node3" class="node"><title>Node28</title>
<g id="a_node3"><a xlink:href="class_a_p_i.html#a474699b50370b27d57863f894c38ce56" target="_top" xlink:title="API::handle_error 处理 nrfjprog 运行的错误">
<polygon fill="white" stroke="black" points="285,-38.5 285,-57.5 377,-57.5 377,-38.5 285,-38.5"/>
<text text-anchor="middle" x="331" y="-45.5" font-family="Helvetica,sans-Serif" font-size="10.00">API::handle_error</text>
</a>
</g>
</g>
<!-- Node27&#45;&gt;Node28 -->
<g id="edge2" class="edge"><title>Node27&#45;&gt;Node28</title>
<path fill="none" stroke="midnightblue" d="M247.01,-48C255.815,-48 265.202,-48 274.377,-48"/>
<polygon fill="midnightblue" stroke="midnightblue" points="274.604,-51.5001 284.604,-48 274.604,-44.5001 274.604,-51.5001"/>
</g>
</g>
</svg>
