<?xml version="1.0" encoding="UTF-8" standalone="no"?>
<!DOCTYPE svg PUBLIC "-//W3C//DTD SVG 1.1//EN"
 "http://www.w3.org/Graphics/SVG/1.1/DTD/svg11.dtd">
<!-- Generated by graphviz version 2.38.0 (20140413.2041)
 -->
<!-- Title: API::nrfjprog_rbp Pages: 1 -->
<svg width="433pt" height="78pt"
 viewBox="0.00 0.00 433.00 77.50" xmlns="http://www.w3.org/2000/svg" xmlns:xlink="http://www.w3.org/1999/xlink">
<g id="graph0" class="graph" transform="scale(1 1) rotate(0) translate(4 73.5)">
<title>API::nrfjprog_rbp</title>
<polygon fill="white" stroke="none" points="-4,4 -4,-73.5 429,-73.5 429,4 -4,4"/>
<!-- Node186 -->
<g id="node1" class="node"><title>Node186</title>
<g id="a_node1"><a xlink:title="API::nrfjprog_rbp Enables the readback protection mechanism. Valid argument options are CR0 and ALL.">
<polygon fill="#bfbfbf" stroke="black" points="336,-28 336,-47 425,-47 425,-28 336,-28"/>
<text text-anchor="middle" x="380.5" y="-35" font-family="Helvetica,sans-Serif" font-size="10.00">API::nrfjprog_rbp</text>
</a>
</g>
</g>
<!-- Node187 -->
<g id="node2" class="node"><title>Node187</title>
<g id="a_node2"><a xlink:href="test_8cpp.html#af128b0bbac49d3497f96a32b255c37de" target="_top" xlink:title=" ">
<polygon fill="white" stroke="black" points="200.5,-50 200.5,-69 270.5,-69 270.5,-50 200.5,-50"/>
<text text-anchor="middle" x="235.5" y="-57" font-family="Helvetica,sans-Serif" font-size="10.00">test_api_rbp</text>
</a>
</g>
</g>
<!-- Node186&#45;&gt;Node187 -->
<g id="edge1" class="edge"><title>Node186&#45;&gt;Node187</title>
<path fill="none" stroke="midnightblue" d="M325.799,-45.7618C307.391,-48.5937 287.303,-51.6842 270.849,-54.2156"/>
<polygon fill="midnightblue" stroke="midnightblue" points="326.467,-49.2002 335.818,-44.2203 325.402,-42.2816 326.467,-49.2002"/>
</g>
<!-- Node190 -->
<g id="node5" class="node"><title>Node190</title>
<g id="a_node5"><a xlink:href="class_main_window.html#a8792d09d05ef8975c6328ad5548be4b5" target="_top" xlink:title=" ">
<polygon fill="white" stroke="black" points="171,-0.5 171,-30.5 300,-30.5 300,-0.5 171,-0.5"/>
<text text-anchor="start" x="179" y="-18.5" font-family="Helvetica,sans-Serif" font-size="10.00">MainWindow::on_program</text>
<text text-anchor="middle" x="235.5" y="-7.5" font-family="Helvetica,sans-Serif" font-size="10.00">_clicked</text>
</a>
</g>
</g>
<!-- Node186&#45;&gt;Node190 -->
<g id="edge4" class="edge"><title>Node186&#45;&gt;Node190</title>
<path fill="none" stroke="midnightblue" d="M325.821,-29.2416C317.456,-27.9547 308.743,-26.6143 300.182,-25.2972"/>
<polygon fill="midnightblue" stroke="midnightblue" points="325.402,-32.7184 335.818,-30.7797 326.467,-25.7998 325.402,-32.7184"/>
</g>
<!-- Node188 -->
<g id="node3" class="node"><title>Node188</title>
<g id="a_node3"><a xlink:href="test_8cpp.html#a8b3ca02f2a8358f236669e91baf3b408" target="_top" xlink:title=" ">
<polygon fill="white" stroke="black" points="84,-50 84,-69 135,-69 135,-50 84,-50"/>
<text text-anchor="middle" x="109.5" y="-57" font-family="Helvetica,sans-Serif" font-size="10.00">test_api</text>
</a>
</g>
</g>
<!-- Node187&#45;&gt;Node188 -->
<g id="edge2" class="edge"><title>Node187&#45;&gt;Node188</title>
<path fill="none" stroke="midnightblue" d="M190.278,-59.5C171.746,-59.5 150.9,-59.5 135.165,-59.5"/>
<polygon fill="midnightblue" stroke="midnightblue" points="190.288,-63.0001 200.288,-59.5 190.288,-56.0001 190.288,-63.0001"/>
</g>
<!-- Node189 -->
<g id="node4" class="node"><title>Node189</title>
<g id="a_node4"><a xlink:href="test_8h.html#add1fe75ad79de762a3906b6d41897ff2" target="_top" xlink:title=" ">
<polygon fill="white" stroke="black" points="0,-50 0,-69 48,-69 48,-50 0,-50"/>
<text text-anchor="middle" x="24" y="-57" font-family="Helvetica,sans-Serif" font-size="10.00">test_all</text>
</a>
</g>
</g>
<!-- Node188&#45;&gt;Node189 -->
<g id="edge3" class="edge"><title>Node188&#45;&gt;Node189</title>
<path fill="none" stroke="midnightblue" d="M73.7336,-59.5C65.1523,-59.5 56.1657,-59.5 48.2802,-59.5"/>
<polygon fill="midnightblue" stroke="midnightblue" points="73.8989,-63.0001 83.8989,-59.5 73.8988,-56.0001 73.8989,-63.0001"/>
</g>
</g>
</svg>
