<?xml version="1.0" encoding="UTF-8" standalone="no"?>
<!DOCTYPE svg PUBLIC "-//W3C//DTD SVG 1.1//EN"
 "http://www.w3.org/Graphics/SVG/1.1/DTD/svg11.dtd">
<!-- Generated by graphviz version 2.38.0 (20140413.2041)
 -->
<!-- Title: API::nrfjprog_recover Pages: 1 -->
<svg width="450pt" height="165pt"
 viewBox="0.00 0.00 450.00 164.50" xmlns="http://www.w3.org/2000/svg" xmlns:xlink="http://www.w3.org/1999/xlink">
<g id="graph0" class="graph" transform="scale(1 1) rotate(0) translate(4 160.5)">
<title>API::nrfjprog_recover</title>
<polygon fill="white" stroke="none" points="-4,4 -4,-160.5 446,-160.5 446,4 -4,4"/>
<!-- Node206 -->
<g id="node1" class="node"><title>Node206</title>
<g id="a_node1"><a xlink:title="API::nrfjprog_recover Erases all user flash memory and disables the readback protection mechanism if ...">
<polygon fill="#bfbfbf" stroke="black" points="336,-77 336,-96 442,-96 442,-77 336,-77"/>
<text text-anchor="middle" x="389" y="-84" font-family="Helvetica,sans-Serif" font-size="10.00">API::nrfjprog_recover</text>
</a>
</g>
</g>
<!-- Node207 -->
<g id="node2" class="node"><title>Node207</title>
<g id="a_node2"><a xlink:href="test_8cpp.html#a5b0f2b6e3b1b049cde480f6bd592e07c" target="_top" xlink:title=" ">
<polygon fill="white" stroke="black" points="192,-137 192,-156 279,-156 279,-137 192,-137"/>
<text text-anchor="middle" x="235.5" y="-144" font-family="Helvetica,sans-Serif" font-size="10.00">test_api_recover</text>
</a>
</g>
</g>
<!-- Node206&#45;&gt;Node207 -->
<g id="edge1" class="edge"><title>Node206&#45;&gt;Node207</title>
<path fill="none" stroke="midnightblue" d="M360.075,-100.781C342.993,-109.196 320.544,-119.688 300,-127.5 290.965,-130.936 281.023,-134.162 271.741,-136.947"/>
<polygon fill="midnightblue" stroke="midnightblue" points="362.07,-103.697 369.457,-96.1028 358.946,-97.433 362.07,-103.697"/>
</g>
<!-- Node210 -->
<g id="node5" class="node"><title>Node210</title>
<g id="a_node5"><a xlink:href="test_8cpp.html#a41f19b35782910c27489ded5c8ac74dd" target="_top" xlink:title=" ">
<polygon fill="white" stroke="black" points="191.5,-99 191.5,-118 279.5,-118 279.5,-99 191.5,-99"/>
<text text-anchor="middle" x="235.5" y="-106" font-family="Helvetica,sans-Serif" font-size="10.00">test_api_memwr</text>
</a>
</g>
</g>
<!-- Node206&#45;&gt;Node210 -->
<g id="edge4" class="edge"><title>Node206&#45;&gt;Node210</title>
<path fill="none" stroke="midnightblue" d="M325.819,-95.5296C310.32,-97.7803 294.038,-100.145 279.683,-102.229"/>
<polygon fill="midnightblue" stroke="midnightblue" points="326.469,-98.972 335.862,-94.0712 325.463,-92.0446 326.469,-98.972"/>
</g>
<!-- Node211 -->
<g id="node6" class="node"><title>Node211</title>
<g id="a_node6"><a xlink:href="class_main_window.html#a407e696a12050ba5ecee8527ef28750a" target="_top" xlink:title=" ">
<polygon fill="white" stroke="black" points="175,-49.5 175,-79.5 296,-79.5 296,-49.5 175,-49.5"/>
<text text-anchor="start" x="183" y="-67.5" font-family="Helvetica,sans-Serif" font-size="10.00">MainWindow::on_button</text>
<text text-anchor="middle" x="235.5" y="-56.5" font-family="Helvetica,sans-Serif" font-size="10.00">_disable_rbp_clicked</text>
</a>
</g>
</g>
<!-- Node206&#45;&gt;Node211 -->
<g id="edge6" class="edge"><title>Node206&#45;&gt;Node211</title>
<path fill="none" stroke="midnightblue" d="M325.761,-77.4619C315.93,-76.0344 305.786,-74.5614 296.02,-73.1432"/>
<polygon fill="midnightblue" stroke="midnightblue" points="325.463,-80.9554 335.862,-78.9288 326.469,-74.028 325.463,-80.9554"/>
</g>
<!-- Node212 -->
<g id="node7" class="node"><title>Node212</title>
<g id="a_node7"><a xlink:href="class_main_window.html#a8792d09d05ef8975c6328ad5548be4b5" target="_top" xlink:title=" ">
<polygon fill="white" stroke="black" points="171,-0.5 171,-30.5 300,-30.5 300,-0.5 171,-0.5"/>
<text text-anchor="start" x="179" y="-18.5" font-family="Helvetica,sans-Serif" font-size="10.00">MainWindow::on_program</text>
<text text-anchor="middle" x="235.5" y="-7.5" font-family="Helvetica,sans-Serif" font-size="10.00">_clicked</text>
</a>
</g>
</g>
<!-- Node206&#45;&gt;Node212 -->
<g id="edge7" class="edge"><title>Node206&#45;&gt;Node212</title>
<path fill="none" stroke="midnightblue" d="M362.118,-72.0404C344.776,-62.5841 321.302,-50.2276 300,-40.5 292.564,-37.1042 284.523,-33.7228 276.744,-30.5947"/>
<polygon fill="midnightblue" stroke="midnightblue" points="360.62,-75.2107 371.069,-76.9605 363.992,-69.0763 360.62,-75.2107"/>
</g>
<!-- Node208 -->
<g id="node3" class="node"><title>Node208</title>
<g id="a_node3"><a xlink:href="test_8cpp.html#a8b3ca02f2a8358f236669e91baf3b408" target="_top" xlink:title=" ">
<polygon fill="white" stroke="black" points="84,-118 84,-137 135,-137 135,-118 84,-118"/>
<text text-anchor="middle" x="109.5" y="-125" font-family="Helvetica,sans-Serif" font-size="10.00">test_api</text>
</a>
</g>
</g>
<!-- Node207&#45;&gt;Node208 -->
<g id="edge2" class="edge"><title>Node207&#45;&gt;Node208</title>
<path fill="none" stroke="midnightblue" d="M181.878,-138.437C165.652,-135.951 148.549,-133.33 135.154,-131.278"/>
<polygon fill="midnightblue" stroke="midnightblue" points="181.411,-141.906 191.826,-139.961 182.472,-134.987 181.411,-141.906"/>
</g>
<!-- Node209 -->
<g id="node4" class="node"><title>Node209</title>
<g id="a_node4"><a xlink:href="test_8h.html#add1fe75ad79de762a3906b6d41897ff2" target="_top" xlink:title=" ">
<polygon fill="white" stroke="black" points="0,-118 0,-137 48,-137 48,-118 0,-118"/>
<text text-anchor="middle" x="24" y="-125" font-family="Helvetica,sans-Serif" font-size="10.00">test_all</text>
</a>
</g>
</g>
<!-- Node208&#45;&gt;Node209 -->
<g id="edge3" class="edge"><title>Node208&#45;&gt;Node209</title>
<path fill="none" stroke="midnightblue" d="M73.7336,-127.5C65.1523,-127.5 56.1657,-127.5 48.2802,-127.5"/>
<polygon fill="midnightblue" stroke="midnightblue" points="73.8989,-131 83.8989,-127.5 73.8988,-124 73.8989,-131"/>
</g>
<!-- Node210&#45;&gt;Node208 -->
<g id="edge5" class="edge"><title>Node210&#45;&gt;Node208</title>
<path fill="none" stroke="midnightblue" d="M181.551,-116.613C165.366,-119.093 148.34,-121.702 135.013,-123.744"/>
<polygon fill="midnightblue" stroke="midnightblue" points="182.124,-120.066 191.479,-115.092 181.064,-113.147 182.124,-120.066"/>
</g>
</g>
</svg>
