<?xml version="1.0" encoding="UTF-8" standalone="no"?>
<!DOCTYPE svg PUBLIC "-//W3C//DTD SVG 1.1//EN"
 "http://www.w3.org/Graphics/SVG/1.1/DTD/svg11.dtd">
<!-- Generated by graphviz version 2.38.0 (20140413.2041)
 -->
<!-- Title: API::nrfjprog_memrd Pages: 1 -->
<svg width="401pt" height="104pt"
 viewBox="0.00 0.00 401.00 104.00" xmlns="http://www.w3.org/2000/svg" xmlns:xlink="http://www.w3.org/1999/xlink">
<g id="graph0" class="graph" transform="scale(1 1) rotate(0) translate(4 100)">
<title>API::nrfjprog_memrd</title>
<polygon fill="white" stroke="none" points="-4,4 -4,-100 397,-100 397,4 -4,4"/>
<!-- Node153 -->
<g id="node1" class="node"><title>Node153</title>
<g id="a_node1"><a xlink:title="API::nrfjprog_memrd Reads n bytes from the provided address. If width is not given,...">
<polygon fill="#bfbfbf" stroke="black" points="0,-38.5 0,-57.5 105,-57.5 105,-38.5 0,-38.5"/>
<text text-anchor="middle" x="52.5" y="-45.5" font-family="Helvetica,sans-Serif" font-size="10.00">API::nrfjprog_memrd</text>
</a>
</g>
</g>
<!-- Node154 -->
<g id="node2" class="node"><title>Node154</title>
<g id="a_node2"><a xlink:href="class_a_p_i.html#aa3a31dc3d94f4a7dbe30b578e946e063" target="_top" xlink:title="API::run_command 创建新进程 执行 程序">
<polygon fill="white" stroke="black" points="141,-38.5 141,-57.5 241,-57.5 241,-38.5 141,-38.5"/>
<text text-anchor="middle" x="191" y="-45.5" font-family="Helvetica,sans-Serif" font-size="10.00">API::run_command</text>
</a>
</g>
</g>
<!-- Node153&#45;&gt;Node154 -->
<g id="edge1" class="edge"><title>Node153&#45;&gt;Node154</title>
<path fill="none" stroke="midnightblue" d="M105.105,-48C113.371,-48 121.983,-48 130.416,-48"/>
<polygon fill="midnightblue" stroke="midnightblue" points="130.579,-51.5001 140.579,-48 130.579,-44.5001 130.579,-51.5001"/>
</g>
<!-- Node155 -->
<g id="node3" class="node"><title>Node155</title>
<g id="a_node3"><a xlink:href="class_a_p_i.html#a27bbd79867ef0c01c9e29b6ebb293014" target="_top" xlink:title=" ">
<polygon fill="white" stroke="black" points="279.5,-76.5 279.5,-95.5 390.5,-95.5 390.5,-76.5 279.5,-76.5"/>
<text text-anchor="middle" x="335" y="-83.5" font-family="Helvetica,sans-Serif" font-size="10.00">API::update_info_logs</text>
</a>
</g>
</g>
<!-- Node154&#45;&gt;Node155 -->
<g id="edge2" class="edge"><title>Node154&#45;&gt;Node155</title>
<path fill="none" stroke="midnightblue" d="M227.833,-57.589C246.163,-62.4944 268.678,-68.5196 288.25,-73.7571"/>
<polygon fill="midnightblue" stroke="midnightblue" points="287.614,-77.2099 298.179,-76.4141 289.424,-70.4479 287.614,-77.2099"/>
</g>
<!-- Node156 -->
<g id="node4" class="node"><title>Node156</title>
<g id="a_node4"><a xlink:href="class_a_p_i.html#a70b16d0066d38fca6d5cb3ad74ff4e11" target="_top" xlink:title=" ">
<polygon fill="white" stroke="black" points="277,-38.5 277,-57.5 393,-57.5 393,-38.5 277,-38.5"/>
<text text-anchor="middle" x="335" y="-45.5" font-family="Helvetica,sans-Serif" font-size="10.00">API::update_error_logs</text>
</a>
</g>
</g>
<!-- Node154&#45;&gt;Node156 -->
<g id="edge3" class="edge"><title>Node154&#45;&gt;Node156</title>
<path fill="none" stroke="midnightblue" d="M241.266,-48C249.353,-48 257.856,-48 266.297,-48"/>
<polygon fill="midnightblue" stroke="midnightblue" points="266.529,-51.5001 276.529,-48 266.529,-44.5001 266.529,-51.5001"/>
</g>
<!-- Node157 -->
<g id="node5" class="node"><title>Node157</title>
<g id="a_node5"><a xlink:href="class_a_p_i.html#a474699b50370b27d57863f894c38ce56" target="_top" xlink:title="API::handle_error 处理 nrfjprog 运行的错误">
<polygon fill="white" stroke="black" points="289,-0.5 289,-19.5 381,-19.5 381,-0.5 289,-0.5"/>
<text text-anchor="middle" x="335" y="-7.5" font-family="Helvetica,sans-Serif" font-size="10.00">API::handle_error</text>
</a>
</g>
</g>
<!-- Node154&#45;&gt;Node157 -->
<g id="edge4" class="edge"><title>Node154&#45;&gt;Node157</title>
<path fill="none" stroke="midnightblue" d="M227.833,-38.411C246.163,-33.5056 268.678,-27.4804 288.25,-22.2429"/>
<polygon fill="midnightblue" stroke="midnightblue" points="289.424,-25.5521 298.179,-19.5859 287.614,-18.7901 289.424,-25.5521"/>
</g>
</g>
</svg>
