<?xml version="1.0" encoding="UTF-8" standalone="no"?>
<!DOCTYPE svg PUBLIC "-//W3C//DTD SVG 1.1//EN"
 "http://www.w3.org/Graphics/SVG/1.1/DTD/svg11.dtd">
<!-- Generated by graphviz version 2.38.0 (20140413.2041)
 -->
<!-- Title: API::API Pages: 1 -->
<svg width="479pt" height="104pt"
 viewBox="0.00 0.00 479.00 104.00" xmlns="http://www.w3.org/2000/svg" xmlns:xlink="http://www.w3.org/1999/xlink">
<g id="graph0" class="graph" transform="scale(1 1) rotate(0) translate(4 100)">
<title>API::API</title>
<polygon fill="white" stroke="none" points="-4,4 -4,-100 475,-100 475,4 -4,4"/>
<!-- Node0 -->
<g id="node1" class="node"><title>Node0</title>
<g id="a_node1"><a xlink:title="API::API API 构造函数">
<polygon fill="#bfbfbf" stroke="black" points="0,-38.5 0,-57.5 54,-57.5 54,-38.5 0,-38.5"/>
<text text-anchor="middle" x="27" y="-45.5" font-family="Helvetica,sans-Serif" font-size="10.00">API::API</text>
</a>
</g>
</g>
<!-- Node1 -->
<g id="node2" class="node"><title>Node1</title>
<g id="a_node2"><a xlink:href="class_a_p_i.html#a14ed25912c2d16c06f7b0029334b39da" target="_top" xlink:title="API::find_nrf_path 调用 cmd 命令查找 nrfjprog 安装位置">
<polygon fill="white" stroke="black" points="90,-38.5 90,-57.5 183,-57.5 183,-38.5 90,-38.5"/>
<text text-anchor="middle" x="136.5" y="-45.5" font-family="Helvetica,sans-Serif" font-size="10.00">API::find_nrf_path</text>
</a>
</g>
</g>
<!-- Node0&#45;&gt;Node1 -->
<g id="edge1" class="edge"><title>Node0&#45;&gt;Node1</title>
<path fill="none" stroke="midnightblue" d="M54.0228,-48C61.8784,-48 70.8222,-48 79.8378,-48"/>
<polygon fill="midnightblue" stroke="midnightblue" points="79.9931,-51.5001 89.9931,-48 79.9931,-44.5001 79.9931,-51.5001"/>
</g>
<!-- Node2 -->
<g id="node3" class="node"><title>Node2</title>
<g id="a_node3"><a xlink:href="class_a_p_i.html#aa3a31dc3d94f4a7dbe30b578e946e063" target="_top" xlink:title="API::run_command 创建新进程 执行 程序">
<polygon fill="white" stroke="black" points="219,-38.5 219,-57.5 319,-57.5 319,-38.5 219,-38.5"/>
<text text-anchor="middle" x="269" y="-45.5" font-family="Helvetica,sans-Serif" font-size="10.00">API::run_command</text>
</a>
</g>
</g>
<!-- Node1&#45;&gt;Node2 -->
<g id="edge2" class="edge"><title>Node1&#45;&gt;Node2</title>
<path fill="none" stroke="midnightblue" d="M183.143,-48C191.294,-48 199.896,-48 208.37,-48"/>
<polygon fill="midnightblue" stroke="midnightblue" points="208.605,-51.5001 218.605,-48 208.605,-44.5001 208.605,-51.5001"/>
</g>
<!-- Node3 -->
<g id="node4" class="node"><title>Node3</title>
<g id="a_node4"><a xlink:href="class_a_p_i.html#a27bbd79867ef0c01c9e29b6ebb293014" target="_top" xlink:title=" ">
<polygon fill="white" stroke="black" points="357.5,-76.5 357.5,-95.5 468.5,-95.5 468.5,-76.5 357.5,-76.5"/>
<text text-anchor="middle" x="413" y="-83.5" font-family="Helvetica,sans-Serif" font-size="10.00">API::update_info_logs</text>
</a>
</g>
</g>
<!-- Node2&#45;&gt;Node3 -->
<g id="edge3" class="edge"><title>Node2&#45;&gt;Node3</title>
<path fill="none" stroke="midnightblue" d="M305.833,-57.589C324.163,-62.4944 346.678,-68.5196 366.25,-73.7571"/>
<polygon fill="midnightblue" stroke="midnightblue" points="365.614,-77.2099 376.179,-76.4141 367.424,-70.4479 365.614,-77.2099"/>
</g>
<!-- Node4 -->
<g id="node5" class="node"><title>Node4</title>
<g id="a_node5"><a xlink:href="class_a_p_i.html#a70b16d0066d38fca6d5cb3ad74ff4e11" target="_top" xlink:title=" ">
<polygon fill="white" stroke="black" points="355,-38.5 355,-57.5 471,-57.5 471,-38.5 355,-38.5"/>
<text text-anchor="middle" x="413" y="-45.5" font-family="Helvetica,sans-Serif" font-size="10.00">API::update_error_logs</text>
</a>
</g>
</g>
<!-- Node2&#45;&gt;Node4 -->
<g id="edge4" class="edge"><title>Node2&#45;&gt;Node4</title>
<path fill="none" stroke="midnightblue" d="M319.266,-48C327.353,-48 335.856,-48 344.297,-48"/>
<polygon fill="midnightblue" stroke="midnightblue" points="344.529,-51.5001 354.529,-48 344.529,-44.5001 344.529,-51.5001"/>
</g>
<!-- Node5 -->
<g id="node6" class="node"><title>Node5</title>
<g id="a_node6"><a xlink:href="class_a_p_i.html#a474699b50370b27d57863f894c38ce56" target="_top" xlink:title="API::handle_error 处理 nrfjprog 运行的错误">
<polygon fill="white" stroke="black" points="367,-0.5 367,-19.5 459,-19.5 459,-0.5 367,-0.5"/>
<text text-anchor="middle" x="413" y="-7.5" font-family="Helvetica,sans-Serif" font-size="10.00">API::handle_error</text>
</a>
</g>
</g>
<!-- Node2&#45;&gt;Node5 -->
<g id="edge5" class="edge"><title>Node2&#45;&gt;Node5</title>
<path fill="none" stroke="midnightblue" d="M305.833,-38.411C324.163,-33.5056 346.678,-27.4804 366.25,-22.2429"/>
<polygon fill="midnightblue" stroke="midnightblue" points="367.424,-25.5521 376.179,-19.5859 365.614,-18.7901 367.424,-25.5521"/>
</g>
</g>
</svg>
