<?xml version="1.0" encoding="UTF-8" standalone="no"?>
<!DOCTYPE svg PUBLIC "-//W3C//DTD SVG 1.1//EN"
 "http://www.w3.org/Graphics/SVG/1.1/DTD/svg11.dtd">
<!-- Generated by graphviz version 2.38.0 (20140413.2041)
 -->
<!-- Title: API::nrfjprog_program Pages: 1 -->
<svg width="406pt" height="104pt"
 viewBox="0.00 0.00 406.00 104.00" xmlns="http://www.w3.org/2000/svg" xmlns:xlink="http://www.w3.org/1999/xlink">
<g id="graph0" class="graph" transform="scale(1 1) rotate(0) translate(4 100)">
<title>API::nrfjprog_program</title>
<polygon fill="white" stroke="none" points="-4,4 -4,-100 402,-100 402,4 -4,4"/>
<!-- Node171 -->
<g id="node1" class="node"><title>Node171</title>
<g id="a_node1"><a xlink:title="API::nrfjprog_program">
<polygon fill="#bfbfbf" stroke="black" points="0,-38.5 0,-57.5 110,-57.5 110,-38.5 0,-38.5"/>
<text text-anchor="middle" x="55" y="-45.5" font-family="Helvetica,sans-Serif" font-size="10.00">API::nrfjprog_program</text>
</a>
</g>
</g>
<!-- Node172 -->
<g id="node2" class="node"><title>Node172</title>
<g id="a_node2"><a xlink:href="class_a_p_i.html#aa3a31dc3d94f4a7dbe30b578e946e063" target="_top" xlink:title="API::run_command 创建新进程 执行 程序">
<polygon fill="white" stroke="black" points="146,-38.5 146,-57.5 246,-57.5 246,-38.5 146,-38.5"/>
<text text-anchor="middle" x="196" y="-45.5" font-family="Helvetica,sans-Serif" font-size="10.00">API::run_command</text>
</a>
</g>
</g>
<!-- Node171&#45;&gt;Node172 -->
<g id="edge1" class="edge"><title>Node171&#45;&gt;Node172</title>
<path fill="none" stroke="midnightblue" d="M110.139,-48C118.485,-48 127.142,-48 135.595,-48"/>
<polygon fill="midnightblue" stroke="midnightblue" points="135.771,-51.5001 145.771,-48 135.771,-44.5001 135.771,-51.5001"/>
</g>
<!-- Node173 -->
<g id="node3" class="node"><title>Node173</title>
<g id="a_node3"><a xlink:href="class_a_p_i.html#a27bbd79867ef0c01c9e29b6ebb293014" target="_top" xlink:title=" ">
<polygon fill="white" stroke="black" points="284.5,-76.5 284.5,-95.5 395.5,-95.5 395.5,-76.5 284.5,-76.5"/>
<text text-anchor="middle" x="340" y="-83.5" font-family="Helvetica,sans-Serif" font-size="10.00">API::update_info_logs</text>
</a>
</g>
</g>
<!-- Node172&#45;&gt;Node173 -->
<g id="edge2" class="edge"><title>Node172&#45;&gt;Node173</title>
<path fill="none" stroke="midnightblue" d="M232.833,-57.589C251.163,-62.4944 273.678,-68.5196 293.25,-73.7571"/>
<polygon fill="midnightblue" stroke="midnightblue" points="292.614,-77.2099 303.179,-76.4141 294.424,-70.4479 292.614,-77.2099"/>
</g>
<!-- Node174 -->
<g id="node4" class="node"><title>Node174</title>
<g id="a_node4"><a xlink:href="class_a_p_i.html#a70b16d0066d38fca6d5cb3ad74ff4e11" target="_top" xlink:title=" ">
<polygon fill="white" stroke="black" points="282,-38.5 282,-57.5 398,-57.5 398,-38.5 282,-38.5"/>
<text text-anchor="middle" x="340" y="-45.5" font-family="Helvetica,sans-Serif" font-size="10.00">API::update_error_logs</text>
</a>
</g>
</g>
<!-- Node172&#45;&gt;Node174 -->
<g id="edge3" class="edge"><title>Node172&#45;&gt;Node174</title>
<path fill="none" stroke="midnightblue" d="M246.266,-48C254.353,-48 262.856,-48 271.297,-48"/>
<polygon fill="midnightblue" stroke="midnightblue" points="271.529,-51.5001 281.529,-48 271.529,-44.5001 271.529,-51.5001"/>
</g>
<!-- Node175 -->
<g id="node5" class="node"><title>Node175</title>
<g id="a_node5"><a xlink:href="class_a_p_i.html#a474699b50370b27d57863f894c38ce56" target="_top" xlink:title="API::handle_error 处理 nrfjprog 运行的错误">
<polygon fill="white" stroke="black" points="294,-0.5 294,-19.5 386,-19.5 386,-0.5 294,-0.5"/>
<text text-anchor="middle" x="340" y="-7.5" font-family="Helvetica,sans-Serif" font-size="10.00">API::handle_error</text>
</a>
</g>
</g>
<!-- Node172&#45;&gt;Node175 -->
<g id="edge4" class="edge"><title>Node172&#45;&gt;Node175</title>
<path fill="none" stroke="midnightblue" d="M232.833,-38.411C251.163,-33.5056 273.678,-27.4804 293.25,-22.2429"/>
<polygon fill="midnightblue" stroke="midnightblue" points="294.424,-25.5521 303.179,-19.5859 292.614,-18.7901 294.424,-25.5521"/>
</g>
</g>
</svg>
