<?xml version="1.0" encoding="UTF-8" standalone="no"?>
<!DOCTYPE svg PUBLIC "-//W3C//DTD SVG 1.1//EN"
 "http://www.w3.org/Graphics/SVG/1.1/DTD/svg11.dtd">
<!-- Generated by graphviz version 2.38.0 (20140413.2041)
 -->
<!-- Title: API::nrfjprog_eraseall Pages: 1 -->
<svg width="452pt" height="116pt"
 viewBox="0.00 0.00 452.00 115.50" xmlns="http://www.w3.org/2000/svg" xmlns:xlink="http://www.w3.org/1999/xlink">
<g id="graph0" class="graph" transform="scale(1 1) rotate(0) translate(4 111.5)">
<title>API::nrfjprog_eraseall</title>
<polygon fill="white" stroke="none" points="-4,4 -4,-111.5 448,-111.5 448,4 -4,4"/>
<!-- Node121 -->
<g id="node1" class="node"><title>Node121</title>
<g id="a_node1"><a xlink:title="API::nrfjprog_eraseall Erases all user available program flash memory and the UICR page.">
<polygon fill="#bfbfbf" stroke="black" points="335,-50 335,-69 444,-69 444,-50 335,-50"/>
<text text-anchor="middle" x="389.5" y="-57" font-family="Helvetica,sans-Serif" font-size="10.00">API::nrfjprog_eraseall</text>
</a>
</g>
</g>
<!-- Node122 -->
<g id="node2" class="node"><title>Node122</title>
<g id="a_node2"><a xlink:href="test_8cpp.html#add6afb8ca9440282c398cb4bcade1bbb" target="_top" xlink:title=" ">
<polygon fill="white" stroke="black" points="190,-88 190,-107 280,-107 280,-88 190,-88"/>
<text text-anchor="middle" x="235" y="-95" font-family="Helvetica,sans-Serif" font-size="10.00">test_api_eraseall</text>
</a>
</g>
</g>
<!-- Node121&#45;&gt;Node122 -->
<g id="edge1" class="edge"><title>Node121&#45;&gt;Node122</title>
<path fill="none" stroke="midnightblue" d="M340.182,-71.54C318.877,-76.8488 294.196,-82.9988 274.205,-87.9799"/>
<polygon fill="midnightblue" stroke="midnightblue" points="341.161,-74.9031 350.018,-69.089 339.468,-68.1108 341.161,-74.9031"/>
</g>
<!-- Node125 -->
<g id="node5" class="node"><title>Node125</title>
<g id="a_node5"><a xlink:href="test_8cpp.html#af128b0bbac49d3497f96a32b255c37de" target="_top" xlink:title=" ">
<polygon fill="white" stroke="black" points="200,-50 200,-69 270,-69 270,-50 200,-50"/>
<text text-anchor="middle" x="235" y="-57" font-family="Helvetica,sans-Serif" font-size="10.00">test_api_rbp</text>
</a>
</g>
</g>
<!-- Node121&#45;&gt;Node125 -->
<g id="edge4" class="edge"><title>Node121&#45;&gt;Node125</title>
<path fill="none" stroke="midnightblue" d="M324.523,-59.5C305.906,-59.5 286.286,-59.5 270.261,-59.5"/>
<polygon fill="midnightblue" stroke="midnightblue" points="324.734,-63.0001 334.734,-59.5 324.734,-56.0001 324.734,-63.0001"/>
</g>
<!-- Node126 -->
<g id="node6" class="node"><title>Node126</title>
<g id="a_node6"><a xlink:href="class_main_window.html#ac05a41d9ca1bd0444e76f20eb8344ec1" target="_top" xlink:title=" ">
<polygon fill="white" stroke="black" points="171,-0.5 171,-30.5 299,-30.5 299,-0.5 171,-0.5"/>
<text text-anchor="start" x="179" y="-18.5" font-family="Helvetica,sans-Serif" font-size="10.00">MainWindow::on_eraseall</text>
<text text-anchor="middle" x="235" y="-7.5" font-family="Helvetica,sans-Serif" font-size="10.00">_clicked</text>
</a>
</g>
</g>
<!-- Node121&#45;&gt;Node126 -->
<g id="edge6" class="edge"><title>Node121&#45;&gt;Node126</title>
<path fill="none" stroke="midnightblue" d="M345.331,-47.0447C327.565,-41.9187 306.826,-35.9351 288.215,-30.5654"/>
<polygon fill="midnightblue" stroke="midnightblue" points="344.831,-50.5432 355.41,-49.9527 346.772,-43.8176 344.831,-50.5432"/>
</g>
<!-- Node123 -->
<g id="node3" class="node"><title>Node123</title>
<g id="a_node3"><a xlink:href="test_8cpp.html#a8b3ca02f2a8358f236669e91baf3b408" target="_top" xlink:title=" ">
<polygon fill="white" stroke="black" points="84,-69 84,-88 135,-88 135,-69 84,-69"/>
<text text-anchor="middle" x="109.5" y="-76" font-family="Helvetica,sans-Serif" font-size="10.00">test_api</text>
</a>
</g>
</g>
<!-- Node122&#45;&gt;Node123 -->
<g id="edge2" class="edge"><title>Node122&#45;&gt;Node123</title>
<path fill="none" stroke="midnightblue" d="M179.661,-89.1402C164.085,-86.7439 147.871,-84.2494 135.06,-82.2785"/>
<polygon fill="midnightblue" stroke="midnightblue" points="179.347,-92.6329 189.762,-90.6942 180.411,-85.7143 179.347,-92.6329"/>
</g>
<!-- Node124 -->
<g id="node4" class="node"><title>Node124</title>
<g id="a_node4"><a xlink:href="test_8h.html#add1fe75ad79de762a3906b6d41897ff2" target="_top" xlink:title=" ">
<polygon fill="white" stroke="black" points="0,-69 0,-88 48,-88 48,-69 0,-69"/>
<text text-anchor="middle" x="24" y="-76" font-family="Helvetica,sans-Serif" font-size="10.00">test_all</text>
</a>
</g>
</g>
<!-- Node123&#45;&gt;Node124 -->
<g id="edge3" class="edge"><title>Node123&#45;&gt;Node124</title>
<path fill="none" stroke="midnightblue" d="M73.7336,-78.5C65.1523,-78.5 56.1657,-78.5 48.2802,-78.5"/>
<polygon fill="midnightblue" stroke="midnightblue" points="73.8989,-82.0001 83.8989,-78.5 73.8988,-75.0001 73.8989,-82.0001"/>
</g>
<!-- Node125&#45;&gt;Node123 -->
<g id="edge5" class="edge"><title>Node125&#45;&gt;Node123</title>
<path fill="none" stroke="midnightblue" d="M189.956,-66.2759C171.499,-69.1155 150.737,-72.3097 135.066,-74.7207"/>
<polygon fill="midnightblue" stroke="midnightblue" points="190.575,-69.7221 199.926,-64.7421 189.51,-62.8035 190.575,-69.7221"/>
</g>
</g>
</svg>
