<?xml version="1.0" encoding="UTF-8" standalone="no"?>
<!DOCTYPE svg PUBLIC "-//W3C//DTD SVG 1.1//EN"
 "http://www.w3.org/Graphics/SVG/1.1/DTD/svg11.dtd">
<!-- Generated by graphviz version 2.38.0 (20140413.2041)
 -->
<!-- Title: API::nrfjprog_ids Pages: 1 -->
<svg width="424pt" height="116pt"
 viewBox="0.00 0.00 424.00 115.50" xmlns="http://www.w3.org/2000/svg" xmlns:xlink="http://www.w3.org/1999/xlink">
<g id="graph0" class="graph" transform="scale(1 1) rotate(0) translate(4 111.5)">
<title>API::nrfjprog_ids</title>
<polygon fill="white" stroke="none" points="-4,4 -4,-111.5 420,-111.5 420,4 -4,4"/>
<!-- Node147 -->
<g id="node1" class="node"><title>Node147</title>
<g id="a_node1"><a xlink:title="API::nrfjprog_ids Displays the serial numbers of all the debuggers connected to the computer.">
<polygon fill="#bfbfbf" stroke="black" points="328,-50 328,-69 416,-69 416,-50 328,-50"/>
<text text-anchor="middle" x="372" y="-57" font-family="Helvetica,sans-Serif" font-size="10.00">API::nrfjprog_ids</text>
</a>
</g>
</g>
<!-- Node148 -->
<g id="node2" class="node"><title>Node148</title>
<g id="a_node2"><a xlink:href="test_8cpp.html#a28de4fed07ce85c942b33e55993cf17b" target="_top" xlink:title=" ">
<polygon fill="white" stroke="black" points="197,-88 197,-107 266,-107 266,-88 197,-88"/>
<text text-anchor="middle" x="231.5" y="-95" font-family="Helvetica,sans-Serif" font-size="10.00">test_api_ids</text>
</a>
</g>
</g>
<!-- Node147&#45;&gt;Node148 -->
<g id="edge1" class="edge"><title>Node147&#45;&gt;Node148</title>
<path fill="none" stroke="midnightblue" d="M326.406,-71.7352C306.793,-77.1164 284.145,-83.3303 266.005,-88.3073"/>
<polygon fill="midnightblue" stroke="midnightblue" points="327.333,-75.1102 336.051,-69.089 325.481,-68.3597 327.333,-75.1102"/>
</g>
<!-- Node151 -->
<g id="node5" class="node"><title>Node151</title>
<g id="a_node5"><a xlink:href="test_8cpp.html#a2b09b7ed15a0fee38247fdefc25040f6" target="_top" xlink:title=" ">
<polygon fill="white" stroke="black" points="187,-50 187,-69 276,-69 276,-50 187,-50"/>
<text text-anchor="middle" x="231.5" y="-57" font-family="Helvetica,sans-Serif" font-size="10.00">test_api_setpath</text>
</a>
</g>
</g>
<!-- Node147&#45;&gt;Node151 -->
<g id="edge4" class="edge"><title>Node147&#45;&gt;Node151</title>
<path fill="none" stroke="midnightblue" d="M317.622,-59.5C303.858,-59.5 289.209,-59.5 276.013,-59.5"/>
<polygon fill="midnightblue" stroke="midnightblue" points="317.937,-63.0001 327.937,-59.5 317.937,-56.0001 317.937,-63.0001"/>
</g>
<!-- Node152 -->
<g id="node6" class="node"><title>Node152</title>
<g id="a_node6"><a xlink:href="class_main_window.html#a6a3073eac7cbb512b76d265a3408c81d" target="_top" xlink:title=" ">
<polygon fill="white" stroke="black" points="171,-0.5 171,-30.5 292,-30.5 292,-0.5 171,-0.5"/>
<text text-anchor="start" x="179" y="-18.5" font-family="Helvetica,sans-Serif" font-size="10.00">MainWindow::on_button</text>
<text text-anchor="middle" x="231.5" y="-7.5" font-family="Helvetica,sans-Serif" font-size="10.00">_scan_clicked</text>
</a>
</g>
</g>
<!-- Node147&#45;&gt;Node152 -->
<g id="edge6" class="edge"><title>Node147&#45;&gt;Node152</title>
<path fill="none" stroke="midnightblue" d="M331.341,-46.9008C315.307,-41.8069 296.666,-35.8849 279.922,-30.5654"/>
<polygon fill="midnightblue" stroke="midnightblue" points="330.357,-50.2605 340.948,-49.9527 332.477,-43.5891 330.357,-50.2605"/>
</g>
<!-- Node149 -->
<g id="node3" class="node"><title>Node149</title>
<g id="a_node3"><a xlink:href="test_8cpp.html#a8b3ca02f2a8358f236669e91baf3b408" target="_top" xlink:title=" ">
<polygon fill="white" stroke="black" points="84,-69 84,-88 135,-88 135,-69 84,-69"/>
<text text-anchor="middle" x="109.5" y="-76" font-family="Helvetica,sans-Serif" font-size="10.00">test_api</text>
</a>
</g>
</g>
<!-- Node148&#45;&gt;Node149 -->
<g id="edge2" class="edge"><title>Node148&#45;&gt;Node149</title>
<path fill="none" stroke="midnightblue" d="M186.807,-90.5819C169.443,-87.8327 150.108,-84.7712 135.245,-82.4179"/>
<polygon fill="midnightblue" stroke="midnightblue" points="186.33,-94.0499 196.754,-92.1569 187.424,-87.136 186.33,-94.0499"/>
</g>
<!-- Node150 -->
<g id="node4" class="node"><title>Node150</title>
<g id="a_node4"><a xlink:href="test_8h.html#add1fe75ad79de762a3906b6d41897ff2" target="_top" xlink:title=" ">
<polygon fill="white" stroke="black" points="0,-69 0,-88 48,-88 48,-69 0,-69"/>
<text text-anchor="middle" x="24" y="-76" font-family="Helvetica,sans-Serif" font-size="10.00">test_all</text>
</a>
</g>
</g>
<!-- Node149&#45;&gt;Node150 -->
<g id="edge3" class="edge"><title>Node149&#45;&gt;Node150</title>
<path fill="none" stroke="midnightblue" d="M73.7336,-78.5C65.1523,-78.5 56.1657,-78.5 48.2802,-78.5"/>
<polygon fill="midnightblue" stroke="midnightblue" points="73.8989,-82.0001 83.8989,-78.5 73.8988,-75.0001 73.8989,-82.0001"/>
</g>
<!-- Node151&#45;&gt;Node149 -->
<g id="edge5" class="edge"><title>Node151&#45;&gt;Node149</title>
<path fill="none" stroke="midnightblue" d="M176.87,-67.9914C162.293,-70.2994 147.209,-72.6877 135.112,-74.6031"/>
<polygon fill="midnightblue" stroke="midnightblue" points="177.508,-71.4341 186.838,-66.4132 176.413,-64.5202 177.508,-71.4341"/>
</g>
</g>
</svg>
