<?xml version="1.0" encoding="UTF-8" standalone="no"?>
<!DOCTYPE svg PUBLIC "-//W3C//DTD SVG 1.1//EN"
 "http://www.w3.org/Graphics/SVG/1.1/DTD/svg11.dtd">
<!-- Generated by graphviz version 2.38.0 (20140413.2041)
 -->
<!-- Title: API::nrfjprog_rbp Pages: 1 -->
<svg width="385pt" height="104pt"
 viewBox="0.00 0.00 385.00 104.00" xmlns="http://www.w3.org/2000/svg" xmlns:xlink="http://www.w3.org/1999/xlink">
<g id="graph0" class="graph" transform="scale(1 1) rotate(0) translate(4 100)">
<title>API::nrfjprog_rbp</title>
<polygon fill="white" stroke="none" points="-4,4 -4,-100 381,-100 381,4 -4,4"/>
<!-- Node181 -->
<g id="node1" class="node"><title>Node181</title>
<g id="a_node1"><a xlink:title="API::nrfjprog_rbp Enables the readback protection mechanism. Valid argument options are CR0 and ALL.">
<polygon fill="#bfbfbf" stroke="black" points="0,-38.5 0,-57.5 89,-57.5 89,-38.5 0,-38.5"/>
<text text-anchor="middle" x="44.5" y="-45.5" font-family="Helvetica,sans-Serif" font-size="10.00">API::nrfjprog_rbp</text>
</a>
</g>
</g>
<!-- Node182 -->
<g id="node2" class="node"><title>Node182</title>
<g id="a_node2"><a xlink:href="class_a_p_i.html#aa3a31dc3d94f4a7dbe30b578e946e063" target="_top" xlink:title="API::run_command 创建新进程 执行 程序">
<polygon fill="white" stroke="black" points="125,-38.5 125,-57.5 225,-57.5 225,-38.5 125,-38.5"/>
<text text-anchor="middle" x="175" y="-45.5" font-family="Helvetica,sans-Serif" font-size="10.00">API::run_command</text>
</a>
</g>
</g>
<!-- Node181&#45;&gt;Node182 -->
<g id="edge1" class="edge"><title>Node181&#45;&gt;Node182</title>
<path fill="none" stroke="midnightblue" d="M89.0042,-48C97.2728,-48 106.055,-48 114.716,-48"/>
<polygon fill="midnightblue" stroke="midnightblue" points="114.789,-51.5001 124.789,-48 114.789,-44.5001 114.789,-51.5001"/>
</g>
<!-- Node183 -->
<g id="node3" class="node"><title>Node183</title>
<g id="a_node3"><a xlink:href="class_a_p_i.html#a27bbd79867ef0c01c9e29b6ebb293014" target="_top" xlink:title=" ">
<polygon fill="white" stroke="black" points="263.5,-76.5 263.5,-95.5 374.5,-95.5 374.5,-76.5 263.5,-76.5"/>
<text text-anchor="middle" x="319" y="-83.5" font-family="Helvetica,sans-Serif" font-size="10.00">API::update_info_logs</text>
</a>
</g>
</g>
<!-- Node182&#45;&gt;Node183 -->
<g id="edge2" class="edge"><title>Node182&#45;&gt;Node183</title>
<path fill="none" stroke="midnightblue" d="M211.833,-57.589C230.163,-62.4944 252.678,-68.5196 272.25,-73.7571"/>
<polygon fill="midnightblue" stroke="midnightblue" points="271.614,-77.2099 282.179,-76.4141 273.424,-70.4479 271.614,-77.2099"/>
</g>
<!-- Node184 -->
<g id="node4" class="node"><title>Node184</title>
<g id="a_node4"><a xlink:href="class_a_p_i.html#a70b16d0066d38fca6d5cb3ad74ff4e11" target="_top" xlink:title=" ">
<polygon fill="white" stroke="black" points="261,-38.5 261,-57.5 377,-57.5 377,-38.5 261,-38.5"/>
<text text-anchor="middle" x="319" y="-45.5" font-family="Helvetica,sans-Serif" font-size="10.00">API::update_error_logs</text>
</a>
</g>
</g>
<!-- Node182&#45;&gt;Node184 -->
<g id="edge3" class="edge"><title>Node182&#45;&gt;Node184</title>
<path fill="none" stroke="midnightblue" d="M225.266,-48C233.353,-48 241.856,-48 250.297,-48"/>
<polygon fill="midnightblue" stroke="midnightblue" points="250.529,-51.5001 260.529,-48 250.529,-44.5001 250.529,-51.5001"/>
</g>
<!-- Node185 -->
<g id="node5" class="node"><title>Node185</title>
<g id="a_node5"><a xlink:href="class_a_p_i.html#a474699b50370b27d57863f894c38ce56" target="_top" xlink:title="API::handle_error 处理 nrfjprog 运行的错误">
<polygon fill="white" stroke="black" points="273,-0.5 273,-19.5 365,-19.5 365,-0.5 273,-0.5"/>
<text text-anchor="middle" x="319" y="-7.5" font-family="Helvetica,sans-Serif" font-size="10.00">API::handle_error</text>
</a>
</g>
</g>
<!-- Node182&#45;&gt;Node185 -->
<g id="edge4" class="edge"><title>Node182&#45;&gt;Node185</title>
<path fill="none" stroke="midnightblue" d="M211.833,-38.411C230.163,-33.5056 252.678,-27.4804 272.25,-22.2429"/>
<polygon fill="midnightblue" stroke="midnightblue" points="273.424,-25.5521 282.179,-19.5859 271.614,-18.7901 273.424,-25.5521"/>
</g>
</g>
</svg>
