<?xml version="1.0" encoding="UTF-8" standalone="no"?>
<!DOCTYPE svg PUBLIC "-//W3C//DTD SVG 1.1//EN"
 "http://www.w3.org/Graphics/SVG/1.1/DTD/svg11.dtd">
<!-- Generated by graphviz version 2.38.0 (20140413.2041)
 -->
<!-- Title: API::info_logs_is_ready Pages: 1 -->
<svg width="902pt" height="608pt"
 viewBox="0.00 0.00 902.00 608.00" xmlns="http://www.w3.org/2000/svg" xmlns:xlink="http://www.w3.org/1999/xlink">
<g id="graph0" class="graph" transform="scale(1 1) rotate(0) translate(4 604)">
<title>API::info_logs_is_ready</title>
<polygon fill="white" stroke="none" points="-4,4 -4,-604 898,-604 898,4 -4,4"/>
<!-- Node85 -->
<g id="node1" class="node"><title>Node85</title>
<g id="a_node1"><a xlink:title=" ">
<polygon fill="#bfbfbf" stroke="black" points="775,-307.5 775,-326.5 894,-326.5 894,-307.5 775,-307.5"/>
<text text-anchor="middle" x="834.5" y="-314.5" font-family="Helvetica,sans-Serif" font-size="10.00">API::info_logs_is_ready</text>
</a>
</g>
</g>
<!-- Node86 -->
<g id="node2" class="node"><title>Node86</title>
<g id="a_node2"><a xlink:href="class_a_p_i.html#a27bbd79867ef0c01c9e29b6ebb293014" target="_top" xlink:title=" ">
<polygon fill="white" stroke="black" points="628,-307.5 628,-326.5 739,-326.5 739,-307.5 628,-307.5"/>
<text text-anchor="middle" x="683.5" y="-314.5" font-family="Helvetica,sans-Serif" font-size="10.00">API::update_info_logs</text>
</a>
</g>
</g>
<!-- Node85&#45;&gt;Node86 -->
<g id="edge1" class="edge"><title>Node85&#45;&gt;Node86</title>
<path fill="none" stroke="midnightblue" d="M764.348,-317C755.872,-317 747.303,-317 739.083,-317"/>
<polygon fill="midnightblue" stroke="midnightblue" points="764.611,-320.5 774.611,-317 764.611,-313.5 764.611,-320.5"/>
</g>
<!-- Node87 -->
<g id="node3" class="node"><title>Node87</title>
<g id="a_node3"><a xlink:href="class_a_p_i.html#aa3a31dc3d94f4a7dbe30b578e946e063" target="_top" xlink:title="API::run_command 创建新进程 执行 程序">
<polygon fill="white" stroke="black" points="492,-307.5 492,-326.5 592,-326.5 592,-307.5 492,-307.5"/>
<text text-anchor="middle" x="542" y="-314.5" font-family="Helvetica,sans-Serif" font-size="10.00">API::run_command</text>
</a>
</g>
</g>
<!-- Node86&#45;&gt;Node87 -->
<g id="edge2" class="edge"><title>Node86&#45;&gt;Node87</title>
<path fill="none" stroke="midnightblue" d="M617.738,-317C609.128,-317 600.417,-317 592.132,-317"/>
<polygon fill="midnightblue" stroke="midnightblue" points="617.766,-320.5 627.766,-317 617.766,-313.5 617.766,-320.5"/>
</g>
<!-- Node88 -->
<g id="node4" class="node"><title>Node88</title>
<g id="a_node4"><a xlink:href="class_a_p_i.html#abf47651c6b917b2b48dcc01bdab289b9" target="_top" xlink:title="API::nrfjprog_recover Erases all user flash memory and disables the readback protection mechanism if ...">
<polygon fill="white" stroke="black" points="343,-383.5 343,-402.5 449,-402.5 449,-383.5 343,-383.5"/>
<text text-anchor="middle" x="396" y="-390.5" font-family="Helvetica,sans-Serif" font-size="10.00">API::nrfjprog_recover</text>
</a>
</g>
</g>
<!-- Node87&#45;&gt;Node88 -->
<g id="edge3" class="edge"><title>Node87&#45;&gt;Node88</title>
<path fill="none" stroke="midnightblue" d="M520.614,-333.056C503.981,-345.552 479.476,-362.627 456,-374 448.543,-377.613 440.234,-380.771 432.26,-383.421"/>
<polygon fill="midnightblue" stroke="midnightblue" points="523.172,-335.505 528.988,-326.649 518.919,-329.946 523.172,-335.505"/>
</g>
<!-- Node95 -->
<g id="node11" class="node"><title>Node95</title>
<g id="a_node11"><a xlink:href="class_a_p_i.html#a767c12af1e9952f18593f319e8aad691" target="_top" xlink:title="API::nrfjprog_reset Performs a soft reset by setting the SysResetReq bit of the AIRCR register of the...">
<polygon fill="white" stroke="black" points="347.5,-71.5 347.5,-90.5 444.5,-90.5 444.5,-71.5 347.5,-71.5"/>
<text text-anchor="middle" x="396" y="-78.5" font-family="Helvetica,sans-Serif" font-size="10.00">API::nrfjprog_reset</text>
</a>
</g>
</g>
<!-- Node87&#45;&gt;Node95 -->
<g id="edge11" class="edge"><title>Node87&#45;&gt;Node95</title>
<path fill="none" stroke="midnightblue" d="M537.565,-297.042C529.761,-257.11 507.247,-166.467 456,-111 447.734,-102.053 436.198,-95.3722 425.517,-90.6143"/>
<polygon fill="midnightblue" stroke="midnightblue" points="534.164,-297.899 539.424,-307.096 541.047,-296.626 534.164,-297.899"/>
</g>
<!-- Node97 -->
<g id="node13" class="node"><title>Node97</title>
<g id="a_node13"><a xlink:href="class_a_p_i.html#a3387e0691dd41568db455cf92703be16" target="_top" xlink:title="API::nrfjprog_program">
<polygon fill="white" stroke="black" points="341,-307.5 341,-326.5 451,-326.5 451,-307.5 341,-307.5"/>
<text text-anchor="middle" x="396" y="-314.5" font-family="Helvetica,sans-Serif" font-size="10.00">API::nrfjprog_program</text>
</a>
</g>
</g>
<!-- Node87&#45;&gt;Node97 -->
<g id="edge14" class="edge"><title>Node87&#45;&gt;Node97</title>
<path fill="none" stroke="midnightblue" d="M481.575,-317C471.57,-317 461.231,-317 451.363,-317"/>
<polygon fill="midnightblue" stroke="midnightblue" points="481.846,-320.5 491.846,-317 481.846,-313.5 481.846,-320.5"/>
</g>
<!-- Node99 -->
<g id="node15" class="node"><title>Node99</title>
<g id="a_node15"><a xlink:href="class_a_p_i.html#ac5e9ab1c5ea7f18fcbb05c955e06e26f" target="_top" xlink:title="API::nrfjprog_eraseall Erases all user available program flash memory and the UICR page.">
<polygon fill="white" stroke="black" points="341.5,-222.5 341.5,-241.5 450.5,-241.5 450.5,-222.5 341.5,-222.5"/>
<text text-anchor="middle" x="396" y="-229.5" font-family="Helvetica,sans-Serif" font-size="10.00">API::nrfjprog_eraseall</text>
</a>
</g>
</g>
<!-- Node87&#45;&gt;Node99 -->
<g id="edge18" class="edge"><title>Node87&#45;&gt;Node99</title>
<path fill="none" stroke="midnightblue" d="M519.593,-301.356C502.734,-289.356 478.417,-272.743 456,-260 444.172,-253.276 430.469,-246.704 419.247,-241.618"/>
<polygon fill="midnightblue" stroke="midnightblue" points="517.97,-304.5 528.132,-307.495 522.055,-298.816 517.97,-304.5"/>
</g>
<!-- Node103 -->
<g id="node19" class="node"><title>Node103</title>
<g id="a_node19"><a xlink:href="class_a_p_i.html#a2bc55a6035fbd8dd03a97cacab63c101" target="_top" xlink:title="API::nrfjprog_memwr Writes to the provided address in memory with help of the NVM Controller or,...">
<polygon fill="white" stroke="black" points="342.5,-345.5 342.5,-364.5 449.5,-364.5 449.5,-345.5 342.5,-345.5"/>
<text text-anchor="middle" x="396" y="-352.5" font-family="Helvetica,sans-Serif" font-size="10.00">API::nrfjprog_memwr</text>
</a>
</g>
</g>
<!-- Node87&#45;&gt;Node103 -->
<g id="edge24" class="edge"><title>Node87&#45;&gt;Node103</title>
<path fill="none" stroke="midnightblue" d="M494.828,-329.184C474.836,-334.46 451.781,-340.544 433.076,-345.48"/>
<polygon fill="midnightblue" stroke="midnightblue" points="495.887,-332.525 504.663,-326.589 494.101,-325.756 495.887,-332.525"/>
</g>
<!-- Node104 -->
<g id="node20" class="node"><title>Node104</title>
<g id="a_node20"><a xlink:href="class_a_p_i.html#a58f3eab95763686a220892129399dff5" target="_top" xlink:title="API::nrfjprog_memrd Reads n bytes from the provided address. If width is not given,...">
<polygon fill="white" stroke="black" points="343.5,-574.5 343.5,-593.5 448.5,-593.5 448.5,-574.5 343.5,-574.5"/>
<text text-anchor="middle" x="396" y="-581.5" font-family="Helvetica,sans-Serif" font-size="10.00">API::nrfjprog_memrd</text>
</a>
</g>
</g>
<!-- Node87&#45;&gt;Node104 -->
<g id="edge26" class="edge"><title>Node87&#45;&gt;Node104</title>
<path fill="none" stroke="midnightblue" d="M538.843,-336.895C533.095,-381.058 513.693,-488.535 456,-554 448.023,-563.052 436.664,-569.726 426.039,-574.449"/>
<polygon fill="midnightblue" stroke="midnightblue" points="542.329,-337.217 540.049,-326.871 535.379,-336.381 542.329,-337.217"/>
</g>
<!-- Node106 -->
<g id="node22" class="node"><title>Node106</title>
<g id="a_node22"><a xlink:href="class_a_p_i.html#a1070823025ffe73cf971f5bf7e0ca281" target="_top" xlink:title="API::nrfjprog_eraseuicr Erases the UICR page.">
<polygon fill="white" stroke="black" points="338.5,-525.5 338.5,-544.5 453.5,-544.5 453.5,-525.5 338.5,-525.5"/>
<text text-anchor="middle" x="396" y="-532.5" font-family="Helvetica,sans-Serif" font-size="10.00">API::nrfjprog_eraseuicr</text>
</a>
</g>
</g>
<!-- Node87&#45;&gt;Node106 -->
<g id="edge29" class="edge"><title>Node87&#45;&gt;Node106</title>
<path fill="none" stroke="midnightblue" d="M535.252,-336.676C524.337,-371.472 497.89,-444.828 456,-494 444.756,-507.198 428.329,-518.151 415.661,-525.406"/>
<polygon fill="midnightblue" stroke="midnightblue" points="538.69,-337.398 538.25,-326.813 531.993,-335.363 538.69,-337.398"/>
</g>
<!-- Node108 -->
<g id="node24" class="node"><title>Node108</title>
<g id="a_node24"><a xlink:href="class_a_p_i.html#a247bfb38bf5dc0ccbe2d63e931eb68f9" target="_top" xlink:title="API::nrfjprog_erasepage Erases the flash pages starting at the given start address and ending at the ...">
<polygon fill="white" stroke="black" points="336,-465.5 336,-484.5 456,-484.5 456,-465.5 336,-465.5"/>
<text text-anchor="middle" x="396" y="-472.5" font-family="Helvetica,sans-Serif" font-size="10.00">API::nrfjprog_erasepage</text>
</a>
</g>
</g>
<!-- Node87&#45;&gt;Node108 -->
<g id="edge32" class="edge"><title>Node87&#45;&gt;Node108</title>
<path fill="none" stroke="midnightblue" d="M525.917,-334.091C509.014,-353.191 480.732,-384.982 456,-412 438.597,-431.011 417.946,-452.915 406.267,-465.243"/>
<polygon fill="midnightblue" stroke="midnightblue" points="528.625,-336.313 532.625,-326.503 523.38,-331.677 528.625,-336.313"/>
</g>
<!-- Node110 -->
<g id="node26" class="node"><title>Node110</title>
<g id="a_node26"><a xlink:href="class_a_p_i.html#a79ce66659369f5a2195c57f7df14bea6" target="_top" xlink:title="API::nrfjprog_rbp Enables the readback protection mechanism. Valid argument options are CR0 and ALL.">
<polygon fill="white" stroke="black" points="351.5,-269.5 351.5,-288.5 440.5,-288.5 440.5,-269.5 351.5,-269.5"/>
<text text-anchor="middle" x="396" y="-276.5" font-family="Helvetica,sans-Serif" font-size="10.00">API::nrfjprog_rbp</text>
</a>
</g>
</g>
<!-- Node87&#45;&gt;Node110 -->
<g id="edge35" class="edge"><title>Node87&#45;&gt;Node110</title>
<path fill="none" stroke="midnightblue" d="M494.828,-304.816C474.836,-299.54 451.781,-293.456 433.076,-288.52"/>
<polygon fill="midnightblue" stroke="midnightblue" points="494.101,-308.244 504.663,-307.411 495.887,-301.475 494.101,-308.244"/>
</g>
<!-- Node111 -->
<g id="node27" class="node"><title>Node111</title>
<g id="a_node27"><a xlink:href="class_a_p_i.html#ae84704f7b2d4bea116893cc3bd087f02" target="_top" xlink:title="API::nrfjprog_readcode Reads the device flash and stores it in the given file path.">
<polygon fill="white" stroke="black" points="338.5,-120.5 338.5,-139.5 453.5,-139.5 453.5,-120.5 338.5,-120.5"/>
<text text-anchor="middle" x="396" y="-127.5" font-family="Helvetica,sans-Serif" font-size="10.00">API::nrfjprog_readcode</text>
</a>
</g>
</g>
<!-- Node87&#45;&gt;Node111 -->
<g id="edge38" class="edge"><title>Node87&#45;&gt;Node111</title>
<path fill="none" stroke="midnightblue" d="M527.31,-299.222C497.496,-260.506 427.528,-169.645 404.497,-139.735"/>
<polygon fill="midnightblue" stroke="midnightblue" points="524.787,-301.682 533.661,-307.47 530.333,-297.411 524.787,-301.682"/>
</g>
<!-- Node114 -->
<g id="node30" class="node"><title>Node114</title>
<g id="a_node30"><a xlink:href="class_a_p_i.html#a14ed25912c2d16c06f7b0029334b39da" target="_top" xlink:title="API::find_nrf_path 调用 cmd 命令查找 nrfjprog 安装位置">
<polygon fill="white" stroke="black" points="349.5,-11.5 349.5,-30.5 442.5,-30.5 442.5,-11.5 349.5,-11.5"/>
<text text-anchor="middle" x="396" y="-18.5" font-family="Helvetica,sans-Serif" font-size="10.00">API::find_nrf_path</text>
</a>
</g>
</g>
<!-- Node87&#45;&gt;Node114 -->
<g id="edge42" class="edge"><title>Node87&#45;&gt;Node114</title>
<path fill="none" stroke="midnightblue" d="M538.697,-297.123C532.547,-251.429 512.204,-137.076 456,-62 445.834,-48.4199 429.818,-37.6974 417.037,-30.6289"/>
<polygon fill="midnightblue" stroke="midnightblue" points="535.243,-297.712 539.967,-307.195 542.188,-296.836 535.243,-297.712"/>
</g>
<!-- Node89 -->
<g id="node5" class="node"><title>Node89</title>
<g id="a_node5"><a xlink:href="test_8cpp.html#a5b0f2b6e3b1b049cde480f6bd592e07c" target="_top" xlink:title=" ">
<polygon fill="white" stroke="black" points="192,-466.5 192,-485.5 279,-485.5 279,-466.5 192,-466.5"/>
<text text-anchor="middle" x="235.5" y="-473.5" font-family="Helvetica,sans-Serif" font-size="10.00">test_api_recover</text>
</a>
</g>
</g>
<!-- Node88&#45;&gt;Node89 -->
<g id="edge4" class="edge"><title>Node88&#45;&gt;Node89</title>
<path fill="none" stroke="midnightblue" d="M375.458,-408.763C356.959,-423.035 327.935,-443.788 300,-457 292.198,-460.69 283.518,-463.849 275.143,-466.471"/>
<polygon fill="midnightblue" stroke="midnightblue" points="377.701,-411.452 383.409,-402.526 373.381,-405.944 377.701,-411.452"/>
</g>
<!-- Node92 -->
<g id="node8" class="node"><title>Node92</title>
<g id="a_node8"><a xlink:href="test_8cpp.html#a41f19b35782910c27489ded5c8ac74dd" target="_top" xlink:title=" ">
<polygon fill="white" stroke="black" points="191.5,-378.5 191.5,-397.5 279.5,-397.5 279.5,-378.5 191.5,-378.5"/>
<text text-anchor="middle" x="235.5" y="-385.5" font-family="Helvetica,sans-Serif" font-size="10.00">test_api_memwr</text>
</a>
</g>
</g>
<!-- Node88&#45;&gt;Node92 -->
<g id="edge7" class="edge"><title>Node88&#45;&gt;Node92</title>
<path fill="none" stroke="midnightblue" d="M332.396,-391.025C314.685,-390.466 295.812,-389.871 279.535,-389.358"/>
<polygon fill="midnightblue" stroke="midnightblue" points="332.556,-394.532 342.662,-391.349 332.777,-387.535 332.556,-394.532"/>
</g>
<!-- Node93 -->
<g id="node9" class="node"><title>Node93</title>
<g id="a_node9"><a xlink:href="class_main_window.html#a407e696a12050ba5ecee8527ef28750a" target="_top" xlink:title=" ">
<polygon fill="white" stroke="black" points="175,-417 175,-447 296,-447 296,-417 175,-417"/>
<text text-anchor="start" x="183" y="-435" font-family="Helvetica,sans-Serif" font-size="10.00">MainWindow::on_button</text>
<text text-anchor="middle" x="235.5" y="-424" font-family="Helvetica,sans-Serif" font-size="10.00">_disable_rbp_clicked</text>
</a>
</g>
</g>
<!-- Node88&#45;&gt;Node93 -->
<g id="edge9" class="edge"><title>Node88&#45;&gt;Node93</title>
<path fill="none" stroke="midnightblue" d="M346.155,-405.019C330.364,-408.904 312.675,-413.257 296.19,-417.313"/>
<polygon fill="midnightblue" stroke="midnightblue" points="347.352,-408.328 356.227,-402.54 345.68,-401.531 347.352,-408.328"/>
</g>
<!-- Node94 -->
<g id="node10" class="node"><title>Node94</title>
<g id="a_node10"><a xlink:href="class_main_window.html#a8792d09d05ef8975c6328ad5548be4b5" target="_top" xlink:title=" ">
<polygon fill="white" stroke="black" points="171,-291 171,-321 300,-321 300,-291 171,-291"/>
<text text-anchor="start" x="179" y="-309" font-family="Helvetica,sans-Serif" font-size="10.00">MainWindow::on_program</text>
<text text-anchor="middle" x="235.5" y="-298" font-family="Helvetica,sans-Serif" font-size="10.00">_clicked</text>
</a>
</g>
</g>
<!-- Node88&#45;&gt;Node94 -->
<g id="edge10" class="edge"><title>Node88&#45;&gt;Node94</title>
<path fill="none" stroke="midnightblue" d="M345.394,-379.381C342.112,-377.771 338.946,-375.984 336,-374 315.326,-360.078 320.221,-345.572 300,-331 294.809,-327.26 288.983,-323.985 283.02,-321.146"/>
<polygon fill="midnightblue" stroke="midnightblue" points="344.29,-382.717 354.859,-383.46 347.061,-376.288 344.29,-382.717"/>
</g>
<!-- Node90 -->
<g id="node6" class="node"><title>Node90</title>
<g id="a_node6"><a xlink:href="test_8cpp.html#a8b3ca02f2a8358f236669e91baf3b408" target="_top" xlink:title=" ">
<polygon fill="white" stroke="black" points="84,-359.5 84,-378.5 135,-378.5 135,-359.5 84,-359.5"/>
<text text-anchor="middle" x="109.5" y="-366.5" font-family="Helvetica,sans-Serif" font-size="10.00">test_api</text>
</a>
</g>
</g>
<!-- Node89&#45;&gt;Node90 -->
<g id="edge5" class="edge"><title>Node89&#45;&gt;Node90</title>
<path fill="none" stroke="midnightblue" d="M182.706,-463.845C178.569,-461.89 174.603,-459.625 171,-457 142.079,-435.93 122.379,-396.613 114.434,-378.537"/>
<polygon fill="midnightblue" stroke="midnightblue" points="181.382,-467.084 191.961,-467.647 184.041,-460.609 181.382,-467.084"/>
</g>
<!-- Node91 -->
<g id="node7" class="node"><title>Node91</title>
<g id="a_node7"><a xlink:href="test_8h.html#add1fe75ad79de762a3906b6d41897ff2" target="_top" xlink:title=" ">
<polygon fill="white" stroke="black" points="0,-359.5 0,-378.5 48,-378.5 48,-359.5 0,-359.5"/>
<text text-anchor="middle" x="24" y="-366.5" font-family="Helvetica,sans-Serif" font-size="10.00">test_all</text>
</a>
</g>
</g>
<!-- Node90&#45;&gt;Node91 -->
<g id="edge6" class="edge"><title>Node90&#45;&gt;Node91</title>
<path fill="none" stroke="midnightblue" d="M73.7336,-369C65.1523,-369 56.1657,-369 48.2802,-369"/>
<polygon fill="midnightblue" stroke="midnightblue" points="73.8989,-372.5 83.8989,-369 73.8988,-365.5 73.8989,-372.5"/>
</g>
<!-- Node92&#45;&gt;Node90 -->
<g id="edge8" class="edge"><title>Node92&#45;&gt;Node90</title>
<path fill="none" stroke="midnightblue" d="M181.551,-379.887C165.366,-377.407 148.34,-374.798 135.013,-372.756"/>
<polygon fill="midnightblue" stroke="midnightblue" points="181.064,-383.353 191.479,-381.408 182.124,-376.434 181.064,-383.353"/>
</g>
<!-- Node96 -->
<g id="node12" class="node"><title>Node96</title>
<g id="a_node12"><a xlink:href="test_8cpp.html#af0a9b5dc138aec33a195ffc2e375bd77" target="_top" xlink:title=" ">
<polygon fill="white" stroke="black" points="196.5,-38.5 196.5,-57.5 274.5,-57.5 274.5,-38.5 196.5,-38.5"/>
<text text-anchor="middle" x="235.5" y="-45.5" font-family="Helvetica,sans-Serif" font-size="10.00">test_api_reset</text>
</a>
</g>
</g>
<!-- Node95&#45;&gt;Node96 -->
<g id="edge12" class="edge"><title>Node95&#45;&gt;Node96</title>
<path fill="none" stroke="midnightblue" d="M339.237,-69.39C317.908,-64.9493 294.084,-59.9891 274.752,-55.9641"/>
<polygon fill="midnightblue" stroke="midnightblue" points="338.652,-72.8432 349.155,-71.455 340.079,-65.9901 338.652,-72.8432"/>
</g>
<!-- Node96&#45;&gt;Node90 -->
<g id="edge13" class="edge"><title>Node96&#45;&gt;Node90</title>
<path fill="none" stroke="midnightblue" d="M186.664,-55.9796C180.777,-58.6758 175.323,-62.2551 171,-67 130.307,-111.666 114.311,-312.835 111.121,-359.37"/>
<polygon fill="midnightblue" stroke="midnightblue" points="188.027,-59.2066 196.17,-52.4288 185.578,-52.6491 188.027,-59.2066"/>
</g>
<!-- Node97&#45;&gt;Node94 -->
<g id="edge17" class="edge"><title>Node97&#45;&gt;Node94</title>
<path fill="none" stroke="midnightblue" d="M330.911,-312.552C320.785,-311.849 310.316,-311.123 300.199,-310.421"/>
<polygon fill="midnightblue" stroke="midnightblue" points="330.678,-316.044 340.897,-313.245 331.163,-309.061 330.678,-316.044"/>
</g>
<!-- Node98 -->
<g id="node14" class="node"><title>Node98</title>
<g id="a_node14"><a xlink:href="test_8cpp.html#a8904d8f3737f8278099a0a1fcd92ea98" target="_top" xlink:title=" ">
<polygon fill="white" stroke="black" points="189.5,-340.5 189.5,-359.5 281.5,-359.5 281.5,-340.5 189.5,-340.5"/>
<text text-anchor="middle" x="235.5" y="-347.5" font-family="Helvetica,sans-Serif" font-size="10.00">test_api_program</text>
</a>
</g>
</g>
<!-- Node97&#45;&gt;Node98 -->
<g id="edge15" class="edge"><title>Node97&#45;&gt;Node98</title>
<path fill="none" stroke="midnightblue" d="M339.217,-328.614C320.383,-332.535 299.606,-336.861 281.694,-340.59"/>
<polygon fill="midnightblue" stroke="midnightblue" points="340.079,-332.01 349.155,-326.545 338.652,-325.157 340.079,-332.01"/>
</g>
<!-- Node98&#45;&gt;Node90 -->
<g id="edge16" class="edge"><title>Node98&#45;&gt;Node90</title>
<path fill="none" stroke="midnightblue" d="M179.363,-358.448C163.928,-360.813 147.919,-363.266 135.226,-365.211"/>
<polygon fill="midnightblue" stroke="midnightblue" points="180.028,-361.887 189.382,-356.913 178.968,-354.968 180.028,-361.887"/>
</g>
<!-- Node100 -->
<g id="node16" class="node"><title>Node100</title>
<g id="a_node16"><a xlink:href="test_8cpp.html#add6afb8ca9440282c398cb4bcade1bbb" target="_top" xlink:title=" ">
<polygon fill="white" stroke="black" points="190.5,-164.5 190.5,-183.5 280.5,-183.5 280.5,-164.5 190.5,-164.5"/>
<text text-anchor="middle" x="235.5" y="-171.5" font-family="Helvetica,sans-Serif" font-size="10.00">test_api_eraseall</text>
</a>
</g>
</g>
<!-- Node99&#45;&gt;Node100 -->
<g id="edge19" class="edge"><title>Node99&#45;&gt;Node100</title>
<path fill="none" stroke="midnightblue" d="M363.998,-218.365C345.577,-210.492 321.655,-200.664 300,-193 290.562,-189.66 280.205,-186.396 270.644,-183.542"/>
<polygon fill="midnightblue" stroke="midnightblue" points="362.783,-221.653 373.352,-222.396 365.554,-215.224 362.783,-221.653"/>
</g>
<!-- Node101 -->
<g id="node17" class="node"><title>Node101</title>
<g id="a_node17"><a xlink:href="test_8cpp.html#af128b0bbac49d3497f96a32b255c37de" target="_top" xlink:title=" ">
<polygon fill="white" stroke="black" points="200.5,-252.5 200.5,-271.5 270.5,-271.5 270.5,-252.5 200.5,-252.5"/>
<text text-anchor="middle" x="235.5" y="-259.5" font-family="Helvetica,sans-Serif" font-size="10.00">test_api_rbp</text>
</a>
</g>
</g>
<!-- Node99&#45;&gt;Node101 -->
<g id="edge21" class="edge"><title>Node99&#45;&gt;Node101</title>
<path fill="none" stroke="midnightblue" d="M334.328,-243.484C312.732,-247.571 289.186,-252.028 270.607,-255.544"/>
<polygon fill="midnightblue" stroke="midnightblue" points="335.239,-246.873 344.414,-241.575 333.937,-239.996 335.239,-246.873"/>
</g>
<!-- Node102 -->
<g id="node18" class="node"><title>Node102</title>
<g id="a_node18"><a xlink:href="class_main_window.html#ac05a41d9ca1bd0444e76f20eb8344ec1" target="_top" xlink:title=" ">
<polygon fill="white" stroke="black" points="171.5,-203 171.5,-233 299.5,-233 299.5,-203 171.5,-203"/>
<text text-anchor="start" x="179.5" y="-221" font-family="Helvetica,sans-Serif" font-size="10.00">MainWindow::on_eraseall</text>
<text text-anchor="middle" x="235.5" y="-210" font-family="Helvetica,sans-Serif" font-size="10.00">_clicked</text>
</a>
</g>
</g>
<!-- Node99&#45;&gt;Node102 -->
<g id="edge23" class="edge"><title>Node99&#45;&gt;Node102</title>
<path fill="none" stroke="midnightblue" d="M331.126,-226.358C320.764,-225.443 310.037,-224.495 299.691,-223.582"/>
<polygon fill="midnightblue" stroke="midnightblue" points="331.07,-229.867 341.339,-227.26 331.686,-222.894 331.07,-229.867"/>
</g>
<!-- Node100&#45;&gt;Node90 -->
<g id="edge20" class="edge"><title>Node100&#45;&gt;Node90</title>
<path fill="none" stroke="midnightblue" d="M180.896,-185.699C177.305,-187.754 173.95,-190.167 171,-193 121.597,-240.448 112.527,-330.01 110.869,-359.395"/>
<polygon fill="midnightblue" stroke="midnightblue" points="182.667,-188.734 190.211,-181.295 179.675,-182.405 182.667,-188.734"/>
</g>
<!-- Node101&#45;&gt;Node90 -->
<g id="edge22" class="edge"><title>Node101&#45;&gt;Node90</title>
<path fill="none" stroke="midnightblue" d="M190.718,-270.805C183.735,-273.386 176.883,-276.714 171,-281 142.079,-302.07 122.379,-341.387 114.434,-359.463"/>
<polygon fill="midnightblue" stroke="midnightblue" points="191.804,-274.132 200.244,-267.727 189.652,-267.471 191.804,-274.132"/>
</g>
<!-- Node103&#45;&gt;Node92 -->
<g id="edge25" class="edge"><title>Node103&#45;&gt;Node92</title>
<path fill="none" stroke="midnightblue" d="M339.136,-366.631C319.557,-370.707 297.887,-375.219 279.523,-379.043"/>
<polygon fill="midnightblue" stroke="midnightblue" points="340.079,-370.01 349.155,-364.545 338.652,-363.157 340.079,-370.01"/>
</g>
<!-- Node105 -->
<g id="node21" class="node"><title>Node105</title>
<g id="a_node21"><a xlink:href="test_8cpp.html#a7a9e477f9bbdbfc16308dc08867bcde1" target="_top" xlink:title=" ">
<polygon fill="white" stroke="black" points="192.5,-580.5 192.5,-599.5 278.5,-599.5 278.5,-580.5 192.5,-580.5"/>
<text text-anchor="middle" x="235.5" y="-587.5" font-family="Helvetica,sans-Serif" font-size="10.00">test_api_memrd</text>
</a>
</g>
</g>
<!-- Node104&#45;&gt;Node105 -->
<g id="edge27" class="edge"><title>Node104&#45;&gt;Node105</title>
<path fill="none" stroke="midnightblue" d="M332.887,-586.351C314.744,-587.038 295.343,-587.773 278.738,-588.401"/>
<polygon fill="midnightblue" stroke="midnightblue" points="333.241,-589.84 343.101,-585.965 332.976,-582.846 333.241,-589.84"/>
</g>
<!-- Node105&#45;&gt;Node90 -->
<g id="edge28" class="edge"><title>Node105&#45;&gt;Node90</title>
<path fill="none" stroke="midnightblue" d="M182.963,-579.653C178.567,-577.324 174.479,-574.478 171,-571 115.337,-515.352 110.498,-410.697 110.375,-378.602"/>
<polygon fill="midnightblue" stroke="midnightblue" points="181.759,-582.946 192.324,-583.742 184.561,-576.531 181.759,-582.946"/>
</g>
<!-- Node107 -->
<g id="node23" class="node"><title>Node107</title>
<g id="a_node23"><a xlink:href="test_8cpp.html#af80a0fd78ce59c75bd5442e7ec35efe2" target="_top" xlink:title=" ">
<polygon fill="white" stroke="black" points="187.5,-542.5 187.5,-561.5 283.5,-561.5 283.5,-542.5 187.5,-542.5"/>
<text text-anchor="middle" x="235.5" y="-549.5" font-family="Helvetica,sans-Serif" font-size="10.00">test_api_eraseuicr</text>
</a>
</g>
</g>
<!-- Node106&#45;&gt;Node107 -->
<g id="edge30" class="edge"><title>Node106&#45;&gt;Node107</title>
<path fill="none" stroke="midnightblue" d="M328.034,-542.182C313.138,-543.78 297.648,-545.442 283.739,-546.933"/>
<polygon fill="midnightblue" stroke="midnightblue" points="328.656,-545.636 338.226,-541.089 327.909,-538.676 328.656,-545.636"/>
</g>
<!-- Node107&#45;&gt;Node90 -->
<g id="edge31" class="edge"><title>Node107&#45;&gt;Node90</title>
<path fill="none" stroke="midnightblue" d="M178.443,-538.719C175.781,-537.034 173.275,-535.137 171,-533 124.546,-489.37 113.594,-406.963 111.159,-378.756"/>
<polygon fill="midnightblue" stroke="midnightblue" points="176.905,-541.864 187.387,-543.408 180.156,-535.665 176.905,-541.864"/>
</g>
<!-- Node109 -->
<g id="node25" class="node"><title>Node109</title>
<g id="a_node25"><a xlink:href="test_8cpp.html#a0c1898e417b57c0f026dca25e093e9cf" target="_top" xlink:title=" ">
<polygon fill="white" stroke="black" points="185,-504.5 185,-523.5 286,-523.5 286,-504.5 185,-504.5"/>
<text text-anchor="middle" x="235.5" y="-511.5" font-family="Helvetica,sans-Serif" font-size="10.00">test_api_erasepage</text>
</a>
</g>
</g>
<!-- Node108&#45;&gt;Node109 -->
<g id="edge33" class="edge"><title>Node108&#45;&gt;Node109</title>
<path fill="none" stroke="midnightblue" d="M346.367,-486.966C323.495,-492.594 296.602,-499.212 275.148,-504.491"/>
<polygon fill="midnightblue" stroke="midnightblue" points="347.352,-490.328 356.227,-484.54 345.68,-483.531 347.352,-490.328"/>
</g>
<!-- Node109&#45;&gt;Node90 -->
<g id="edge34" class="edge"><title>Node109&#45;&gt;Node90</title>
<path fill="none" stroke="midnightblue" d="M177.373,-499.658C175.129,-498.249 172.991,-496.7 171,-495 133.361,-462.848 117.291,-401.927 112.316,-378.504"/>
<polygon fill="midnightblue" stroke="midnightblue" points="175.983,-502.882 186.463,-504.437 179.24,-496.686 175.983,-502.882"/>
</g>
<!-- Node110&#45;&gt;Node94 -->
<g id="edge37" class="edge"><title>Node110&#45;&gt;Node94</title>
<path fill="none" stroke="midnightblue" d="M341.401,-288.13C328.188,-290.381 313.908,-292.814 300.265,-295.138"/>
<polygon fill="midnightblue" stroke="midnightblue" points="341.999,-291.579 351.27,-286.449 340.824,-284.678 341.999,-291.579"/>
</g>
<!-- Node110&#45;&gt;Node101 -->
<g id="edge36" class="edge"><title>Node110&#45;&gt;Node101</title>
<path fill="none" stroke="midnightblue" d="M341.141,-273.223C317.771,-270.717 291.107,-267.857 270.543,-265.651"/>
<polygon fill="midnightblue" stroke="midnightblue" points="340.953,-276.723 351.27,-274.31 341.7,-269.763 340.953,-276.723"/>
</g>
<!-- Node112 -->
<g id="node28" class="node"><title>Node112</title>
<g id="a_node28"><a xlink:href="test_8cpp.html#a04240439089a1462d98eb432937d6055" target="_top" xlink:title=" ">
<polygon fill="white" stroke="black" points="187.5,-76.5 187.5,-95.5 283.5,-95.5 283.5,-76.5 187.5,-76.5"/>
<text text-anchor="middle" x="235.5" y="-83.5" font-family="Helvetica,sans-Serif" font-size="10.00">test_api_readcode</text>
</a>
</g>
</g>
<!-- Node111&#45;&gt;Node112 -->
<g id="edge39" class="edge"><title>Node111&#45;&gt;Node112</title>
<path fill="none" stroke="midnightblue" d="M350.88,-117.752C325.576,-110.728 294.28,-102.04 270.825,-95.5287"/>
<polygon fill="midnightblue" stroke="midnightblue" points="350.036,-121.15 360.608,-120.453 351.908,-114.405 350.036,-121.15"/>
</g>
<!-- Node113 -->
<g id="node29" class="node"><title>Node113</title>
<g id="a_node29"><a xlink:href="class_main_window.html#aad95dca8f8468f93fe661f04e42221ef" target="_top" xlink:title=" ">
<polygon fill="white" stroke="black" points="175,-115 175,-145 296,-145 296,-115 175,-115"/>
<text text-anchor="start" x="183" y="-133" font-family="Helvetica,sans-Serif" font-size="10.00">MainWindow::on_button</text>
<text text-anchor="middle" x="235.5" y="-122" font-family="Helvetica,sans-Serif" font-size="10.00">_readback_clicked</text>
</a>
</g>
</g>
<!-- Node111&#45;&gt;Node113 -->
<g id="edge41" class="edge"><title>Node111&#45;&gt;Node113</title>
<path fill="none" stroke="midnightblue" d="M328.141,-130C317.498,-130 306.549,-130 296.089,-130"/>
<polygon fill="midnightblue" stroke="midnightblue" points="328.226,-133.5 338.226,-130 328.226,-126.5 328.226,-133.5"/>
</g>
<!-- Node112&#45;&gt;Node90 -->
<g id="edge40" class="edge"><title>Node112&#45;&gt;Node90</title>
<path fill="none" stroke="midnightblue" d="M178.641,-98.5786C175.86,-100.437 173.281,-102.564 171,-105 134.999,-143.438 115.68,-316.734 111.412,-359.458"/>
<polygon fill="midnightblue" stroke="midnightblue" points="180.371,-101.622 187.489,-93.774 177.031,-95.4701 180.371,-101.622"/>
</g>
<!-- Node115 -->
<g id="node31" class="node"><title>Node115</title>
<g id="a_node31"><a xlink:href="class_a_p_i.html#ac380e23851f2ff26a421d0718f494945" target="_top" xlink:title="API::API API 构造函数">
<polygon fill="white" stroke="black" points="208.5,-0.5 208.5,-19.5 262.5,-19.5 262.5,-0.5 208.5,-0.5"/>
<text text-anchor="middle" x="235.5" y="-7.5" font-family="Helvetica,sans-Serif" font-size="10.00">API::API</text>
</a>
</g>
</g>
<!-- Node114&#45;&gt;Node115 -->
<g id="edge43" class="edge"><title>Node114&#45;&gt;Node115</title>
<path fill="none" stroke="midnightblue" d="M339.069,-17.1183C313.183,-15.3219 283.654,-13.2725 262.948,-11.8355"/>
<polygon fill="midnightblue" stroke="midnightblue" points="338.937,-20.6175 349.155,-17.8183 339.422,-13.6343 338.937,-20.6175"/>
</g>
</g>
</svg>
