<?xml version="1.0" encoding="UTF-8" standalone="no"?>
<!DOCTYPE svg PUBLIC "-//W3C//DTD SVG 1.1//EN"
 "http://www.w3.org/Graphics/SVG/1.1/DTD/svg11.dtd">
<!-- Generated by graphviz version 2.38.0 (20140413.2041)
 -->
<!-- Title: API::nrfjprog_set_path Pages: 1 -->
<svg width="417pt" height="28pt"
 viewBox="0.00 0.00 417.00 28.00" xmlns="http://www.w3.org/2000/svg" xmlns:xlink="http://www.w3.org/1999/xlink">
<g id="graph0" class="graph" transform="scale(1 1) rotate(0) translate(4 24)">
<title>API::nrfjprog_set_path</title>
<polygon fill="white" stroke="none" points="-4,4 -4,-24 413,-24 413,4 -4,4"/>
<!-- Node223 -->
<g id="node1" class="node"><title>Node223</title>
<g id="a_node1"><a xlink:title="API::nrfjprog_set_path 设置 nrfjprog 程序的绝对路径">
<polygon fill="#bfbfbf" stroke="black" points="296,-0.5 296,-19.5 409,-19.5 409,-0.5 296,-0.5"/>
<text text-anchor="middle" x="352.5" y="-7.5" font-family="Helvetica,sans-Serif" font-size="10.00">API::nrfjprog_set_path</text>
</a>
</g>
</g>
<!-- Node224 -->
<g id="node2" class="node"><title>Node224</title>
<g id="a_node2"><a xlink:href="test_8cpp.html#a2b09b7ed15a0fee38247fdefc25040f6" target="_top" xlink:title=" ">
<polygon fill="white" stroke="black" points="171,-0.5 171,-19.5 260,-19.5 260,-0.5 171,-0.5"/>
<text text-anchor="middle" x="215.5" y="-7.5" font-family="Helvetica,sans-Serif" font-size="10.00">test_api_setpath</text>
</a>
</g>
</g>
<!-- Node223&#45;&gt;Node224 -->
<g id="edge1" class="edge"><title>Node223&#45;&gt;Node224</title>
<path fill="none" stroke="midnightblue" d="M285.675,-10C276.997,-10 268.281,-10 260.103,-10"/>
<polygon fill="midnightblue" stroke="midnightblue" points="285.811,-13.5001 295.811,-10 285.811,-6.5001 285.811,-13.5001"/>
</g>
<!-- Node225 -->
<g id="node3" class="node"><title>Node225</title>
<g id="a_node3"><a xlink:href="test_8cpp.html#a8b3ca02f2a8358f236669e91baf3b408" target="_top" xlink:title=" ">
<polygon fill="white" stroke="black" points="84,-0.5 84,-19.5 135,-19.5 135,-0.5 84,-0.5"/>
<text text-anchor="middle" x="109.5" y="-7.5" font-family="Helvetica,sans-Serif" font-size="10.00">test_api</text>
</a>
</g>
</g>
<!-- Node224&#45;&gt;Node225 -->
<g id="edge2" class="edge"><title>Node224&#45;&gt;Node225</title>
<path fill="none" stroke="midnightblue" d="M160.865,-10C151.864,-10 142.928,-10 135.138,-10"/>
<polygon fill="midnightblue" stroke="midnightblue" points="160.997,-13.5001 170.997,-10 160.997,-6.5001 160.997,-13.5001"/>
</g>
<!-- Node226 -->
<g id="node4" class="node"><title>Node226</title>
<g id="a_node4"><a xlink:href="test_8h.html#add1fe75ad79de762a3906b6d41897ff2" target="_top" xlink:title=" ">
<polygon fill="white" stroke="black" points="0,-0.5 0,-19.5 48,-19.5 48,-0.5 0,-0.5"/>
<text text-anchor="middle" x="24" y="-7.5" font-family="Helvetica,sans-Serif" font-size="10.00">test_all</text>
</a>
</g>
</g>
<!-- Node225&#45;&gt;Node226 -->
<g id="edge3" class="edge"><title>Node225&#45;&gt;Node226</title>
<path fill="none" stroke="midnightblue" d="M73.7336,-10C65.1523,-10 56.1657,-10 48.2802,-10"/>
<polygon fill="midnightblue" stroke="midnightblue" points="73.8989,-13.5001 83.8989,-10 73.8988,-6.5001 73.8989,-13.5001"/>
</g>
</g>
</svg>
