<?xml version="1.0" encoding="UTF-8" standalone="no"?>
<!DOCTYPE svg PUBLIC "-//W3C//DTD SVG 1.1//EN"
 "http://www.w3.org/Graphics/SVG/1.1/DTD/svg11.dtd">
<!-- Generated by graphviz version 2.38.0 (20140413.2041)
 -->
<!-- Title: API::nrfjprog_reset Pages: 1 -->
<svg width="393pt" height="104pt"
 viewBox="0.00 0.00 393.00 104.00" xmlns="http://www.w3.org/2000/svg" xmlns:xlink="http://www.w3.org/1999/xlink">
<g id="graph0" class="graph" transform="scale(1 1) rotate(0) translate(4 100)">
<title>API::nrfjprog_reset</title>
<polygon fill="white" stroke="none" points="-4,4 -4,-100 389,-100 389,4 -4,4"/>
<!-- Node213 -->
<g id="node1" class="node"><title>Node213</title>
<g id="a_node1"><a xlink:title="API::nrfjprog_reset Performs a soft reset by setting the SysResetReq bit of the AIRCR register of the...">
<polygon fill="#bfbfbf" stroke="black" points="0,-38.5 0,-57.5 97,-57.5 97,-38.5 0,-38.5"/>
<text text-anchor="middle" x="48.5" y="-45.5" font-family="Helvetica,sans-Serif" font-size="10.00">API::nrfjprog_reset</text>
</a>
</g>
</g>
<!-- Node214 -->
<g id="node2" class="node"><title>Node214</title>
<g id="a_node2"><a xlink:href="class_a_p_i.html#aa3a31dc3d94f4a7dbe30b578e946e063" target="_top" xlink:title="API::run_command 创建新进程 执行 程序">
<polygon fill="white" stroke="black" points="133,-38.5 133,-57.5 233,-57.5 233,-38.5 133,-38.5"/>
<text text-anchor="middle" x="183" y="-45.5" font-family="Helvetica,sans-Serif" font-size="10.00">API::run_command</text>
</a>
</g>
</g>
<!-- Node213&#45;&gt;Node214 -->
<g id="edge1" class="edge"><title>Node213&#45;&gt;Node214</title>
<path fill="none" stroke="midnightblue" d="M97.3355,-48C105.557,-48 114.189,-48 122.668,-48"/>
<polygon fill="midnightblue" stroke="midnightblue" points="122.897,-51.5001 132.897,-48 122.897,-44.5001 122.897,-51.5001"/>
</g>
<!-- Node215 -->
<g id="node3" class="node"><title>Node215</title>
<g id="a_node3"><a xlink:href="class_a_p_i.html#a27bbd79867ef0c01c9e29b6ebb293014" target="_top" xlink:title=" ">
<polygon fill="white" stroke="black" points="271.5,-76.5 271.5,-95.5 382.5,-95.5 382.5,-76.5 271.5,-76.5"/>
<text text-anchor="middle" x="327" y="-83.5" font-family="Helvetica,sans-Serif" font-size="10.00">API::update_info_logs</text>
</a>
</g>
</g>
<!-- Node214&#45;&gt;Node215 -->
<g id="edge2" class="edge"><title>Node214&#45;&gt;Node215</title>
<path fill="none" stroke="midnightblue" d="M219.833,-57.589C238.163,-62.4944 260.678,-68.5196 280.25,-73.7571"/>
<polygon fill="midnightblue" stroke="midnightblue" points="279.614,-77.2099 290.179,-76.4141 281.424,-70.4479 279.614,-77.2099"/>
</g>
<!-- Node216 -->
<g id="node4" class="node"><title>Node216</title>
<g id="a_node4"><a xlink:href="class_a_p_i.html#a70b16d0066d38fca6d5cb3ad74ff4e11" target="_top" xlink:title=" ">
<polygon fill="white" stroke="black" points="269,-38.5 269,-57.5 385,-57.5 385,-38.5 269,-38.5"/>
<text text-anchor="middle" x="327" y="-45.5" font-family="Helvetica,sans-Serif" font-size="10.00">API::update_error_logs</text>
</a>
</g>
</g>
<!-- Node214&#45;&gt;Node216 -->
<g id="edge3" class="edge"><title>Node214&#45;&gt;Node216</title>
<path fill="none" stroke="midnightblue" d="M233.266,-48C241.353,-48 249.856,-48 258.297,-48"/>
<polygon fill="midnightblue" stroke="midnightblue" points="258.529,-51.5001 268.529,-48 258.529,-44.5001 258.529,-51.5001"/>
</g>
<!-- Node217 -->
<g id="node5" class="node"><title>Node217</title>
<g id="a_node5"><a xlink:href="class_a_p_i.html#a474699b50370b27d57863f894c38ce56" target="_top" xlink:title="API::handle_error 处理 nrfjprog 运行的错误">
<polygon fill="white" stroke="black" points="281,-0.5 281,-19.5 373,-19.5 373,-0.5 281,-0.5"/>
<text text-anchor="middle" x="327" y="-7.5" font-family="Helvetica,sans-Serif" font-size="10.00">API::handle_error</text>
</a>
</g>
</g>
<!-- Node214&#45;&gt;Node217 -->
<g id="edge4" class="edge"><title>Node214&#45;&gt;Node217</title>
<path fill="none" stroke="midnightblue" d="M219.833,-38.411C238.163,-33.5056 260.678,-27.4804 280.25,-22.2429"/>
<polygon fill="midnightblue" stroke="midnightblue" points="281.424,-25.5521 290.179,-19.5859 279.614,-18.7901 281.424,-25.5521"/>
</g>
</g>
</svg>
