<?xml version="1.0" encoding="UTF-8" standalone="no"?>
<!DOCTYPE svg PUBLIC "-//W3C//DTD SVG 1.1//EN"
 "http://www.w3.org/Graphics/SVG/1.1/DTD/svg11.dtd">
<!-- Generated by graphviz version 2.38.0 (20140413.2041)
 -->
<!-- Title: main Pages: 1 -->
<svg width="798pt" height="446pt"
 viewBox="0.00 0.00 798.00 446.00" xmlns="http://www.w3.org/2000/svg" xmlns:xlink="http://www.w3.org/1999/xlink">
<g id="graph0" class="graph" transform="scale(1 1) rotate(0) translate(4 442)">
<title>main</title>
<polygon fill="white" stroke="none" points="-4,4 -4,-442 794,-442 794,4 -4,4"/>
<!-- Node0 -->
<g id="node1" class="node"><title>Node0</title>
<g id="a_node1"><a xlink:title=" ">
<polygon fill="#bfbfbf" stroke="black" points="0,-209.5 0,-228.5 38,-228.5 38,-209.5 0,-209.5"/>
<text text-anchor="middle" x="19" y="-216.5" font-family="Helvetica,sans-Serif" font-size="10.00">main</text>
</a>
</g>
</g>
<!-- Node1 -->
<g id="node2" class="node"><title>Node1</title>
<g id="a_node2"><a xlink:href="test_8cpp.html#add1fe75ad79de762a3906b6d41897ff2" target="_top" xlink:title=" ">
<polygon fill="white" stroke="black" points="74,-209.5 74,-228.5 122,-228.5 122,-209.5 74,-209.5"/>
<text text-anchor="middle" x="98" y="-216.5" font-family="Helvetica,sans-Serif" font-size="10.00">test_all</text>
</a>
</g>
</g>
<!-- Node0&#45;&gt;Node1 -->
<g id="edge1" class="edge"><title>Node0&#45;&gt;Node1</title>
<path fill="none" stroke="midnightblue" d="M38.2479,-219C45.9194,-219 55.0907,-219 63.8803,-219"/>
<polygon fill="midnightblue" stroke="midnightblue" points="63.9105,-222.5 73.9105,-219 63.9105,-215.5 63.9105,-222.5"/>
</g>
<!-- Node2 -->
<g id="node3" class="node"><title>Node2</title>
<g id="a_node3"><a xlink:href="test_8cpp.html#a8b3ca02f2a8358f236669e91baf3b408" target="_top" xlink:title=" ">
<polygon fill="white" stroke="black" points="158,-209.5 158,-228.5 209,-228.5 209,-209.5 158,-209.5"/>
<text text-anchor="middle" x="183.5" y="-216.5" font-family="Helvetica,sans-Serif" font-size="10.00">test_api</text>
</a>
</g>
</g>
<!-- Node1&#45;&gt;Node2 -->
<g id="edge2" class="edge"><title>Node1&#45;&gt;Node2</title>
<path fill="none" stroke="midnightblue" d="M122.259,-219C130.15,-219 139.145,-219 147.734,-219"/>
<polygon fill="midnightblue" stroke="midnightblue" points="147.908,-222.5 157.908,-219 147.908,-215.5 147.908,-222.5"/>
</g>
<!-- Node3 -->
<g id="node4" class="node"><title>Node3</title>
<g id="a_node4"><a xlink:href="test_8cpp.html#a2b09b7ed15a0fee38247fdefc25040f6" target="_top" xlink:title=" ">
<polygon fill="white" stroke="black" points="251,-418.5 251,-437.5 340,-437.5 340,-418.5 251,-418.5"/>
<text text-anchor="middle" x="295.5" y="-425.5" font-family="Helvetica,sans-Serif" font-size="10.00">test_api_setpath</text>
</a>
</g>
</g>
<!-- Node2&#45;&gt;Node3 -->
<g id="edge3" class="edge"><title>Node2&#45;&gt;Node3</title>
<path fill="none" stroke="midnightblue" d="M184.765,-228.741C186.119,-259.45 194.4,-355.365 245,-409 246.374,-410.456 247.872,-411.802 249.462,-413.046"/>
<polygon fill="midnightblue" stroke="midnightblue" points="247.719,-416.085 258.046,-418.453 251.45,-410.162 247.719,-416.085"/>
</g>
<!-- Node7 -->
<g id="node8" class="node"><title>Node7</title>
<g id="a_node8"><a xlink:href="test_8cpp.html#a5b0f2b6e3b1b049cde480f6bd592e07c" target="_top" xlink:title=" ">
<polygon fill="white" stroke="black" points="252,-304.5 252,-323.5 339,-323.5 339,-304.5 252,-304.5"/>
<text text-anchor="middle" x="295.5" y="-311.5" font-family="Helvetica,sans-Serif" font-size="10.00">test_api_recover</text>
</a>
</g>
</g>
<!-- Node2&#45;&gt;Node7 -->
<g id="edge7" class="edge"><title>Node2&#45;&gt;Node7</title>
<path fill="none" stroke="midnightblue" d="M189.773,-228.524C199.006,-244.398 219.564,-276.357 245,-295 247.481,-296.819 250.159,-298.486 252.938,-300.011"/>
<polygon fill="midnightblue" stroke="midnightblue" points="251.523,-303.214 262.05,-304.407 254.564,-296.91 251.523,-303.214"/>
</g>
<!-- Node12 -->
<g id="node13" class="node"><title>Node12</title>
<g id="a_node13"><a xlink:href="test_8cpp.html#af0a9b5dc138aec33a195ffc2e375bd77" target="_top" xlink:title=" ">
<polygon fill="white" stroke="black" points="256.5,-228.5 256.5,-247.5 334.5,-247.5 334.5,-228.5 256.5,-228.5"/>
<text text-anchor="middle" x="295.5" y="-235.5" font-family="Helvetica,sans-Serif" font-size="10.00">test_api_reset</text>
</a>
</g>
</g>
<!-- Node2&#45;&gt;Node12 -->
<g id="edge13" class="edge"><title>Node2&#45;&gt;Node12</title>
<path fill="none" stroke="midnightblue" d="M209.186,-223.264C220.082,-225.146 233.286,-227.427 246.018,-229.626"/>
<polygon fill="midnightblue" stroke="midnightblue" points="245.625,-233.11 256.074,-231.363 246.816,-226.212 245.625,-233.11"/>
</g>
<!-- Node14 -->
<g id="node15" class="node"><title>Node14</title>
<g id="a_node15"><a xlink:href="test_8cpp.html#a41f19b35782910c27489ded5c8ac74dd" target="_top" xlink:title=" ">
<polygon fill="white" stroke="black" points="251.5,-266.5 251.5,-285.5 339.5,-285.5 339.5,-266.5 251.5,-266.5"/>
<text text-anchor="middle" x="295.5" y="-273.5" font-family="Helvetica,sans-Serif" font-size="10.00">test_api_memwr</text>
</a>
</g>
</g>
<!-- Node2&#45;&gt;Node14 -->
<g id="edge16" class="edge"><title>Node2&#45;&gt;Node14</title>
<path fill="none" stroke="midnightblue" d="M197.993,-228.544C209.97,-236.753 228.137,-248.568 245,-257 248.998,-258.999 253.261,-260.924 257.544,-262.73"/>
<polygon fill="midnightblue" stroke="midnightblue" points="256.273,-265.991 266.857,-266.478 258.886,-259.497 256.273,-265.991"/>
</g>
<!-- Node16 -->
<g id="node17" class="node"><title>Node16</title>
<g id="a_node17"><a xlink:href="test_8cpp.html#a7a9e477f9bbdbfc16308dc08867bcde1" target="_top" xlink:title=" ">
<polygon fill="white" stroke="black" points="252.5,-190.5 252.5,-209.5 338.5,-209.5 338.5,-190.5 252.5,-190.5"/>
<text text-anchor="middle" x="295.5" y="-197.5" font-family="Helvetica,sans-Serif" font-size="10.00">test_api_memrd</text>
</a>
</g>
</g>
<!-- Node2&#45;&gt;Node16 -->
<g id="edge20" class="edge"><title>Node2&#45;&gt;Node16</title>
<path fill="none" stroke="midnightblue" d="M209.186,-214.736C218.985,-213.044 230.65,-211.029 242.159,-209.041"/>
<polygon fill="midnightblue" stroke="midnightblue" points="242.924,-212.46 252.183,-207.309 241.733,-205.563 242.924,-212.46"/>
</g>
<!-- Node18 -->
<g id="node19" class="node"><title>Node18</title>
<g id="a_node19"><a xlink:href="test_8cpp.html#af80a0fd78ce59c75bd5442e7ec35efe2" target="_top" xlink:title=" ">
<polygon fill="white" stroke="black" points="247.5,-76.5 247.5,-95.5 343.5,-95.5 343.5,-76.5 247.5,-76.5"/>
<text text-anchor="middle" x="295.5" y="-83.5" font-family="Helvetica,sans-Serif" font-size="10.00">test_api_eraseuicr</text>
</a>
</g>
</g>
<!-- Node2&#45;&gt;Node18 -->
<g id="edge23" class="edge"><title>Node2&#45;&gt;Node18</title>
<path fill="none" stroke="midnightblue" d="M187.102,-209.286C193.395,-187.577 211.449,-134.706 245,-105 246.9,-103.318 248.964,-101.778 251.136,-100.369"/>
<polygon fill="midnightblue" stroke="midnightblue" points="252.83,-103.431 259.921,-95.5593 249.469,-97.2912 252.83,-103.431"/>
</g>
<!-- Node20 -->
<g id="node21" class="node"><title>Node20</title>
<g id="a_node21"><a xlink:href="test_8cpp.html#a0c1898e417b57c0f026dca25e093e9cf" target="_top" xlink:title=" ">
<polygon fill="white" stroke="black" points="245,-38.5 245,-57.5 346,-57.5 346,-38.5 245,-38.5"/>
<text text-anchor="middle" x="295.5" y="-45.5" font-family="Helvetica,sans-Serif" font-size="10.00">test_api_erasepage</text>
</a>
</g>
</g>
<!-- Node2&#45;&gt;Node20 -->
<g id="edge26" class="edge"><title>Node2&#45;&gt;Node20</title>
<path fill="none" stroke="midnightblue" d="M185.65,-209.351C189.299,-182.912 202.97,-108.516 245,-67 246.596,-65.4232 248.337,-63.9745 250.181,-62.6436"/>
<polygon fill="midnightblue" stroke="midnightblue" points="251.98,-65.6464 258.793,-57.5327 248.407,-59.6267 251.98,-65.6464"/>
</g>
<!-- Node22 -->
<g id="node23" class="node"><title>Node22</title>
<g id="a_node23"><a xlink:href="test_8cpp.html#add6afb8ca9440282c398cb4bcade1bbb" target="_top" xlink:title=" ">
<polygon fill="white" stroke="black" points="250.5,-114.5 250.5,-133.5 340.5,-133.5 340.5,-114.5 250.5,-114.5"/>
<text text-anchor="middle" x="295.5" y="-121.5" font-family="Helvetica,sans-Serif" font-size="10.00">test_api_eraseall</text>
</a>
</g>
</g>
<!-- Node2&#45;&gt;Node22 -->
<g id="edge29" class="edge"><title>Node2&#45;&gt;Node22</title>
<path fill="none" stroke="midnightblue" d="M189.773,-209.476C199.006,-193.602 219.564,-161.643 245,-143 247.481,-141.181 250.159,-139.514 252.938,-137.989"/>
<polygon fill="midnightblue" stroke="midnightblue" points="254.564,-141.09 262.05,-133.593 251.523,-134.786 254.564,-141.09"/>
</g>
<!-- Node24 -->
<g id="node25" class="node"><title>Node24</title>
<g id="a_node25"><a xlink:href="test_8cpp.html#a8904d8f3737f8278099a0a1fcd92ea98" target="_top" xlink:title=" ">
<polygon fill="white" stroke="black" points="249.5,-0.5 249.5,-19.5 341.5,-19.5 341.5,-0.5 249.5,-0.5"/>
<text text-anchor="middle" x="295.5" y="-7.5" font-family="Helvetica,sans-Serif" font-size="10.00">test_api_program</text>
</a>
</g>
</g>
<!-- Node2&#45;&gt;Node24 -->
<g id="edge32" class="edge"><title>Node2&#45;&gt;Node24</title>
<path fill="none" stroke="midnightblue" d="M184.765,-209.259C186.119,-178.55 194.4,-82.6351 245,-29 246.374,-27.5437 247.872,-26.1977 249.462,-24.9538"/>
<polygon fill="midnightblue" stroke="midnightblue" points="251.45,-27.838 258.046,-19.5467 247.719,-21.9151 251.45,-27.838"/>
</g>
<!-- Node26 -->
<g id="node27" class="node"><title>Node26</title>
<g id="a_node27"><a xlink:href="test_8cpp.html#a04240439089a1462d98eb432937d6055" target="_top" xlink:title=" ">
<polygon fill="white" stroke="black" points="247.5,-342.5 247.5,-361.5 343.5,-361.5 343.5,-342.5 247.5,-342.5"/>
<text text-anchor="middle" x="295.5" y="-349.5" font-family="Helvetica,sans-Serif" font-size="10.00">test_api_readcode</text>
</a>
</g>
</g>
<!-- Node2&#45;&gt;Node26 -->
<g id="edge35" class="edge"><title>Node2&#45;&gt;Node26</title>
<path fill="none" stroke="midnightblue" d="M187.102,-228.714C193.395,-250.423 211.449,-303.294 245,-333 246.9,-334.682 248.964,-336.222 251.136,-337.631"/>
<polygon fill="midnightblue" stroke="midnightblue" points="249.469,-340.709 259.921,-342.441 252.83,-334.569 249.469,-340.709"/>
</g>
<!-- Node28 -->
<g id="node29" class="node"><title>Node28</title>
<g id="a_node29"><a xlink:href="test_8cpp.html#af128b0bbac49d3497f96a32b255c37de" target="_top" xlink:title=" ">
<polygon fill="white" stroke="black" points="260.5,-152.5 260.5,-171.5 330.5,-171.5 330.5,-152.5 260.5,-152.5"/>
<text text-anchor="middle" x="295.5" y="-159.5" font-family="Helvetica,sans-Serif" font-size="10.00">test_api_rbp</text>
</a>
</g>
</g>
<!-- Node2&#45;&gt;Node28 -->
<g id="edge38" class="edge"><title>Node2&#45;&gt;Node28</title>
<path fill="none" stroke="midnightblue" d="M197.993,-209.456C209.97,-201.247 228.137,-189.432 245,-181 248.998,-179.001 253.261,-177.076 257.544,-175.27"/>
<polygon fill="midnightblue" stroke="midnightblue" points="258.886,-178.503 266.857,-171.522 256.273,-172.009 258.886,-178.503"/>
</g>
<!-- Node30 -->
<g id="node31" class="node"><title>Node30</title>
<g id="a_node31"><a xlink:href="test_8cpp.html#a28de4fed07ce85c942b33e55993cf17b" target="_top" xlink:title=" ">
<polygon fill="white" stroke="black" points="261,-380.5 261,-399.5 330,-399.5 330,-380.5 261,-380.5"/>
<text text-anchor="middle" x="295.5" y="-387.5" font-family="Helvetica,sans-Serif" font-size="10.00">test_api_ids</text>
</a>
</g>
</g>
<!-- Node2&#45;&gt;Node30 -->
<g id="edge42" class="edge"><title>Node2&#45;&gt;Node30</title>
<path fill="none" stroke="midnightblue" d="M185.65,-228.649C189.299,-255.088 202.97,-329.484 245,-371 247.087,-373.062 249.423,-374.905 251.911,-376.552"/>
<polygon fill="midnightblue" stroke="midnightblue" points="250.374,-379.7 260.827,-381.426 253.732,-373.558 250.374,-379.7"/>
</g>
<!-- Node4 -->
<g id="node5" class="node"><title>Node4</title>
<g id="a_node5"><a xlink:href="class_a_p_i.html#aac907535efdc3c2b4bb1102d366b2ea1" target="_top" xlink:title="API::nrfjprog_set_path 设置 nrfjprog 程序的绝对路径">
<polygon fill="white" stroke="black" points="385.5,-418.5 385.5,-437.5 498.5,-437.5 498.5,-418.5 385.5,-418.5"/>
<text text-anchor="middle" x="442" y="-425.5" font-family="Helvetica,sans-Serif" font-size="10.00">API::nrfjprog_set_path</text>
</a>
</g>
</g>
<!-- Node3&#45;&gt;Node4 -->
<g id="edge4" class="edge"><title>Node3&#45;&gt;Node4</title>
<path fill="none" stroke="midnightblue" d="M340.247,-428C351.233,-428 363.266,-428 375.073,-428"/>
<polygon fill="midnightblue" stroke="midnightblue" points="375.358,-431.5 385.358,-428 375.358,-424.5 375.358,-431.5"/>
</g>
<!-- Node5 -->
<g id="node6" class="node"><title>Node5</title>
<g id="a_node6"><a xlink:href="class_a_p_i.html#ad239d64fde9bf9ccf9ed3307ac0712f0" target="_top" xlink:title="API::nrfjprog_ids Displays the serial numbers of all the debuggers connected to the computer.">
<polygon fill="white" stroke="black" points="398,-380.5 398,-399.5 486,-399.5 486,-380.5 398,-380.5"/>
<text text-anchor="middle" x="442" y="-387.5" font-family="Helvetica,sans-Serif" font-size="10.00">API::nrfjprog_ids</text>
</a>
</g>
</g>
<!-- Node3&#45;&gt;Node5 -->
<g id="edge5" class="edge"><title>Node3&#45;&gt;Node5</title>
<path fill="none" stroke="midnightblue" d="M332.963,-418.411C351.774,-413.464 374.915,-407.379 394.947,-402.111"/>
<polygon fill="midnightblue" stroke="midnightblue" points="396.018,-405.448 404.799,-399.52 394.237,-398.678 396.018,-405.448"/>
</g>
<!-- Node6 -->
<g id="node7" class="node"><title>Node6</title>
<g id="a_node7"><a xlink:href="class_a_p_i.html#a474699b50370b27d57863f894c38ce56" target="_top" xlink:title="API::handle_error 处理 nrfjprog 运行的错误">
<polygon fill="white" stroke="black" points="686,-285.5 686,-304.5 778,-304.5 778,-285.5 686,-285.5"/>
<text text-anchor="middle" x="732" y="-292.5" font-family="Helvetica,sans-Serif" font-size="10.00">API::handle_error</text>
</a>
</g>
</g>
<!-- Node5&#45;&gt;Node6 -->
<g id="edge6" class="edge"><title>Node5&#45;&gt;Node6</title>
<path fill="none" stroke="midnightblue" d="M472.729,-380.483C482.1,-377.468 492.488,-374.11 502,-371 569.184,-349.034 647.292,-323.007 692.735,-307.815"/>
<polygon fill="midnightblue" stroke="midnightblue" points="694.093,-311.051 702.466,-304.56 691.872,-304.413 694.093,-311.051"/>
</g>
<!-- Node8 -->
<g id="node9" class="node"><title>Node8</title>
<g id="a_node9"><a xlink:href="class_a_p_i.html#abf47651c6b917b2b48dcc01bdab289b9" target="_top" xlink:title="API::nrfjprog_recover Erases all user flash memory and disables the readback protection mechanism if ...">
<polygon fill="white" stroke="black" points="389,-304.5 389,-323.5 495,-323.5 495,-304.5 389,-304.5"/>
<text text-anchor="middle" x="442" y="-311.5" font-family="Helvetica,sans-Serif" font-size="10.00">API::nrfjprog_recover</text>
</a>
</g>
</g>
<!-- Node7&#45;&gt;Node8 -->
<g id="edge8" class="edge"><title>Node7&#45;&gt;Node8</title>
<path fill="none" stroke="midnightblue" d="M339.073,-314C351.479,-314 365.297,-314 378.655,-314"/>
<polygon fill="midnightblue" stroke="midnightblue" points="378.749,-317.5 388.749,-314 378.749,-310.5 378.749,-317.5"/>
</g>
<!-- Node9 -->
<g id="node10" class="node"><title>Node9</title>
<g id="a_node10"><a xlink:href="class_a_p_i.html#aa3a31dc3d94f4a7dbe30b578e946e063" target="_top" xlink:title="API::run_command 创建新进程 执行 程序">
<polygon fill="white" stroke="black" points="538,-190.5 538,-209.5 638,-209.5 638,-190.5 538,-190.5"/>
<text text-anchor="middle" x="588" y="-197.5" font-family="Helvetica,sans-Serif" font-size="10.00">API::run_command</text>
</a>
</g>
</g>
<!-- Node8&#45;&gt;Node9 -->
<g id="edge9" class="edge"><title>Node8&#45;&gt;Node9</title>
<path fill="none" stroke="midnightblue" d="M482.726,-304.417C489.444,-301.912 496.135,-298.811 502,-295 533.523,-274.517 560.636,-239.391 575.313,-218.071"/>
<polygon fill="midnightblue" stroke="midnightblue" points="578.326,-219.862 580.985,-209.606 572.511,-215.965 578.326,-219.862"/>
</g>
<!-- Node9&#45;&gt;Node6 -->
<g id="edge12" class="edge"><title>Node9&#45;&gt;Node6</title>
<path fill="none" stroke="midnightblue" d="M603.397,-209.632C628.062,-226.133 678.588,-259.936 708.124,-279.696"/>
<polygon fill="midnightblue" stroke="midnightblue" points="706.307,-282.691 716.565,-285.343 710.199,-276.873 706.307,-282.691"/>
</g>
<!-- Node10 -->
<g id="node11" class="node"><title>Node10</title>
<g id="a_node11"><a xlink:href="class_a_p_i.html#a27bbd79867ef0c01c9e29b6ebb293014" target="_top" xlink:title=" ">
<polygon fill="white" stroke="black" points="676.5,-171.5 676.5,-190.5 787.5,-190.5 787.5,-171.5 676.5,-171.5"/>
<text text-anchor="middle" x="732" y="-178.5" font-family="Helvetica,sans-Serif" font-size="10.00">API::update_info_logs</text>
</a>
</g>
</g>
<!-- Node9&#45;&gt;Node10 -->
<g id="edge10" class="edge"><title>Node9&#45;&gt;Node10</title>
<path fill="none" stroke="midnightblue" d="M638.266,-193.408C647.325,-192.196 656.907,-190.914 666.338,-189.652"/>
<polygon fill="midnightblue" stroke="midnightblue" points="667.034,-193.09 676.481,-188.295 666.106,-186.152 667.034,-193.09"/>
</g>
<!-- Node11 -->
<g id="node12" class="node"><title>Node11</title>
<g id="a_node12"><a xlink:href="class_a_p_i.html#a70b16d0066d38fca6d5cb3ad74ff4e11" target="_top" xlink:title=" ">
<polygon fill="white" stroke="black" points="674,-209.5 674,-228.5 790,-228.5 790,-209.5 674,-209.5"/>
<text text-anchor="middle" x="732" y="-216.5" font-family="Helvetica,sans-Serif" font-size="10.00">API::update_error_logs</text>
</a>
</g>
</g>
<!-- Node9&#45;&gt;Node11 -->
<g id="edge11" class="edge"><title>Node9&#45;&gt;Node11</title>
<path fill="none" stroke="midnightblue" d="M638.266,-206.592C646.442,-207.686 655.043,-208.837 663.575,-209.978"/>
<polygon fill="midnightblue" stroke="midnightblue" points="663.154,-213.453 673.529,-211.31 664.082,-206.515 663.154,-213.453"/>
</g>
<!-- Node13 -->
<g id="node14" class="node"><title>Node13</title>
<g id="a_node14"><a xlink:href="class_a_p_i.html#a767c12af1e9952f18593f319e8aad691" target="_top" xlink:title="API::nrfjprog_reset Performs a soft reset by setting the SysResetReq bit of the AIRCR register of the...">
<polygon fill="white" stroke="black" points="393.5,-228.5 393.5,-247.5 490.5,-247.5 490.5,-228.5 393.5,-228.5"/>
<text text-anchor="middle" x="442" y="-235.5" font-family="Helvetica,sans-Serif" font-size="10.00">API::nrfjprog_reset</text>
</a>
</g>
</g>
<!-- Node12&#45;&gt;Node13 -->
<g id="edge14" class="edge"><title>Node12&#45;&gt;Node13</title>
<path fill="none" stroke="midnightblue" d="M334.844,-238C349.59,-238 366.773,-238 382.965,-238"/>
<polygon fill="midnightblue" stroke="midnightblue" points="383.427,-241.5 393.426,-238 383.426,-234.5 383.427,-241.5"/>
</g>
<!-- Node13&#45;&gt;Node9 -->
<g id="edge15" class="edge"><title>Node13&#45;&gt;Node9</title>
<path fill="none" stroke="midnightblue" d="M479.337,-228.411C498.083,-223.464 521.143,-217.379 541.107,-212.111"/>
<polygon fill="midnightblue" stroke="midnightblue" points="542.148,-215.456 550.924,-209.52 540.362,-208.688 542.148,-215.456"/>
</g>
<!-- Node14&#45;&gt;Node8 -->
<g id="edge17" class="edge"><title>Node14&#45;&gt;Node8</title>
<path fill="none" stroke="midnightblue" d="M332.963,-285.589C351.774,-290.536 374.915,-296.621 394.947,-301.889"/>
<polygon fill="midnightblue" stroke="midnightblue" points="394.237,-305.322 404.799,-304.48 396.018,-298.552 394.237,-305.322"/>
</g>
<!-- Node15 -->
<g id="node16" class="node"><title>Node15</title>
<g id="a_node16"><a xlink:href="class_a_p_i.html#a2bc55a6035fbd8dd03a97cacab63c101" target="_top" xlink:title="API::nrfjprog_memwr Writes to the provided address in memory with help of the NVM Controller or,...">
<polygon fill="white" stroke="black" points="388.5,-266.5 388.5,-285.5 495.5,-285.5 495.5,-266.5 388.5,-266.5"/>
<text text-anchor="middle" x="442" y="-273.5" font-family="Helvetica,sans-Serif" font-size="10.00">API::nrfjprog_memwr</text>
</a>
</g>
</g>
<!-- Node14&#45;&gt;Node15 -->
<g id="edge18" class="edge"><title>Node14&#45;&gt;Node15</title>
<path fill="none" stroke="midnightblue" d="M339.855,-276C351.924,-276 365.282,-276 378.227,-276"/>
<polygon fill="midnightblue" stroke="midnightblue" points="378.487,-279.5 388.487,-276 378.487,-272.5 378.487,-279.5"/>
</g>
<!-- Node15&#45;&gt;Node9 -->
<g id="edge19" class="edge"><title>Node15&#45;&gt;Node9</title>
<path fill="none" stroke="midnightblue" d="M478.26,-266.421C486.234,-263.771 494.543,-260.613 502,-257 525.476,-245.627 549.981,-228.552 566.614,-216.056"/>
<polygon fill="midnightblue" stroke="midnightblue" points="569.172,-218.505 574.988,-209.649 564.919,-212.946 569.172,-218.505"/>
</g>
<!-- Node17 -->
<g id="node18" class="node"><title>Node17</title>
<g id="a_node18"><a xlink:href="class_a_p_i.html#a58f3eab95763686a220892129399dff5" target="_top" xlink:title="API::nrfjprog_memrd Reads n bytes from the provided address. If width is not given,...">
<polygon fill="white" stroke="black" points="389.5,-190.5 389.5,-209.5 494.5,-209.5 494.5,-190.5 389.5,-190.5"/>
<text text-anchor="middle" x="442" y="-197.5" font-family="Helvetica,sans-Serif" font-size="10.00">API::nrfjprog_memrd</text>
</a>
</g>
</g>
<!-- Node16&#45;&gt;Node17 -->
<g id="edge21" class="edge"><title>Node16&#45;&gt;Node17</title>
<path fill="none" stroke="midnightblue" d="M338.684,-200C351.296,-200 365.397,-200 379.002,-200"/>
<polygon fill="midnightblue" stroke="midnightblue" points="379.277,-203.5 389.277,-200 379.277,-196.5 379.277,-203.5"/>
</g>
<!-- Node17&#45;&gt;Node9 -->
<g id="edge22" class="edge"><title>Node17&#45;&gt;Node9</title>
<path fill="none" stroke="midnightblue" d="M494.581,-200C505.222,-200 516.512,-200 527.411,-200"/>
<polygon fill="midnightblue" stroke="midnightblue" points="527.706,-203.5 537.706,-200 527.706,-196.5 527.706,-203.5"/>
</g>
<!-- Node19 -->
<g id="node20" class="node"><title>Node19</title>
<g id="a_node20"><a xlink:href="class_a_p_i.html#a1070823025ffe73cf971f5bf7e0ca281" target="_top" xlink:title="API::nrfjprog_eraseuicr Erases the UICR page.">
<polygon fill="white" stroke="black" points="384.5,-76.5 384.5,-95.5 499.5,-95.5 499.5,-76.5 384.5,-76.5"/>
<text text-anchor="middle" x="442" y="-83.5" font-family="Helvetica,sans-Serif" font-size="10.00">API::nrfjprog_eraseuicr</text>
</a>
</g>
</g>
<!-- Node18&#45;&gt;Node19 -->
<g id="edge24" class="edge"><title>Node18&#45;&gt;Node19</title>
<path fill="none" stroke="midnightblue" d="M343.815,-86C353.507,-86 363.881,-86 374.111,-86"/>
<polygon fill="midnightblue" stroke="midnightblue" points="374.262,-89.5001 384.262,-86 374.262,-82.5001 374.262,-89.5001"/>
</g>
<!-- Node19&#45;&gt;Node9 -->
<g id="edge25" class="edge"><title>Node19&#45;&gt;Node9</title>
<path fill="none" stroke="midnightblue" d="M482.726,-95.5829C489.444,-98.0882 496.135,-101.189 502,-105 533.523,-125.483 560.636,-160.609 575.313,-181.929"/>
<polygon fill="midnightblue" stroke="midnightblue" points="572.511,-184.035 580.985,-190.394 578.326,-180.138 572.511,-184.035"/>
</g>
<!-- Node21 -->
<g id="node22" class="node"><title>Node21</title>
<g id="a_node22"><a xlink:href="class_a_p_i.html#a247bfb38bf5dc0ccbe2d63e931eb68f9" target="_top" xlink:title="API::nrfjprog_erasepage Erases the flash pages starting at the given start address and ending at the ...">
<polygon fill="white" stroke="black" points="382,-38.5 382,-57.5 502,-57.5 502,-38.5 382,-38.5"/>
<text text-anchor="middle" x="442" y="-45.5" font-family="Helvetica,sans-Serif" font-size="10.00">API::nrfjprog_erasepage</text>
</a>
</g>
</g>
<!-- Node20&#45;&gt;Node21 -->
<g id="edge27" class="edge"><title>Node20&#45;&gt;Node21</title>
<path fill="none" stroke="midnightblue" d="M346.229,-48C354.502,-48 363.214,-48 371.865,-48"/>
<polygon fill="midnightblue" stroke="midnightblue" points="371.964,-51.5001 381.964,-48 371.964,-44.5001 371.964,-51.5001"/>
</g>
<!-- Node21&#45;&gt;Node9 -->
<g id="edge28" class="edge"><title>Node21&#45;&gt;Node9</title>
<path fill="none" stroke="midnightblue" d="M485.111,-57.5503C491.128,-60.0241 496.972,-63.1232 502,-67 541.622,-97.5502 567.962,-152.174 579.813,-180.994"/>
<polygon fill="midnightblue" stroke="midnightblue" points="576.583,-182.344 583.521,-190.352 583.091,-179.766 576.583,-182.344"/>
</g>
<!-- Node23 -->
<g id="node24" class="node"><title>Node23</title>
<g id="a_node24"><a xlink:href="class_a_p_i.html#ac5e9ab1c5ea7f18fcbb05c955e06e26f" target="_top" xlink:title="API::nrfjprog_eraseall Erases all user available program flash memory and the UICR page.">
<polygon fill="white" stroke="black" points="387.5,-114.5 387.5,-133.5 496.5,-133.5 496.5,-114.5 387.5,-114.5"/>
<text text-anchor="middle" x="442" y="-121.5" font-family="Helvetica,sans-Serif" font-size="10.00">API::nrfjprog_eraseall</text>
</a>
</g>
</g>
<!-- Node22&#45;&gt;Node23 -->
<g id="edge30" class="edge"><title>Node22&#45;&gt;Node23</title>
<path fill="none" stroke="midnightblue" d="M340.64,-124C352.182,-124 364.858,-124 377.2,-124"/>
<polygon fill="midnightblue" stroke="midnightblue" points="377.457,-127.5 387.457,-124 377.457,-120.5 377.457,-127.5"/>
</g>
<!-- Node23&#45;&gt;Node9 -->
<g id="edge31" class="edge"><title>Node23&#45;&gt;Node9</title>
<path fill="none" stroke="midnightblue" d="M478.26,-133.579C486.234,-136.229 494.543,-139.387 502,-143 525.476,-154.373 549.981,-171.448 566.614,-183.944"/>
<polygon fill="midnightblue" stroke="midnightblue" points="564.919,-187.054 574.988,-190.351 569.172,-181.495 564.919,-187.054"/>
</g>
<!-- Node25 -->
<g id="node26" class="node"><title>Node25</title>
<g id="a_node26"><a xlink:href="class_a_p_i.html#a3387e0691dd41568db455cf92703be16" target="_top" xlink:title="API::nrfjprog_program">
<polygon fill="white" stroke="black" points="387,-0.5 387,-19.5 497,-19.5 497,-0.5 387,-0.5"/>
<text text-anchor="middle" x="442" y="-7.5" font-family="Helvetica,sans-Serif" font-size="10.00">API::nrfjprog_program</text>
</a>
</g>
</g>
<!-- Node24&#45;&gt;Node25 -->
<g id="edge33" class="edge"><title>Node24&#45;&gt;Node25</title>
<path fill="none" stroke="midnightblue" d="M341.824,-10C352.899,-10 364.959,-10 376.732,-10"/>
<polygon fill="midnightblue" stroke="midnightblue" points="376.973,-13.5001 386.973,-10 376.973,-6.5001 376.973,-13.5001"/>
</g>
<!-- Node25&#45;&gt;Node9 -->
<g id="edge34" class="edge"><title>Node25&#45;&gt;Node9</title>
<path fill="none" stroke="midnightblue" d="M486.703,-19.6066C492.232,-22.0612 497.514,-25.1397 502,-29 549.847,-70.1694 573.54,-144.687 582.541,-180.176"/>
<polygon fill="midnightblue" stroke="midnightblue" points="579.219,-181.331 584.959,-190.236 586.025,-179.695 579.219,-181.331"/>
</g>
<!-- Node27 -->
<g id="node28" class="node"><title>Node27</title>
<g id="a_node28"><a xlink:href="class_a_p_i.html#ae84704f7b2d4bea116893cc3bd087f02" target="_top" xlink:title="API::nrfjprog_readcode Reads the device flash and stores it in the given file path.">
<polygon fill="white" stroke="black" points="384.5,-342.5 384.5,-361.5 499.5,-361.5 499.5,-342.5 384.5,-342.5"/>
<text text-anchor="middle" x="442" y="-349.5" font-family="Helvetica,sans-Serif" font-size="10.00">API::nrfjprog_readcode</text>
</a>
</g>
</g>
<!-- Node26&#45;&gt;Node27 -->
<g id="edge36" class="edge"><title>Node26&#45;&gt;Node27</title>
<path fill="none" stroke="midnightblue" d="M343.815,-352C353.507,-352 363.881,-352 374.111,-352"/>
<polygon fill="midnightblue" stroke="midnightblue" points="374.262,-355.5 384.262,-352 374.262,-348.5 374.262,-355.5"/>
</g>
<!-- Node27&#45;&gt;Node9 -->
<g id="edge37" class="edge"><title>Node27&#45;&gt;Node9</title>
<path fill="none" stroke="midnightblue" d="M485.111,-342.45C491.128,-339.976 496.972,-336.877 502,-333 541.622,-302.45 567.962,-247.826 579.813,-219.006"/>
<polygon fill="midnightblue" stroke="midnightblue" points="583.091,-220.234 583.521,-209.648 576.583,-217.656 583.091,-220.234"/>
</g>
<!-- Node28&#45;&gt;Node23 -->
<g id="edge41" class="edge"><title>Node28&#45;&gt;Node23</title>
<path fill="none" stroke="midnightblue" d="M330.744,-152.995C349.894,-147.959 374.024,-141.613 394.823,-136.143"/>
<polygon fill="midnightblue" stroke="midnightblue" points="395.949,-139.466 404.73,-133.538 394.169,-132.696 395.949,-139.466"/>
</g>
<!-- Node29 -->
<g id="node30" class="node"><title>Node29</title>
<g id="a_node30"><a xlink:href="class_a_p_i.html#a79ce66659369f5a2195c57f7df14bea6" target="_top" xlink:title="API::nrfjprog_rbp Enables the readback protection mechanism. Valid argument options are CR0 and ALL.">
<polygon fill="white" stroke="black" points="397.5,-152.5 397.5,-171.5 486.5,-171.5 486.5,-152.5 397.5,-152.5"/>
<text text-anchor="middle" x="442" y="-159.5" font-family="Helvetica,sans-Serif" font-size="10.00">API::nrfjprog_rbp</text>
</a>
</g>
</g>
<!-- Node28&#45;&gt;Node29 -->
<g id="edge39" class="edge"><title>Node28&#45;&gt;Node29</title>
<path fill="none" stroke="midnightblue" d="M330.744,-162C347.652,-162 368.442,-162 387.394,-162"/>
<polygon fill="midnightblue" stroke="midnightblue" points="387.402,-165.5 397.402,-162 387.402,-158.5 387.402,-165.5"/>
</g>
<!-- Node29&#45;&gt;Node9 -->
<g id="edge40" class="edge"><title>Node29&#45;&gt;Node9</title>
<path fill="none" stroke="midnightblue" d="M479.337,-171.589C498.083,-176.536 521.143,-182.621 541.107,-187.889"/>
<polygon fill="midnightblue" stroke="midnightblue" points="540.362,-191.312 550.924,-190.48 542.148,-184.544 540.362,-191.312"/>
</g>
<!-- Node30&#45;&gt;Node5 -->
<g id="edge43" class="edge"><title>Node30&#45;&gt;Node5</title>
<path fill="none" stroke="midnightblue" d="M330.014,-390C347.117,-390 368.331,-390 387.616,-390"/>
<polygon fill="midnightblue" stroke="midnightblue" points="387.792,-393.5 397.792,-390 387.792,-386.5 387.792,-393.5"/>
</g>
</g>
</svg>
