<?xml version="1.0" encoding="UTF-8" standalone="no"?>
<!DOCTYPE svg PUBLIC "-//W3C//DTD SVG 1.1//EN"
 "http://www.w3.org/Graphics/SVG/1.1/DTD/svg11.dtd">
<!-- Generated by graphviz version 2.38.0 (20140413.2041)
 -->
<!-- Title: H:/Workspace/QT/Nrfjprogmer/UI/mainwindow.cpp Pages: 1 -->
<svg width="653pt" height="207pt"
 viewBox="0.00 0.00 653.00 207.00" xmlns="http://www.w3.org/2000/svg" xmlns:xlink="http://www.w3.org/1999/xlink">
<g id="graph0" class="graph" transform="scale(1 1) rotate(0) translate(4 203)">
<title>H:/Workspace/QT/Nrfjprogmer/UI/mainwindow.cpp</title>
<polygon fill="white" stroke="none" points="-4,4 -4,-203 649,-203 649,4 -4,4"/>
<!-- Node0 -->
<g id="node1" class="node"><title>Node0</title>
<g id="a_node1"><a xlink:title=" ">
<polygon fill="#bfbfbf" stroke="black" points="285,-168.5 285,-198.5 432,-198.5 432,-168.5 285,-168.5"/>
<text text-anchor="start" x="293" y="-186.5" font-family="Helvetica,sans-Serif" font-size="10.00">H:/Workspace/QT/Nrfjprogmer</text>
<text text-anchor="middle" x="358.5" y="-175.5" font-family="Helvetica,sans-Serif" font-size="10.00">/UI/mainwindow.cpp</text>
</a>
</g>
</g>
<!-- Node1 -->
<g id="node2" class="node"><title>Node1</title>
<g id="a_node2"><a xlink:href="mainwindow_8h.html" target="_top" xlink:title=" ">
<polygon fill="white" stroke="black" points="87,-112.5 87,-131.5 164,-131.5 164,-112.5 87,-112.5"/>
<text text-anchor="middle" x="125.5" y="-119.5" font-family="Helvetica,sans-Serif" font-size="10.00">mainwindow.h</text>
</a>
</g>
</g>
<!-- Node0&#45;&gt;Node1 -->
<g id="edge1" class="edge"><title>Node0&#45;&gt;Node1</title>
<path fill="none" stroke="midnightblue" d="M303.577,-168.475C262.327,-157.941 206.622,-143.716 168.567,-133.998"/>
<polygon fill="midnightblue" stroke="midnightblue" points="169.366,-130.59 158.811,-131.506 167.634,-137.372 169.366,-130.59"/>
</g>
<!-- Node4 -->
<g id="node5" class="node"><title>Node4</title>
<g id="a_node5"><a xlink:title=" ">
<polygon fill="white" stroke="#bfbfbf" points="0,-0.5 0,-19.5 53,-19.5 53,-0.5 0,-0.5"/>
<text text-anchor="middle" x="26.5" y="-7.5" font-family="Helvetica,sans-Serif" font-size="10.00">QObject</text>
</a>
</g>
</g>
<!-- Node0&#45;&gt;Node4 -->
<g id="edge12" class="edge"><title>Node0&#45;&gt;Node4</title>
<path fill="none" stroke="midnightblue" d="M341.729,-168.407C310.489,-142.778 240.469,-88.2185 173.5,-56 153.934,-46.5868 99.8602,-30.9618 63.0455,-20.8233"/>
<polygon fill="midnightblue" stroke="midnightblue" points="63.7317,-17.3824 53.1625,-18.1189 61.8841,-24.1342 63.7317,-17.3824"/>
</g>
<!-- Node8 -->
<g id="node9" class="node"><title>Node8</title>
<g id="a_node9"><a xlink:title=" ">
<polygon fill="white" stroke="#bfbfbf" points="301.5,-0.5 301.5,-19.5 353.5,-19.5 353.5,-0.5 301.5,-0.5"/>
<text text-anchor="middle" x="327.5" y="-7.5" font-family="Helvetica,sans-Serif" font-size="10.00">QDebug</text>
</a>
</g>
</g>
<!-- Node0&#45;&gt;Node8 -->
<g id="edge13" class="edge"><title>Node0&#45;&gt;Node8</title>
<path fill="none" stroke="midnightblue" d="M354.079,-168.472C351.037,-158.405 347.093,-144.471 344.5,-132 337.04,-96.1247 331.908,-53.5739 329.358,-29.6894"/>
<polygon fill="midnightblue" stroke="midnightblue" points="332.822,-29.1629 328.315,-19.5748 325.859,-29.8811 332.822,-29.1629"/>
</g>
<!-- Node9 -->
<g id="node10" class="node"><title>Node9</title>
<g id="a_node10"><a xlink:title=" ">
<polygon fill="white" stroke="#bfbfbf" points="372,-0.5 372,-19.5 453,-19.5 453,-0.5 372,-0.5"/>
<text text-anchor="middle" x="412.5" y="-7.5" font-family="Helvetica,sans-Serif" font-size="10.00">QMessageBox</text>
</a>
</g>
</g>
<!-- Node0&#45;&gt;Node9 -->
<g id="edge15" class="edge"><title>Node0&#45;&gt;Node9</title>
<path fill="none" stroke="midnightblue" d="M361.996,-168.372C365.606,-154.078 371.537,-131.386 377.5,-112 386.519,-82.6811 398.482,-49.1166 405.828,-29.012"/>
<polygon fill="midnightblue" stroke="midnightblue" points="409.131,-30.1728 409.298,-19.5793 402.561,-27.7565 409.131,-30.1728"/>
</g>
<!-- Node10 -->
<g id="node11" class="node"><title>Node10</title>
<g id="a_node11"><a xlink:title=" ">
<polygon fill="white" stroke="#bfbfbf" points="386.5,-112.5 386.5,-131.5 476.5,-131.5 476.5,-112.5 386.5,-112.5"/>
<text text-anchor="middle" x="431.5" y="-119.5" font-family="Helvetica,sans-Serif" font-size="10.00">ui_mainwindow.h</text>
</a>
</g>
</g>
<!-- Node0&#45;&gt;Node10 -->
<g id="edge10" class="edge"><title>Node0&#45;&gt;Node10</title>
<path fill="none" stroke="midnightblue" d="M375.8,-168.399C386.955,-159.308 401.454,-147.49 412.862,-138.191"/>
<polygon fill="midnightblue" stroke="midnightblue" points="415.338,-140.689 420.878,-131.658 410.915,-135.263 415.338,-140.689"/>
</g>
<!-- Node11 -->
<g id="node12" class="node"><title>Node11</title>
<g id="a_node12"><a xlink:title=" ">
<polygon fill="white" stroke="#bfbfbf" points="495,-112.5 495,-131.5 562,-131.5 562,-112.5 495,-112.5"/>
<text text-anchor="middle" x="528.5" y="-119.5" font-family="Helvetica,sans-Serif" font-size="10.00">QFileDialog</text>
</a>
</g>
</g>
<!-- Node0&#45;&gt;Node11 -->
<g id="edge11" class="edge"><title>Node0&#45;&gt;Node11</title>
<path fill="none" stroke="midnightblue" d="M398.788,-168.399C427.82,-158.238 466.581,-144.672 494.151,-135.022"/>
<polygon fill="midnightblue" stroke="midnightblue" points="495.481,-138.265 503.763,-131.658 493.169,-131.658 495.481,-138.265"/>
</g>
<!-- Node12 -->
<g id="node13" class="node"><title>Node12</title>
<g id="a_node13"><a xlink:title=" ">
<polygon fill="white" stroke="#bfbfbf" points="580,-112.5 580,-131.5 645,-131.5 645,-112.5 580,-112.5"/>
<text text-anchor="middle" x="612.5" y="-119.5" font-family="Helvetica,sans-Serif" font-size="10.00">QDateTime</text>
</a>
</g>
</g>
<!-- Node0&#45;&gt;Node12 -->
<g id="edge14" class="edge"><title>Node0&#45;&gt;Node12</title>
<path fill="none" stroke="midnightblue" d="M418.373,-168.475C464.983,-157.556 528.522,-142.672 570.017,-132.952"/>
<polygon fill="midnightblue" stroke="midnightblue" points="570.872,-136.346 579.81,-130.658 569.275,-129.531 570.872,-136.346"/>
</g>
<!-- Node2 -->
<g id="node3" class="node"><title>Node2</title>
<g id="a_node3"><a xlink:title=" ">
<polygon fill="white" stroke="#bfbfbf" points="84.5,-56.5 84.5,-75.5 164.5,-75.5 164.5,-56.5 84.5,-56.5"/>
<text text-anchor="middle" x="124.5" y="-63.5" font-family="Helvetica,sans-Serif" font-size="10.00">QMainWindow</text>
</a>
</g>
</g>
<!-- Node1&#45;&gt;Node2 -->
<g id="edge2" class="edge"><title>Node1&#45;&gt;Node2</title>
<path fill="none" stroke="midnightblue" d="M125.335,-112.083C125.204,-105.006 125.016,-94.8611 124.852,-85.9865"/>
<polygon fill="midnightblue" stroke="midnightblue" points="128.347,-85.6845 124.662,-75.7511 121.348,-85.8142 128.347,-85.6845"/>
</g>
<!-- Node3 -->
<g id="node4" class="node"><title>Node3</title>
<g id="a_node4"><a xlink:href="api_8h.html" target="_top" xlink:title=" ">
<polygon fill="white" stroke="black" points="221,-56.5 221,-75.5 286,-75.5 286,-56.5 221,-56.5"/>
<text text-anchor="middle" x="253.5" y="-63.5" font-family="Helvetica,sans-Serif" font-size="10.00">../API/api.h</text>
</a>
</g>
</g>
<!-- Node1&#45;&gt;Node3 -->
<g id="edge3" class="edge"><title>Node1&#45;&gt;Node3</title>
<path fill="none" stroke="midnightblue" d="M145.782,-112.444C166.847,-103.557 200.017,-89.5632 223.986,-79.4514"/>
<polygon fill="midnightblue" stroke="midnightblue" points="225.46,-82.6283 233.313,-75.5164 222.739,-76.1787 225.46,-82.6283"/>
</g>
<!-- Node3&#45;&gt;Node4 -->
<g id="edge4" class="edge"><title>Node3&#45;&gt;Node4</title>
<path fill="none" stroke="midnightblue" d="M220.684,-57.4114C184.542,-49.0221 124.45,-34.9817 63.0829,-20.1166"/>
<polygon fill="midnightblue" stroke="midnightblue" points="63.7698,-16.6818 53.2264,-17.7245 62.1188,-23.4843 63.7698,-16.6818"/>
</g>
<!-- Node5 -->
<g id="node6" class="node"><title>Node5</title>
<g id="a_node6"><a xlink:title=" ">
<polygon fill="white" stroke="#bfbfbf" points="71.5,-0.5 71.5,-19.5 121.5,-19.5 121.5,-0.5 71.5,-0.5"/>
<text text-anchor="middle" x="96.5" y="-7.5" font-family="Helvetica,sans-Serif" font-size="10.00">QString</text>
</a>
</g>
</g>
<!-- Node3&#45;&gt;Node5 -->
<g id="edge5" class="edge"><title>Node3&#45;&gt;Node5</title>
<path fill="none" stroke="midnightblue" d="M228.623,-56.4435C202.211,-47.3591 160.285,-32.9388 130.758,-22.7831"/>
<polygon fill="midnightblue" stroke="midnightblue" points="131.855,-19.4593 121.261,-19.5164 129.579,-26.0787 131.855,-19.4593"/>
</g>
<!-- Node6 -->
<g id="node7" class="node"><title>Node6</title>
<g id="a_node7"><a xlink:title=" ">
<polygon fill="white" stroke="#bfbfbf" points="140,-0.5 140,-19.5 205,-19.5 205,-0.5 140,-0.5"/>
<text text-anchor="middle" x="172.5" y="-7.5" font-family="Helvetica,sans-Serif" font-size="10.00">QStringList</text>
</a>
</g>
</g>
<!-- Node3&#45;&gt;Node6 -->
<g id="edge6" class="edge"><title>Node3&#45;&gt;Node6</title>
<path fill="none" stroke="midnightblue" d="M240.486,-56.324C227.968,-47.979 208.818,-35.2122 194.029,-25.3524"/>
<polygon fill="midnightblue" stroke="midnightblue" points="195.744,-22.2894 185.482,-19.6545 191.861,-28.1137 195.744,-22.2894"/>
</g>
<!-- Node7 -->
<g id="node8" class="node"><title>Node7</title>
<g id="a_node8"><a xlink:title=" ">
<polygon fill="white" stroke="#bfbfbf" points="223.5,-0.5 223.5,-19.5 283.5,-19.5 283.5,-0.5 223.5,-0.5"/>
<text text-anchor="middle" x="253.5" y="-7.5" font-family="Helvetica,sans-Serif" font-size="10.00">QProcess</text>
</a>
</g>
</g>
<!-- Node3&#45;&gt;Node7 -->
<g id="edge7" class="edge"><title>Node3&#45;&gt;Node7</title>
<path fill="none" stroke="midnightblue" d="M253.5,-56.083C253.5,-49.0059 253.5,-38.8611 253.5,-29.9865"/>
<polygon fill="midnightblue" stroke="midnightblue" points="257,-29.751 253.5,-19.7511 250,-29.7511 257,-29.751"/>
</g>
<!-- Node3&#45;&gt;Node8 -->
<g id="edge8" class="edge"><title>Node3&#45;&gt;Node8</title>
<path fill="none" stroke="midnightblue" d="M265.389,-56.324C276.65,-48.1066 293.787,-35.6017 307.209,-25.8069"/>
<polygon fill="midnightblue" stroke="midnightblue" points="309.38,-28.5559 315.394,-19.8339 305.253,-22.9014 309.38,-28.5559"/>
</g>
<!-- Node3&#45;&gt;Node9 -->
<g id="edge9" class="edge"><title>Node3&#45;&gt;Node9</title>
<path fill="none" stroke="midnightblue" d="M278.694,-56.4435C305.443,-47.3591 347.903,-32.9388 377.805,-22.7831"/>
<polygon fill="midnightblue" stroke="midnightblue" points="379.081,-26.0464 387.424,-19.5164 376.829,-19.4182 379.081,-26.0464"/>
</g>
</g>
</svg>
